<svg width="22" height="35" viewBox="0 0 22 35" fill="none" xmlns="http://www.w3.org/2000/svg">
<path d="M11.1135 35C9.31558 34.5563 7.68975 33.6689 5.96505 33.0127C3.96205 32.2483 1.98835 31.4206 0 30.6189V30.3915C2.29228 25.3542 4.43076 20.2685 6.52164 15.1529C7.91312 11.9811 9.30337 8.80686 10.6924 5.63013C11.0293 5.97688 10.8828 6.41312 10.8865 6.80835C10.8865 10.0298 10.8682 13.255 10.8865 16.4765C10.9524 22.651 11.0403 28.8255 11.1135 35Z" fill="#FA170D"/>
<path d="M11.1135 35C11.0403 28.8255 10.9524 22.651 10.8974 16.4766C10.8681 13.2551 10.8974 10.0299 10.8974 6.80839C10.8974 6.41317 11.0403 5.97692 10.7034 5.63017C10.7109 5.49331 10.7476 5.35975 10.8108 5.23872C10.8741 5.1177 10.9623 5.01209 11.0695 4.9292V25.2834L11.3039 25.3058C12.7198 22.0321 14.1406 18.7572 15.5662 15.481C16.7673 17.7554 17.6351 20.179 18.6677 22.5317C19.7663 24.9926 20.7733 27.4758 21.8425 29.9404C22.0146 30.3356 22.1208 30.5854 21.6082 30.7868C18.1075 32.1812 14.6105 33.5944 11.1135 35Z" fill="#CF061F"/>
<path d="M15.5662 15.481L11.2856 25.3058L11.0513 25.2834V4.92922C11.0513 4.79126 11.0769 4.65331 11.0879 4.51162C11.4207 4.50436 11.7475 4.42022 12.0436 4.26554C14.3945 3.2812 16.771 2.35278 19.0925 1.30133C19.8615 0.950845 20.8356 0.909831 21.3482 0.0597191C22.3845 -0.14908 21.9158 0.466132 21.751 0.850174C20.235 4.42213 18.7044 7.98291 17.1884 11.5586C16.6355 12.8561 16.1119 14.1686 15.5662 15.481Z" fill="#09879D"/>
<path d="M21.3483 0.0595703C20.8356 0.909682 19.8616 0.950696 19.0926 1.30118C16.771 2.35264 14.3945 3.28105 12.0437 4.28403C11.7475 4.43871 11.4207 4.52286 11.0879 4.53011C10.7637 4.47446 10.4442 4.39343 10.1322 4.28776C6.97088 2.94051 3.81442 1.59077 0.662842 0.238541V0.0595703H21.3483Z" fill="#117799"/>
<path d="M0.662801 0.238525C3.81926 1.58578 6.97572 2.9293 10.1322 4.2691C10.4442 4.37477 10.7637 4.4558 11.0879 4.51146C11.0879 4.65314 11.0623 4.7911 11.0513 4.92905C10.9441 5.01195 10.8558 5.11756 10.7926 5.23858C10.7293 5.3596 10.6927 5.49316 10.6851 5.63002C9.29851 8.80676 7.91069 11.981 6.52166 15.1528L0.201416 0.410039L0.662801 0.238525Z" fill="#0D475C"/>
</svg>
