<svg width="28" height="25" viewBox="0 0 28 25" fill="none" xmlns="http://www.w3.org/2000/svg">
<path d="M27.9778 2.64644C27.8254 3.32294 27.4638 3.93427 26.9444 4.39367C22.9791 8.54735 18.9989 12.7109 15.0038 16.8845C14.9422 16.9613 14.8875 17.0434 14.8402 17.1298C14.5521 16.1853 14.0294 15.3291 13.3208 14.6413C12.6122 13.9535 11.7409 13.4565 10.7881 13.1967C10.8947 13.1348 10.9965 13.0652 11.093 12.9885L23.8589 0.780263C24.226 0.372341 24.7239 0.105312 25.2668 0.0252322C25.8098 -0.054848 26.3636 0.0570402 26.8329 0.341599C27.1186 0.504505 27.3661 0.726879 27.5585 0.993681C27.7509 1.26048 27.8838 1.56549 27.9481 1.88808C27.9481 1.96243 27.9481 2.02934 28.0002 2.09626L27.9778 2.64644Z" fill="#EC6F2D"/>
<path d="M0 20.9515C0.394054 20.8251 0.788109 20.7061 1.18216 20.5648C2.64719 20.0658 3.88279 19.0546 4.66174 17.7172C5.05026 16.983 5.58102 16.3335 6.22309 15.8065C6.75995 15.371 7.38169 15.0521 8.04865 14.8704C8.7156 14.6886 9.41313 14.6478 10.0967 14.7507C10.8211 14.8556 11.4998 15.1675 12.0511 15.6489C12.6024 16.1304 13.003 16.7608 13.2045 17.4645C13.5753 18.5236 13.5542 19.6806 13.145 20.7255C12.7357 21.7704 11.9655 22.634 10.974 23.1597C9.42197 24.0498 7.63299 24.4393 5.85134 24.2749C4.44495 24.2007 3.07641 23.7929 1.85875 23.0853C1.06662 22.6388 0.43467 21.9548 0.0520461 21.1299L0.00743516 21.0258C0.00743516 21.0258 0.00743499 20.9961 0 20.9515Z" fill="#EC6F2D"/>
</svg>
