<svg width="21" height="28" viewBox="0 0 21 28" fill="none" xmlns="http://www.w3.org/2000/svg">
<path d="M11.007 0C11.5357 0.295329 12.0416 0.629467 12.5208 0.999661C12.862 1.33588 13.2678 1.59948 13.7137 1.77456C14.1596 1.94965 14.6363 2.03258 15.1152 2.01836C17.0812 1.94696 17.8 3.2846 17.8619 4.84597C17.8893 5.66272 18.1723 6.45026 18.6711 7.09759C19.0297 7.56918 19.3332 8.08027 19.5756 8.62088C19.8161 9.05541 19.8912 9.56232 19.7871 10.0479C19.683 10.5336 19.4066 10.9651 19.0091 11.2628C18.6096 11.5687 18.2923 11.9688 18.0854 12.4274C17.8785 12.8859 17.7886 13.3887 17.8238 13.8905C17.8238 15.7137 16.0101 16.9228 14.7296 16.6467C14.415 16.6067 14.0954 16.6372 13.7941 16.736C13.4927 16.8348 13.2172 16.9995 12.9873 17.218C12.626 17.5165 12.2494 17.7962 11.8591 18.0558C11.4475 18.3218 10.9668 18.4609 10.4767 18.4558C9.98668 18.4507 9.50893 18.3017 9.10293 18.0272C8.66498 17.7463 8.26512 17.4036 7.84621 17.0751C7.38235 16.72 6.7984 16.5595 6.21819 16.6277C5.46495 16.6774 4.72266 16.4269 4.15356 15.931C3.58447 15.435 3.23485 14.7339 3.18113 13.981C3.18113 13.6953 3.18113 13.405 3.14781 13.1146C3.14834 12.8526 3.09151 12.5937 2.98131 12.356C2.87112 12.1184 2.71022 11.9077 2.50993 11.7389C0.715304 10.3631 0.958077 8.98742 2.08627 7.45461C2.79481 6.60177 3.18816 5.53101 3.20017 4.42231C3.21967 4.14868 3.28399 3.88011 3.39058 3.62734C3.50838 3.1564 3.78681 2.74133 4.17786 2.45369C4.56891 2.16605 5.04807 2.02388 5.53271 2.05168C6.13786 2.08104 6.74229 1.98069 7.3055 1.75738C7.8687 1.53407 8.37766 1.19295 8.79827 0.756886C9.17377 0.458202 9.58272 0.2042 10.0169 0H11.007ZM16.0053 9.33492C15.9966 7.88485 15.4174 6.4965 14.3929 5.47024C13.3684 4.44397 11.9811 3.86231 10.531 3.85107C9.07029 3.84476 7.66689 4.41897 6.62955 5.4474C5.5922 6.47582 5.00587 7.8742 4.99956 9.33492C4.99325 10.7956 5.56746 12.199 6.59588 13.2364C7.62431 14.2737 9.02269 14.8601 10.4834 14.8664C11.2096 14.8689 11.9291 14.7274 12.6003 14.4501C13.2715 14.1728 13.881 13.7651 14.3937 13.2507C14.9063 12.7363 15.3118 12.1254 15.5869 11.4533C15.8619 10.7811 16.0009 10.0611 15.9958 9.33492H16.0053Z" fill="#EC6F2D"/>
<path d="M5.13747 28.0001C4.79949 27.524 4.41867 27.048 4.12829 26.572C3.39045 25.2677 3.39045 25.2629 1.9338 25.539C1.49585 25.6247 1.04839 25.6961 0.600919 25.7389C0.153452 25.7818 -0.0369591 25.5342 0.00588348 25.1106C0.0234197 24.8786 0.081418 24.6514 0.177254 24.4394C1.17691 22.4829 2.19086 20.5312 3.2286 18.5223C3.53358 18.9204 3.92047 19.2484 4.36312 19.4841C4.80577 19.7198 5.29385 19.8577 5.79439 19.8885C6.23965 19.8952 6.6792 19.9899 7.0877 20.1672C7.49619 20.3445 7.86557 20.6008 8.17453 20.9215C8.44316 21.1252 8.72999 21.3037 9.03139 21.4547C8.38399 22.6876 7.72707 23.9253 7.08443 25.1677C6.78929 25.7437 6.54652 26.3483 6.2371 26.9147C6.00172 27.2903 5.74587 27.6526 5.47069 28.0001H5.13747Z" fill="#EC6F2D"/>
<path d="M15.5581 28C15.3622 27.8176 15.188 27.6132 15.0393 27.3906C14.0301 25.4151 13.0399 23.4301 12.0355 21.4355L12.1355 21.3689C12.6708 20.8866 13.2602 20.4681 13.892 20.1217C14.5299 19.8503 15.3201 19.9503 15.9818 19.7171C16.6378 19.4189 17.2656 19.062 17.8574 18.6508C18.838 20.5549 19.8805 22.5256 20.8754 24.5297C20.9447 24.6897 20.9804 24.8623 20.9804 25.0367C20.9804 25.2111 20.9447 25.3836 20.8754 25.5436C20.7897 25.7103 20.2946 25.7388 19.9947 25.7055C19.314 25.6293 18.6476 25.458 17.9668 25.3675C17.8763 25.3666 17.7866 25.3858 17.7043 25.4237C17.622 25.4615 17.5491 25.5171 17.4908 25.5865C17.1385 26.153 16.8482 26.7575 16.4959 27.324C16.3154 27.5658 16.1148 27.792 15.8961 28H15.5581Z" fill="#EC6F2D"/>
<path d="M9.97414 12.1768C9.15537 11.3247 8.38897 10.5345 7.6416 9.72525C7.60411 9.65578 7.58447 9.57808 7.58447 9.49914C7.58447 9.4202 7.60411 9.3425 7.6416 9.27303C7.98434 8.85888 8.36517 8.48282 8.76027 8.05915L10.0551 9.23494C10.7644 8.5447 11.4832 7.88778 12.1496 7.1785C12.5161 6.7834 12.7494 6.81672 13.1017 7.1785C14.1489 8.32573 14.2584 8.00203 13.0588 9.18258C12.0591 10.1537 11.069 11.1057 9.97414 12.1768Z" fill="#EC6F2D"/>
</svg>
