<svg width="28" height="25" viewBox="0 0 28 25" fill="none" xmlns="http://www.w3.org/2000/svg">
<path d="M23.0628 6.60124C22.2446 6.32997 21.4609 6.08022 20.6902 5.80033C20.5524 5.74865 20.449 5.57211 20.3586 5.43431C19.5233 4.11974 18.3027 3.09499 16.8633 2.49997C15.4239 1.90496 13.836 1.76867 12.3163 2.10973C10.7966 2.45078 9.41917 3.25255 8.37209 4.40557C7.32502 5.5586 6.65932 7.00668 6.46588 8.55213C6.27244 10.0976 6.56068 11.6651 7.29126 13.0406C8.02183 14.4161 9.15914 15.5327 10.5479 16.2378C11.9367 16.9429 13.5092 17.2022 15.0508 16.9803C16.5924 16.7584 18.028 16.0661 19.1615 14.998C20.5653 13.6287 21.0433 12.6254 21.5772 9.83075L23.5321 10.468C23.3575 12.3825 22.6068 14.199 21.3791 15.6783C22.1155 16.3759 22.8561 17.0519 23.5666 17.7538C24.5957 18.7657 25.6076 19.7906 26.6152 20.8197C27.4764 21.7067 27.4549 22.5852 26.5507 23.4033C26.3956 23.5454 26.2406 23.6875 26.0813 23.8339C25.1512 24.6219 24.2469 24.5186 23.4977 23.5497C22.1025 21.7527 20.6988 19.9485 19.2864 18.1371C19.1917 18.0208 19.0883 17.9131 18.9678 17.7797C16.0181 19.403 12.9867 19.614 9.92513 18.1801C8.7338 17.6359 7.67324 16.8422 6.8152 15.8527C5.95716 14.8632 5.32166 13.7009 4.95168 12.4445C4.55723 11.1891 4.42573 9.86596 4.56537 8.55751C4.70501 7.24907 5.11281 5.98344 5.76332 4.8396C6.41382 3.69576 7.29308 2.69825 8.34622 1.90932C9.39937 1.12038 10.6038 0.556954 11.8844 0.25418C17.5037 -1.03332 22.0896 2.79903 23.0628 6.60124Z" fill="#EC6F2D"/>
<path d="M7.63439 8.34519L9.14149 9.70589L10.9371 11.3637C11.0217 11.4418 11.1218 11.5012 11.2309 11.538C11.34 11.5748 11.4556 11.5882 11.5703 11.5772C11.6849 11.5662 11.7959 11.5312 11.896 11.4743C11.9962 11.4175 12.0832 11.3402 12.1514 11.2474C13.0427 9.95564 13.9298 8.66383 14.7953 7.34619C14.9037 7.14316 14.9387 6.90892 14.8943 6.68307C14.7987 6.2721 14.8572 5.84031 15.0588 5.46964C15.2604 5.09896 15.5911 4.81519 15.9881 4.67216C16.3925 4.55409 16.8262 4.58837 17.2071 4.76849C17.5879 4.94862 17.8896 5.2621 18.0549 5.64962C18.1688 5.86963 18.3585 6.04095 18.5889 6.1319C20.6615 6.84669 22.7399 7.54714 24.824 8.23323C25.0323 8.28811 25.2532 8.26831 25.4484 8.17725C26.3914 7.72082 27.343 7.98779 27.7693 8.87052C27.8891 9.07291 27.9643 9.29851 27.9899 9.53227C28.0156 9.76603 27.991 10.0026 27.918 10.2261C27.845 10.4496 27.7251 10.655 27.5664 10.8285C27.4077 11.0021 27.2138 11.1397 26.9976 11.2324C26.7815 11.325 26.548 11.3705 26.3129 11.3657C26.0778 11.361 25.8464 11.3062 25.6342 11.2049C25.4219 11.1036 25.2337 10.9582 25.0822 10.7785C24.9306 10.5987 24.8191 10.3886 24.7551 10.1623C24.6367 9.94268 24.4446 9.77189 24.2125 9.68005C22.1413 8.95664 20.0615 8.25907 17.9774 7.5701C17.7835 7.53993 17.585 7.55919 17.4004 7.62608C17.2583 7.66053 17.1205 7.81985 16.9698 7.80694C16.2421 7.73804 16.0354 8.30643 15.7254 8.76718C14.9934 9.84799 14.2355 10.9202 13.525 12.0096C13.3953 12.2411 13.3468 12.5095 13.3872 12.7718C13.4534 13.0906 13.4278 13.4216 13.3135 13.7264C13.1991 14.0313 13.0008 14.2975 12.7413 14.4942C12.5037 14.6922 12.2108 14.8122 11.9026 14.8376C11.5943 14.863 11.2857 14.7927 11.0189 14.6363C10.7246 14.5009 10.4799 14.2772 10.3186 13.9963C10.1573 13.7154 10.0875 13.3913 10.119 13.0689C10.1171 12.873 10.0436 12.6846 9.91227 12.5392C9.37685 11.9771 8.80119 11.4547 8.18986 10.9762C7.94633 10.7991 7.75636 10.5583 7.64088 10.2802C7.5254 10.0022 7.48889 9.69764 7.53535 9.40016C7.56118 9.09443 7.59563 8.80162 7.63439 8.34519ZM26.3268 8.7112C26.2133 8.70422 26.0996 8.71978 25.9921 8.75698C25.8847 8.79418 25.7857 8.85228 25.7008 8.92794C25.6159 9.0036 25.5469 9.09532 25.4977 9.1978C25.4484 9.30028 25.42 9.4115 25.4139 9.52504C25.4019 9.75344 25.4812 9.97726 25.6342 10.1472C25.7872 10.3172 26.0015 10.4195 26.2299 10.4315C26.4583 10.4434 26.6821 10.3642 26.8521 10.2112C27.0221 10.0582 27.1243 9.84387 27.1363 9.61546C27.1481 9.3884 27.0696 9.1659 26.9179 8.99649C26.7663 8.82709 26.5538 8.72454 26.3268 8.7112ZM12.6251 13.1895C12.6251 12.961 12.5343 12.742 12.3728 12.5805C12.2113 12.419 11.9923 12.3283 11.7639 12.3283C11.5335 12.336 11.315 12.4328 11.1545 12.5982C10.9939 12.7636 10.9036 12.9848 10.9027 13.2153C10.9126 13.4369 11.0078 13.6461 11.1682 13.7994C11.3286 13.9526 11.542 14.038 11.7639 14.0377C11.8771 14.0425 11.9902 14.0239 12.0959 13.9831C12.2017 13.9424 12.298 13.8803 12.3788 13.8007C12.4595 13.7212 12.5231 13.6258 12.5655 13.5207C12.6078 13.4155 12.6281 13.3028 12.6251 13.1895ZM16.5005 7.07922C16.7289 7.07922 16.9479 6.98849 17.1094 6.82698C17.2709 6.66547 17.3617 6.44642 17.3617 6.21802C17.3557 5.99733 17.2677 5.78678 17.1149 5.62752C16.962 5.46826 16.7552 5.37174 16.5349 5.35681C16.3065 5.35681 16.0875 5.44755 15.926 5.60905C15.7644 5.77056 15.6737 5.98961 15.6737 6.21802C15.6665 6.33006 15.6827 6.44237 15.7212 6.54782C15.7598 6.65327 15.8198 6.74954 15.8976 6.83053C15.9753 6.91153 16.0691 6.97546 16.1729 7.01827C16.2767 7.06108 16.3882 7.08184 16.5005 7.07922Z" fill="#EC6F2D"/>
<path d="M3.76346 6.88969C3.33286 6.49785 2.9324 6.11892 2.5018 5.79166C2.30445 5.64462 2.06313 5.56873 1.81714 5.57636C1.59545 5.59517 1.37223 5.56975 1.16045 5.50156C0.948668 5.43337 0.752548 5.32378 0.583481 5.17915C0.414414 5.03452 0.275772 4.85774 0.175607 4.65907C0.0754425 4.46041 0.0157523 4.24382 5.1874e-06 4.02189C-0.00106588 3.58522 0.163759 3.16444 0.461136 2.84468C0.758514 2.52492 1.16624 2.33005 1.60184 2.29948C1.81941 2.29126 2.03637 2.32747 2.23947 2.40591C2.44257 2.48435 2.62755 2.60338 2.7831 2.75571C2.93866 2.90804 3.06153 3.09049 3.14421 3.2919C3.22688 3.49331 3.26763 3.70947 3.26396 3.92716C3.2209 4.49986 3.60845 4.68932 3.92278 4.94338C4.00041 4.98457 4.06853 5.04159 4.12276 5.11074C4.17699 5.17989 4.21612 5.25964 4.23762 5.34485C4.25913 5.43005 4.26253 5.51882 4.24761 5.60542C4.23269 5.69203 4.19978 5.77454 4.151 5.84764C4.00105 6.18691 3.87164 6.53489 3.76346 6.88969ZM2.49749 3.94869C2.49819 3.73173 2.41697 3.52251 2.27008 3.36284C2.12319 3.20318 1.92145 3.10484 1.70519 3.08748C1.59209 3.08268 1.47916 3.10019 1.37283 3.13903C1.26651 3.17787 1.16887 3.23727 1.0855 3.31384C1.00214 3.39041 0.934665 3.48266 0.886945 3.5853C0.839224 3.68795 0.812189 3.79899 0.807383 3.91209C0.802576 4.02518 0.820093 4.13811 0.858931 4.24444C0.89777 4.35076 0.95717 4.4484 1.03374 4.53177C1.11031 4.61514 1.20256 4.68261 1.3052 4.73033C1.40785 4.77805 1.51889 4.80508 1.63199 4.80989C1.74673 4.81538 1.86137 4.7969 1.96857 4.75562C2.07578 4.71434 2.17321 4.65117 2.25464 4.57014C2.33608 4.48911 2.39973 4.392 2.44154 4.285C2.48336 4.178 2.50241 4.06346 2.49749 3.94869Z" fill="#EC6F2D"/>
</svg>
