<svg width="28" height="18" viewBox="0 0 28 18" fill="none" xmlns="http://www.w3.org/2000/svg">
<path d="M16.8576 0C17.8145 0.521173 17.9859 0.957596 17.6375 1.99519C15.9975 6.87373 14.3569 11.7531 12.7158 16.6332C12.4615 17.3904 11.857 17.7872 11.1928 17.6407C10.4073 17.4672 10.0054 16.714 10.2797 15.8934C10.9791 13.8016 11.6888 11.7129 12.3913 9.6219C13.3322 6.82198 14.2796 4.02444 15.2022 1.21818C15.3856 0.663743 15.6663 0.230488 16.2213 0.00316822L16.8576 0Z" fill="#EC6F2D"/>
<path d="M0 8.51622C0.239224 8.2097 0.45293 7.87545 0.725645 7.60378C2.2806 6.03946 3.84991 4.49258 5.41523 2.94173C5.78044 2.57897 6.21264 2.43006 6.719 2.58135C6.93813 2.63908 7.13653 2.75678 7.29161 2.92104C7.44668 3.0853 7.5522 3.28952 7.59615 3.51043C7.71257 4.00309 7.53315 4.40783 7.1799 4.75633C5.92318 5.99933 4.66752 7.24365 3.41293 8.48929C3.25381 8.62304 3.11043 8.77423 2.98551 8.93997C3.11708 9.00651 3.27657 9.04532 3.37624 9.14353C4.65689 10.4008 5.93275 11.6631 7.20382 12.9304C7.58339 13.3066 7.71656 13.7549 7.54512 14.265C7.38563 14.7402 7.03238 15.023 6.534 15.1045C6.33704 15.1394 6.13444 15.1251 5.94443 15.0629C5.75443 15.0007 5.58298 14.8925 5.44553 14.7481C3.75714 13.0785 2.07194 11.4051 0.389935 9.72807C0.230452 9.56966 0.129181 9.34234 0.000797412 9.1467L0 8.51622Z" fill="#EC6F2D"/>
<path d="M24.9592 8.8584C23.5422 7.45646 22.1946 6.11788 20.8406 4.78564C20.5216 4.46882 20.3302 4.11081 20.3869 3.66093C20.4499 3.1651 20.7202 2.80392 21.1954 2.6265C21.4177 2.53357 21.6629 2.50917 21.8992 2.55649C22.1356 2.60381 22.3521 2.72066 22.5207 2.89184C23.0199 3.36707 23.4992 3.85419 23.9864 4.33734C25.1559 5.49902 26.3271 6.66071 27.4998 7.82239C28.1592 8.47742 28.168 9.17601 27.5197 9.82074C25.8829 11.4503 24.2429 13.0764 22.5997 14.699C22.0224 15.2693 21.2505 15.3018 20.7258 14.7909C20.2011 14.28 20.229 13.4951 20.8175 12.9042L20.9857 12.7371C22.1946 11.5379 23.4037 10.3395 24.6132 9.14195C24.7025 9.04928 24.8125 8.97483 24.9592 8.8584Z" fill="#EC6F2D"/>
</svg>
