<svg width="40" height="15" viewBox="0 0 40 15" fill="none" xmlns="http://www.w3.org/2000/svg">
<path d="M0 14.2947V7.33265C2.53145 7.29896 4.2958 6.07379 5.90979 4.26973C8.61921 1.27113 12.0865 -0.174569 16.2627 0.0153318V6.94978C13.5348 6.96816 11.66 8.44143 9.91102 10.3956C7.46548 13.1246 3.72507 14.4693 0 14.2947Z" fill="#FF4100"/>
<path d="M32.7432 0.0184724V6.97743C29.9171 6.92536 28.1405 8.62834 26.3148 10.5396C23.7251 13.2748 20.359 14.3958 16.5081 14.3591V7.31435C19.0641 7.35111 20.8653 6.06774 22.5038 4.24837C25.1887 1.27733 28.6069 -0.149988 32.7432 0.0184724Z" fill="#FF4100"/>
<path d="M33.0654 7.35107H40V14.3008C37.8981 14.3008 35.8515 14.3253 33.8079 14.2672C33.6388 14.2193 33.4847 14.1293 33.3601 14.0055C33.2356 13.8817 33.1447 13.7282 33.0961 13.5596C33.0378 11.5166 33.0654 9.47368 33.0654 7.35107Z" fill="#FF4100"/>
</svg>
