<svg width="22" height="22" viewBox="0 0 22 22" fill="none" xmlns="http://www.w3.org/2000/svg">
<path d="M10.1401 22H11.8592C11.9228 21.9941 11.9864 21.9845 12.0507 21.983C12.8988 21.9704 13.7461 21.9335 14.5912 21.8521C15.2288 21.7939 15.8623 21.6981 16.4885 21.5652C17.1241 21.4349 17.7439 21.2366 18.337 20.9737C19.5094 20.4558 20.4486 19.5224 20.9737 18.3533C21.2364 17.7725 21.4362 17.1652 21.5697 16.5418C21.7412 15.7401 21.8551 14.9271 21.9105 14.1092C21.9638 13.4245 21.9985 12.7376 22 12.0499C22 11.4017 22 10.7535 22 10.1053C21.9981 9.16023 21.9487 8.21582 21.8521 7.27566C21.79 6.63255 21.6878 5.99394 21.546 5.36358C21.3971 4.67361 21.1595 4.00581 20.8391 3.37682C20.439 2.59883 19.8455 1.93683 19.1156 1.45439C18.5821 1.11136 18.0029 0.845264 17.395 0.663979C16.6336 0.436552 15.853 0.279146 15.063 0.193722C14.2955 0.100557 13.5236 0.0458431 12.7509 0.0229206C11.7527 -0.00961304 10.7545 -0.018486 9.75486 0.0110912C9.06056 0.0317936 8.36701 0.0613708 7.67493 0.121262C7.03309 0.174051 6.39455 0.261427 5.76212 0.383009C5.01499 0.520966 4.28848 0.753529 3.60012 1.07508C3.01466 1.34826 2.48474 1.72728 2.03704 2.19305C1.58606 2.67559 1.2252 3.23503 0.971567 3.84486C0.678619 4.55232 0.469187 5.29154 0.347516 6.04752C0.193587 6.97289 0.0992428 7.9072 0.0650669 8.84466C0.0480608 9.23063 0.0347516 9.61733 0.0184849 10.0033C0.0148694 10.0492 0.00869819 10.0949 0 10.1401L0 11.8584C0.00665457 11.908 0.0170061 11.9568 0.0192243 12.0063C0.0561941 12.7213 0.0842912 13.4371 0.130134 14.1506C0.175676 14.8686 0.269546 15.5828 0.411104 16.2882C0.548707 17.0241 0.777722 17.74 1.09283 18.4191C1.55364 19.4151 2.32249 20.2366 3.28588 20.7623C3.91524 21.097 4.58669 21.3457 5.28225 21.5016C6.34772 21.7567 7.43167 21.8713 8.52302 21.929C9.02064 21.9586 9.52417 21.9667 10.0247 21.9845C10.0634 21.9875 10.102 21.9926 10.1401 22ZM1.8337 11.0015C1.84849 9.99146 1.86919 8.98219 1.95053 7.97513C1.99983 7.28601 2.09418 6.60084 2.23298 5.92404C2.33912 5.39372 2.50609 4.87741 2.73059 4.38536C3.04773 3.68774 3.59412 3.1197 4.27889 2.77569C4.67285 2.57903 5.08683 2.42534 5.51368 2.31727C6.06873 2.17689 6.63272 2.07462 7.20172 2.01116C7.8095 1.93722 8.42025 1.89581 9.03173 1.86919C9.39329 1.85293 9.75486 1.8448 10.1164 1.83814C11.4836 1.80423 12.8515 1.841 14.2149 1.94831C14.8393 1.99812 15.4601 2.08627 16.0737 2.21227C16.609 2.31734 17.1301 2.48459 17.6265 2.71063C18.3016 3.01535 18.8565 3.53545 19.2043 4.18942C19.4122 4.58885 19.5742 5.01053 19.6872 5.44639C19.9171 6.3004 20.0258 7.17362 20.0909 8.05277C20.1254 8.51612 20.15 8.98071 20.1648 9.44653C20.2084 11.0074 20.207 12.5683 20.0768 14.1262C20.0286 14.7617 19.941 15.3936 19.8143 16.0183C19.7072 16.5708 19.5334 17.1084 19.2968 17.6191C19.0387 18.1864 18.6262 18.6697 18.1063 19.0136C17.7248 19.2549 17.3121 19.443 16.8797 19.5726C16.1048 19.8173 15.3055 19.9363 14.501 20.0214C13.8275 20.0953 13.1516 20.1286 12.4751 20.1456C11.2477 20.1774 10.0196 20.1789 8.79216 20.1131C8.04149 20.0788 7.29316 20.0047 6.55031 19.8912C5.96591 19.8054 5.39151 19.6615 4.83565 19.4617C4.43356 19.3187 4.05539 19.1158 3.71399 18.8598C3.26306 18.503 2.90891 18.0388 2.68401 17.5096C2.42838 16.9097 2.24831 16.2804 2.14795 15.636C2.00907 14.8171 1.9246 13.9899 1.89507 13.1598C1.86402 12.4403 1.85367 11.7224 1.8337 11.0015Z" fill="#EC6F2D"/>
<path d="M11.927 10.9882C11.9254 10.8077 11.8703 10.6316 11.7686 10.4824C11.667 10.3331 11.5234 10.2174 11.3559 10.1497C11.1885 10.0821 11.0048 10.0656 10.828 10.1024C10.6512 10.1391 10.4893 10.2274 10.3627 10.3562C10.2361 10.485 10.1505 10.6484 10.1168 10.8258C10.0831 11.0032 10.1027 11.1866 10.1731 11.3528C10.2436 11.5191 10.3618 11.6607 10.5128 11.7598C10.6637 11.8589 10.8407 11.911 11.0212 11.9095C11.1413 11.909 11.2602 11.8848 11.3709 11.8381C11.4816 11.7914 11.5819 11.7233 11.6661 11.6377C11.7503 11.552 11.8168 11.4505 11.8615 11.339C11.9063 11.2276 11.9285 11.1083 11.927 10.9882Z" fill="#EC6F2D"/>
<path d="M13.7697 11.0074C13.7716 11.1874 13.8267 11.3629 13.928 11.5117C14.0294 11.6606 14.1725 11.7761 14.3393 11.8438C14.5062 11.9116 14.6893 11.9285 14.8657 11.8924C15.0422 11.8563 15.204 11.7689 15.3308 11.6411C15.4577 11.5133 15.544 11.3509 15.5787 11.1742C15.6135 10.9975 15.5953 10.8145 15.5264 10.6481C15.4575 10.4818 15.3409 10.3395 15.1913 10.2393C15.0418 10.139 14.8659 10.0852 14.6858 10.0846C14.5647 10.0836 14.4445 10.1068 14.3325 10.1529C14.2205 10.199 14.1188 10.2671 14.0334 10.353C13.9481 10.439 13.8808 10.5412 13.8355 10.6536C13.7902 10.7659 13.7678 10.8862 13.7697 11.0074Z" fill="#EC6F2D"/>
<path d="M7.35329 11.9095C7.53462 11.9086 7.71154 11.8536 7.8615 11.7517C8.01145 11.6497 8.12763 11.5054 8.1952 11.3372C8.26277 11.1689 8.27868 10.9843 8.24089 10.807C8.2031 10.6296 8.11333 10.4676 7.98302 10.3415C7.85272 10.2154 7.68781 10.1309 7.50932 10.099C7.33083 10.067 7.14687 10.089 6.98091 10.162C6.81496 10.2351 6.67453 10.3559 6.57755 10.5091C6.48057 10.6624 6.43145 10.841 6.43644 11.0222C6.44263 11.2607 6.54214 11.4873 6.71359 11.6532C6.88503 11.8191 7.11472 11.9112 7.35329 11.9095Z" fill="#EC6F2D"/>
</svg>
