<svg width="24" height="28" viewBox="0 0 24 28" fill="none" xmlns="http://www.w3.org/2000/svg">
<path d="M3.70386 28V27.5045C3.70386 27.3922 3.70386 27.2819 3.70386 27.1717C3.70386 26.9376 3.70386 26.6951 3.70386 26.4558C3.74624 24.6913 3.63101 22.9266 3.35953 21.1827C3.0383 19.1125 2.26775 17.1798 1.48356 15.3994C1.39048 15.1895 1.29775 14.9774 1.20537 14.7632C0.995412 14.2845 0.780206 13.789 0.558701 13.3093C0.110442 12.3393 -0.0648725 11.2496 0.0212101 9.97306C0.126896 8.35907 0.605547 6.79159 1.41953 5.39389C1.79586 4.74316 2.23994 4.13405 2.74436 3.57671C3.29196 2.97023 3.90411 2.42531 4.56994 1.95164C5.86354 1.02647 7.35347 0.412825 8.9234 0.158601C9.57093 0.0551723 10.2255 0.00217378 10.8813 8.34527e-05C12.3681 -0.00581537 13.8395 0.301066 15.2001 0.900801C17.0655 1.72698 18.5594 3.06126 19.7551 4.98132C20.6212 6.36494 21.2647 7.94487 21.7812 9.95311C21.903 10.4241 22.024 10.8951 22.1444 11.3661C22.6578 13.3607 23.1879 15.4278 23.7254 17.4549C23.7862 17.6669 23.7971 17.8901 23.7572 18.107C23.7173 18.3239 23.6277 18.5287 23.4955 18.7052C23.3696 18.8673 23.2079 18.9981 23.0231 19.0874C22.8382 19.1766 22.6352 19.2219 22.43 19.2196H22.3365C22.2032 19.2112 22.0583 19.207 21.882 19.207C21.7539 19.207 21.6248 19.207 21.4967 19.207H21.3266V21.8419C21.3386 22.2107 21.2748 22.5779 21.1392 22.9209C21.0036 23.264 20.799 23.5756 20.5382 23.8364C20.2773 24.0973 19.9657 24.3019 19.6227 24.4375C19.2796 24.5731 18.9124 24.6369 18.5436 24.6249H16.6047L17.2776 27.9968L3.70386 28ZM15.0762 26.1944C14.9712 25.6768 14.8662 25.1446 14.7613 24.626H12.7667V22.8277H18.5143C19.1767 22.8277 19.5273 22.475 19.5273 21.8084C19.5273 21.1701 19.5273 20.5315 19.5273 19.8925C19.5273 19.3099 19.5273 18.7272 19.5273 18.1446C19.5273 18.0795 19.5273 18.0176 19.5346 17.9588C19.5346 17.9325 19.5346 17.9063 19.5346 17.878L19.5567 17.4108H21.8431L20.0144 10.3321C19.5315 8.46346 18.9352 7.01581 18.1395 5.77706C17.1348 4.21183 15.9045 3.13895 14.3823 2.49438C13.2622 2.02832 12.0587 1.79577 10.8456 1.81097C10.7353 1.81097 10.622 1.81097 10.5096 1.81621C8.00694 1.8897 5.86957 2.8597 4.15527 4.69578C2.84934 6.0941 2.07354 7.79895 1.84994 9.7631C1.73761 10.752 1.7985 11.489 2.0473 12.1535C2.21841 12.6122 2.42417 13.0752 2.62258 13.5182L2.89133 14.1239C3.64717 15.8298 4.42822 17.5935 4.83868 19.4852C5.04864 20.452 5.18511 21.1942 5.27959 21.8934C5.46721 23.3201 5.54687 24.7589 5.51789 26.1975L15.0762 26.1944Z" fill="#EC6F2D"/>
<path d="M11.107 18.5813C10.687 18.5813 10.4183 18.2569 10.3291 18.1498C9.81467 17.5336 9.28767 16.909 8.77853 16.3054C7.59647 14.9039 6.37346 13.4541 5.20925 11.9939C4.73886 11.4021 4.42983 10.6985 4.31227 9.95174C4.19471 9.20497 4.27263 8.44048 4.53844 7.73279C4.82581 6.91488 5.3593 6.20597 6.06566 5.70336C6.77201 5.20076 7.61662 4.92909 8.48354 4.92566C9.43779 4.92566 10.3186 5.27314 11.108 5.9576C11.4767 5.62585 11.9039 5.36562 12.3677 5.19021C12.8218 5.0209 13.3025 4.93415 13.7871 4.93406C14.5306 4.93959 15.2587 5.14678 15.8937 5.53354C16.5288 5.92029 17.047 6.47213 17.3931 7.13021C17.8201 7.91925 18.0028 8.81744 17.918 9.71059C17.8306 10.6042 17.4765 11.451 16.9018 12.1408C15.6263 13.6777 14.3235 15.2367 13.0648 16.7431C12.6743 17.2099 12.2834 17.6774 11.8922 18.1456C11.7988 18.2527 11.5237 18.5813 11.107 18.5813ZM8.42055 6.73129C7.96598 6.7312 7.52282 6.87365 7.15346 7.13861C6.86732 7.34999 6.62665 7.6168 6.44581 7.92315C6.26496 8.2295 6.14763 8.56912 6.1008 8.92177C6.05398 9.27442 6.07862 9.63289 6.17326 9.97582C6.26789 10.3188 6.43059 10.6391 6.65166 10.9178C7.55867 12.0159 8.48879 13.1287 9.38845 14.2047L10.5138 15.5527L11.1038 16.2592L12.1977 14.9532C13.2884 13.6515 14.4159 12.3057 15.5119 10.9724C16.2341 10.099 16.3454 9.1521 15.852 8.08342C15.6755 7.68428 15.3874 7.34469 15.0223 7.10554C14.6572 6.86639 14.2308 6.73788 13.7944 6.73549C13.677 6.73535 13.5598 6.74413 13.4438 6.76174C12.8076 6.85832 12.3016 7.18165 11.8974 7.76638C11.6444 8.12961 11.3453 8.20624 11.1395 8.20624C11.0537 8.20567 10.9685 8.19258 10.8865 8.1674C10.6562 8.09147 10.4559 7.94445 10.3144 7.74749C10.104 7.43798 9.82192 7.18393 9.49216 7.00699C9.16241 6.83004 8.79475 6.73546 8.42055 6.73129Z" fill="#EC6F2D"/>
</svg>
