<svg width="384" height="221" viewBox="0 0 384 221" fill="none" xmlns="http://www.w3.org/2000/svg">
<g clip-path="url(#clip0_1_1155)">
<path opacity="0.25" fill-rule="evenodd" clip-rule="evenodd" d="M57.612 139.135L138.343 185.593L322.586 79.5626L241.855 33.1844L57.612 139.135ZM0 141.373L245.657 0L384 79.6265L326.388 112.779L138.343 221L84.5329 190.023L53.8258 172.431L0 141.373Z" fill="#EC6F2D" fill-opacity="0.5"/>
<path fill-rule="evenodd" clip-rule="evenodd" d="M93.1964 94.7394L122.588 77.8193L171.36 105.902L141.968 122.806L93.1964 94.7394Z" fill="#EC6F2D" fill-opacity="0.5"/>
<path fill-rule="evenodd" clip-rule="evenodd" d="M107.234 68.9916L113.54 72.6219L122.588 77.8195L85.8165 98.9775L61.4304 84.9361L98.202 63.7781L107.234 68.9916Z" fill="#EC6F2D" fill-opacity="0.5"/>
<path fill-rule="evenodd" clip-rule="evenodd" d="M82.8484 54.9502L89.1534 58.5805L98.2019 63.7781L61.4304 84.9361L37.0443 70.9107L73.7999 49.7527L82.8484 54.9502Z" fill="#EC6F2D" fill-opacity="0.5"/>
<path fill-rule="evenodd" clip-rule="evenodd" d="M58.0292 40.6688L64.3503 44.2991L73.7999 49.7525L37.0443 70.9105L11.808 56.3894L48.5796 35.2153L58.0292 40.6688Z" fill="#EC6F2D" fill-opacity="0.5"/>
<path fill-rule="evenodd" clip-rule="evenodd" d="M76.9444 37.0546L70.6393 33.4243L61.1737 27.9709L97.9613 6.79688L123.198 21.318L86.4101 42.4921L76.9444 37.0546Z" fill="#EC6F2D" fill-opacity="0.5"/>
<path fill-rule="evenodd" clip-rule="evenodd" d="M101.764 51.3357L95.4425 47.7055L86.41 42.4919L123.198 21.3179L147.584 35.3593L110.796 56.5333L101.764 51.3357Z" fill="#EC6F2D" fill-opacity="0.5"/>
<path fill-rule="evenodd" clip-rule="evenodd" d="M132.246 68.8796L125.941 65.2493L110.796 56.5334L147.584 35.3594L184.179 56.4055L147.375 77.5955L132.246 68.8796Z" fill="#EC6F2D" fill-opacity="0.5"/>
<path fill-rule="evenodd" clip-rule="evenodd" d="M168.825 89.9257L162.52 86.2955L147.375 77.5955L184.179 56.4055L220.758 77.4676L183.97 98.6416L168.825 89.9257Z" fill="#EC6F2D" fill-opacity="0.5"/>
<path fill-rule="evenodd" clip-rule="evenodd" d="M199.292 98.9454L192.987 95.3151L191.366 94.3876L220.758 77.4675L230.304 82.9529L200.912 99.873L199.292 98.9454Z" fill="#EC6F2D" fill-opacity="0.5"/>
<path fill-rule="evenodd" clip-rule="evenodd" d="M227.961 123.958L221.64 120.327L212.608 115.13L249.395 93.9397L273.798 107.981L236.994 129.171L227.961 123.958Z" fill="#EC6F2D" fill-opacity="0.5"/>
<path fill-rule="evenodd" clip-rule="evenodd" d="M252.347 137.999L246.026 134.369L236.994 129.171L273.798 107.981L298.184 122.023L261.38 143.197L252.347 137.999Z" fill="#EC6F2D" fill-opacity="0.5"/>
<path fill-rule="evenodd" clip-rule="evenodd" d="M276.733 152.04L270.428 148.41L261.38 143.196L298.184 122.022L322.57 136.064L285.782 157.238L276.733 152.04Z" fill="#EC6F2D" fill-opacity="0.5"/>
<path fill-rule="evenodd" clip-rule="evenodd" d="M301.12 166.066L294.814 162.436L285.782 157.238L322.57 136.064L346.956 150.089L310.168 171.263L301.12 166.066Z" fill="#EC6F2D" fill-opacity="0.5"/>
<path fill-rule="evenodd" clip-rule="evenodd" d="M325.939 180.347L319.618 176.717L310.168 171.263L346.956 150.089L372.192 164.627L335.404 185.785L325.939 180.347Z" fill="#EC6F2D" fill-opacity="0.5"/>
<path fill-rule="evenodd" clip-rule="evenodd" d="M307.023 183.961L313.329 187.592L322.794 193.045L286.039 214.203L260.802 199.682L297.558 178.524L307.023 183.961Z" fill="#EC6F2D"/>
<path fill-rule="evenodd" clip-rule="evenodd" d="M282.22 169.68L288.525 173.327L297.558 178.524L260.802 199.682L236.416 185.641L273.172 164.483L282.22 169.68Z" fill="#EC6F2D"/>
<path fill-rule="evenodd" clip-rule="evenodd" d="M263.915 159.157L270.236 162.787L273.172 164.483L236.416 185.641L224.223 178.62L260.979 157.462L263.915 159.157Z" fill="#EC6F2D" fill-opacity="0.5"/>
<path fill-rule="evenodd" clip-rule="evenodd" d="M251.722 152.136L258.043 155.767L260.979 157.462L224.223 178.62L212.03 171.615L248.786 150.457L251.722 152.136Z" fill="#EC6F2D" fill-opacity="0.5"/>
<path fill-rule="evenodd" clip-rule="evenodd" d="M207.795 135.312L214.1 138.959L217.052 140.638L195.008 153.336L182.815 146.315L204.859 133.617L207.795 135.312Z" fill="#EC6F2D"/>
<path fill-rule="evenodd" clip-rule="evenodd" d="M233.432 141.613L239.737 145.244L248.786 150.457L219.394 167.361L195.008 153.336L217.052 140.638L224.4 136.416L233.432 141.613Z" fill="#EC6F2D"/>
<path fill-rule="evenodd" clip-rule="evenodd" d="M195.602 128.292L201.907 131.922L204.859 133.617L182.815 146.315L170.622 139.294L192.65 126.612L195.602 128.292Z" fill="#EC6F2D"/>
<path fill-rule="evenodd" clip-rule="evenodd" d="M192.072 117.816L198.393 121.447L200.014 122.374L180.409 133.649L170.863 128.164L190.452 116.889L192.072 117.816Z" fill="#EC6F2D" fill-opacity="0.5"/>
<path d="M11.808 56.3735L85.8164 98.9775" stroke="#004080" stroke-width="0.37" stroke-linecap="round" stroke-linejoin="round"/>
<path d="M372.192 164.611L286.039 214.203" stroke="#004080" stroke-width="0.37" stroke-linecap="round" stroke-linejoin="round"/>
<path d="M11.808 56.3735L97.9613 6.79688" stroke="#004080" stroke-width="0.37" stroke-linecap="round" stroke-linejoin="round"/>
<path d="M37.0443 70.9107L73.7999 49.7527" stroke="#004080" stroke-width="0.37" stroke-linecap="round" stroke-linejoin="round"/>
<path d="M61.4304 84.9361L98.202 63.7781" stroke="#004080" stroke-width="0.37" stroke-linecap="round" stroke-linejoin="round"/>
<path d="M85.8164 98.9774L122.588 77.8193" stroke="#004080" stroke-width="0.37" stroke-linecap="round" stroke-linejoin="round"/>
<path d="M48.5796 35.2314L58.0292 40.6689" stroke="#004080" stroke-width="0.37" stroke-linecap="round" stroke-linejoin="round"/>
<path d="M93.1964 94.7395L141.968 122.806" stroke="#004080" stroke-width="0.37" stroke-linecap="round" stroke-linejoin="round"/>
<path d="M212.014 171.615L286.039 214.203" stroke="#004080" stroke-width="0.37" stroke-linecap="round" stroke-linejoin="round"/>
<path d="M141.969 122.806L171.36 105.886" stroke="#004080" stroke-width="0.37" stroke-linecap="round" stroke-linejoin="round"/>
<path d="M170.622 139.295L200.014 122.375" stroke="#004080" stroke-width="0.37" stroke-linecap="round" stroke-linejoin="round"/>
<path d="M212.014 171.615L219.394 167.361" stroke="#004080" stroke-width="0.37" stroke-linecap="round" stroke-linejoin="round"/>
<path d="M236.416 185.641L273.172 164.483" stroke="#004080" stroke-width="0.37" stroke-linecap="round" stroke-linejoin="round"/>
<path d="M97.9613 6.79688L372.192 164.611" stroke="#004080" stroke-width="0.37" stroke-linecap="round" stroke-linejoin="round"/>
<path d="M86.41 42.4919L123.198 21.3179" stroke="#004080" stroke-width="0.37" stroke-linecap="round" stroke-linejoin="round"/>
<path d="M110.796 56.5334L147.584 35.3594" stroke="#004080" stroke-width="0.37" stroke-linecap="round" stroke-linejoin="round"/>
<path d="M147.375 77.5955L184.179 56.4055" stroke="#004080" stroke-width="0.37" stroke-linecap="round" stroke-linejoin="round"/>
<path d="M183.97 98.6416L220.758 77.4675" stroke="#004080" stroke-width="0.37" stroke-linecap="round" stroke-linejoin="round"/>
<path d="M212.608 115.13L249.395 93.9558" stroke="#004080" stroke-width="0.37" stroke-linecap="round" stroke-linejoin="round"/>
<path d="M192.666 126.612L195.602 128.292" stroke="#004080" stroke-width="0.37" stroke-linecap="round" stroke-linejoin="round"/>
<path d="M212.608 115.13L221.64 120.327" stroke="#004080" stroke-width="0.37" stroke-linecap="round" stroke-linejoin="round"/>
<path d="M236.994 129.155L273.798 107.981" stroke="#004080" stroke-width="0.37" stroke-linecap="round" stroke-linejoin="round"/>
<path d="M261.38 143.196L298.184 122.022" stroke="#004080" stroke-width="0.37" stroke-linecap="round" stroke-linejoin="round"/>
<path d="M285.766 157.238L322.57 136.064" stroke="#004080" stroke-width="0.37" stroke-linecap="round" stroke-linejoin="round"/>
<path d="M310.168 171.263L346.956 150.089" stroke="#004080" stroke-width="0.37" stroke-linecap="round" stroke-linejoin="round"/>
<path d="M170.622 139.294L219.394 167.361" stroke="#004080" stroke-width="0.37" stroke-linecap="round" stroke-linejoin="round"/>
<path d="M200.014 122.374L198.393 121.447" stroke="#004080" stroke-width="0.37" stroke-linecap="round" stroke-linejoin="round"/>
<path d="M180.409 133.649L170.863 128.164" stroke="#004080" stroke-width="0.37" stroke-linecap="round" stroke-linejoin="round"/>
<path d="M170.863 128.164L190.452 116.889" stroke="#004080" stroke-width="0.37" stroke-linecap="round" stroke-linejoin="round"/>
<path d="M122.588 77.8193L130.578 82.4092" stroke="#004080" stroke-width="0.37" stroke-linecap="round" stroke-linejoin="round"/>
<path d="M136.883 86.0396L171.36 105.886" stroke="#004080" stroke-width="0.37" stroke-linecap="round" stroke-linejoin="round"/>
<path d="M98.2019 63.7781L107.234 68.9916" stroke="#004080" stroke-width="0.37" stroke-linecap="round" stroke-linejoin="round"/>
<path d="M113.54 72.6218L122.588 77.8194" stroke="#004080" stroke-width="0.37" stroke-linecap="round" stroke-linejoin="round"/>
<path d="M73.7998 49.7527L82.8483 54.9502" stroke="#004080" stroke-width="0.37" stroke-linecap="round" stroke-linejoin="round"/>
<path d="M89.1534 58.5803L98.2019 63.7779" stroke="#004080" stroke-width="0.37" stroke-linecap="round" stroke-linejoin="round"/>
<path d="M64.3503 44.2991L73.7999 49.7525" stroke="#004080" stroke-width="0.37" stroke-linecap="round" stroke-linejoin="round"/>
<path d="M110.796 56.5334L125.925 65.2493" stroke="#004080" stroke-width="0.37" stroke-linecap="round" stroke-linejoin="round"/>
<path d="M61.1737 27.9709L70.6393 33.4244" stroke="#004080" stroke-width="0.37" stroke-linecap="round" stroke-linejoin="round"/>
<path d="M86.41 42.4919L95.4425 47.7055" stroke="#004080" stroke-width="0.37" stroke-linecap="round" stroke-linejoin="round"/>
<path d="M101.764 51.3359L110.796 56.5335" stroke="#004080" stroke-width="0.37" stroke-linecap="round" stroke-linejoin="round"/>
<path d="M76.9443 37.0547L86.41 42.4921" stroke="#004080" stroke-width="0.37" stroke-linecap="round" stroke-linejoin="round"/>
<path d="M132.246 68.8796L147.375 77.5955" stroke="#004080" stroke-width="0.37" stroke-linecap="round" stroke-linejoin="round"/>
<path d="M147.375 77.5955L162.52 86.2954" stroke="#004080" stroke-width="0.37" stroke-linecap="round" stroke-linejoin="round"/>
<path d="M168.825 89.9258L183.97 98.6417" stroke="#004080" stroke-width="0.37" stroke-linecap="round" stroke-linejoin="round"/>
<path d="M192.072 117.816L190.452 116.889" stroke="#004080" stroke-width="0.37" stroke-linecap="round" stroke-linejoin="round"/>
<path d="M224.4 136.416L233.432 141.613" stroke="#004080" stroke-width="0.37" stroke-linecap="round" stroke-linejoin="round"/>
<path d="M204.859 133.617L207.795 135.312" stroke="#004080" stroke-width="0.37" stroke-linecap="round" stroke-linejoin="round"/>
<path d="M214.1 138.943L217.052 140.638" stroke="#004080" stroke-width="0.37" stroke-linecap="round" stroke-linejoin="round"/>
<ellipse cx="182.815" cy="146.315" rx="0.296804" ry="0.295861" fill="#004080"/>
<ellipse cx="183.73" cy="145.771" rx="0.296804" ry="0.295861" fill="#004080"/>
<ellipse cx="184.997" cy="145.052" rx="0.296804" ry="0.295861" fill="#004080"/>
<ellipse cx="186.264" cy="144.316" rx="0.296804" ry="0.295861" fill="#004080"/>
<ellipse cx="187.516" cy="143.596" rx="0.296804" ry="0.295861" fill="#004080"/>
<ellipse cx="188.783" cy="142.877" rx="0.296804" ry="0.295861" fill="#004080"/>
<ellipse cx="190.051" cy="142.141" rx="0.296804" ry="0.295861" fill="#004080"/>
<ellipse cx="191.302" cy="141.421" rx="0.296804" ry="0.295861" fill="#004080"/>
<ellipse cx="192.57" cy="140.686" rx="0.296804" ry="0.295861" fill="#004080"/>
<ellipse cx="193.837" cy="139.966" rx="0.296804" ry="0.295861" fill="#004080"/>
<ellipse cx="195.088" cy="139.247" rx="0.296804" ry="0.295861" fill="#004080"/>
<ellipse cx="196.356" cy="138.511" rx="0.296804" ry="0.295861" fill="#004080"/>
<ellipse cx="197.623" cy="137.791" rx="0.296804" ry="0.295861" fill="#004080"/>
<ellipse cx="198.875" cy="137.055" rx="0.296804" ry="0.295861" fill="#004080"/>
<ellipse cx="200.142" cy="136.336" rx="0.296804" ry="0.295861" fill="#004080"/>
<ellipse cx="201.409" cy="135.616" rx="0.296804" ry="0.295861" fill="#004080"/>
<ellipse cx="202.661" cy="134.881" rx="0.296804" ry="0.295861" fill="#004080"/>
<ellipse cx="203.928" cy="134.161" rx="0.296804" ry="0.295861" fill="#004080"/>
<ellipse cx="204.859" cy="133.617" rx="0.296804" ry="0.295861" fill="#004080"/>
<path d="M201.907 131.922L204.859 133.617" stroke="#004080" stroke-width="0.37" stroke-linecap="round" stroke-linejoin="round"/>
<path d="M248.786 150.457L251.722 152.136" stroke="#004080" stroke-width="0.37" stroke-linecap="round" stroke-linejoin="round"/>
<path d="M239.737 145.244L248.786 150.457" stroke="#004080" stroke-width="0.37" stroke-linecap="round" stroke-linejoin="round"/>
<path d="M273.172 164.483L282.22 169.68" stroke="#004080" stroke-width="0.37" stroke-linecap="round" stroke-linejoin="round"/>
<path d="M258.043 155.767L260.979 157.462" stroke="#004080" stroke-width="0.37" stroke-linecap="round" stroke-linejoin="round"/>
<path d="M260.979 157.462L263.915 159.157" stroke="#004080" stroke-width="0.37" stroke-linecap="round" stroke-linejoin="round"/>
<path d="M270.236 162.787L273.172 164.483" stroke="#004080" stroke-width="0.37" stroke-linecap="round" stroke-linejoin="round"/>
<path d="M297.558 178.524L307.023 183.961" stroke="#004080" stroke-width="0.37" stroke-linecap="round" stroke-linejoin="round"/>
<path d="M288.525 173.326L297.558 178.524" stroke="#004080" stroke-width="0.37" stroke-linecap="round" stroke-linejoin="round"/>
<path d="M313.329 187.592L322.794 193.045" stroke="#004080" stroke-width="0.37" stroke-linecap="round" stroke-linejoin="round"/>
<path d="M261.38 143.197L270.428 148.41" stroke="#004080" stroke-width="0.37" stroke-linecap="round" stroke-linejoin="round"/>
<path d="M236.994 129.155L246.042 134.369" stroke="#004080" stroke-width="0.37" stroke-linecap="round" stroke-linejoin="round"/>
<path d="M252.347 137.999L261.38 143.197" stroke="#004080" stroke-width="0.37" stroke-linecap="round" stroke-linejoin="round"/>
<path d="M285.766 157.238L294.814 162.436" stroke="#004080" stroke-width="0.37" stroke-linecap="round" stroke-linejoin="round"/>
<path d="M310.168 171.263L319.618 176.717" stroke="#004080" stroke-width="0.37" stroke-linecap="round" stroke-linejoin="round"/>
<path d="M301.12 166.066L310.168 171.263" stroke="#004080" stroke-width="0.37" stroke-linecap="round" stroke-linejoin="round"/>
<path d="M325.939 180.347L335.388 185.801" stroke="#004080" stroke-width="0.37" stroke-linecap="round" stroke-linejoin="round"/>
<path d="M276.734 152.041L285.766 157.238" stroke="#004080" stroke-width="0.37" stroke-linecap="round" stroke-linejoin="round"/>
<path d="M227.961 123.958L236.994 129.155" stroke="#004080" stroke-width="0.37" stroke-linecap="round" stroke-linejoin="round"/>
<path d="M220.806 88.4385L239.898 99.4253" stroke="#004080" stroke-width="0.37" stroke-linecap="round" stroke-linejoin="round"/>
<path d="M200.912 99.8729L230.304 82.9529" stroke="#004080" stroke-width="0.37" stroke-linecap="round" stroke-linejoin="round"/>
<path d="M218.993 89.4619L227.64 94.4516" stroke="#004080" stroke-width="0.37" stroke-linecap="round" stroke-linejoin="round"/>
<path d="M217.18 90.5173L225.828 95.491" stroke="#004080" stroke-width="0.37" stroke-linecap="round" stroke-linejoin="round"/>
<path d="M215.383 91.5569L224.015 96.5305" stroke="#004080" stroke-width="0.37" stroke-linecap="round" stroke-linejoin="round"/>
<path d="M213.57 92.5964L222.218 97.5701" stroke="#004080" stroke-width="0.37" stroke-linecap="round" stroke-linejoin="round"/>
<path d="M211.758 93.636L220.405 98.6096" stroke="#004080" stroke-width="0.37" stroke-linecap="round" stroke-linejoin="round"/>
<path d="M209.961 94.6755L218.592 99.6492" stroke="#004080" stroke-width="0.37" stroke-linecap="round" stroke-linejoin="round"/>
<path d="M208.148 95.7148L216.795 100.689" stroke="#004080" stroke-width="0.37" stroke-linecap="round" stroke-linejoin="round"/>
<path d="M206.335 96.7544L214.982 101.728" stroke="#004080" stroke-width="0.37" stroke-linecap="round" stroke-linejoin="round"/>
<path d="M204.538 97.7939L213.169 102.768" stroke="#004080" stroke-width="0.37" stroke-linecap="round" stroke-linejoin="round"/>
<path d="M202.725 98.8335L211.373 103.807" stroke="#004080" stroke-width="0.37" stroke-linecap="round" stroke-linejoin="round"/>
<path d="M200.912 99.873L209.56 104.847" stroke="#004080" stroke-width="0.37" stroke-linecap="round" stroke-linejoin="round"/>
<path d="M209.56 104.847L229.437 93.4121" stroke="#004080" stroke-width="0.37" stroke-linecap="round" stroke-linejoin="round"/>
<path d="M200.912 99.8731L199.292 98.9456" stroke="#004080" stroke-width="0.37" stroke-linecap="round" stroke-linejoin="round"/>
<path d="M192.987 95.3151L191.366 94.3716" stroke="#004080" stroke-width="0.37" stroke-linecap="round" stroke-linejoin="round"/>
<path d="M144.15 138.047L134.604 132.546" stroke="#004080" stroke-width="0.37" stroke-linecap="round" stroke-linejoin="round"/>
<path d="M144.15 138.047V132.546" stroke="#004080" stroke-width="0.37" stroke-linecap="round" stroke-linejoin="round"/>
<path d="M144.15 132.546H134.604" stroke="#004080" stroke-width="0.37" stroke-linecap="round" stroke-linejoin="round"/>
<path d="M211.372 105.886L231.25 94.4517" stroke="#004080" stroke-width="0.37" stroke-linecap="round" stroke-linejoin="round"/>
<path d="M211.372 105.886L220.004 110.86" stroke="#004080" stroke-width="0.37" stroke-linecap="round" stroke-linejoin="round"/>
<path d="M213.169 104.847L221.817 109.82" stroke="#004080" stroke-width="0.37" stroke-linecap="round" stroke-linejoin="round"/>
<path d="M216.795 102.768L225.427 107.741" stroke="#004080" stroke-width="0.37" stroke-linecap="round" stroke-linejoin="round"/>
<path d="M214.982 103.807L223.63 108.781" stroke="#004080" stroke-width="0.37" stroke-linecap="round" stroke-linejoin="round"/>
<path d="M218.592 101.728L227.239 106.702" stroke="#004080" stroke-width="0.37" stroke-linecap="round" stroke-linejoin="round"/>
<path d="M220.405 100.689L229.052 105.662" stroke="#004080" stroke-width="0.37" stroke-linecap="round" stroke-linejoin="round"/>
<path d="M222.218 99.6492L230.849 104.623" stroke="#004080" stroke-width="0.37" stroke-linecap="round" stroke-linejoin="round"/>
<path d="M224.015 98.6096L232.662 103.583" stroke="#004080" stroke-width="0.37" stroke-linecap="round" stroke-linejoin="round"/>
<path d="M225.828 97.5701L234.475 102.544" stroke="#004080" stroke-width="0.37" stroke-linecap="round" stroke-linejoin="round"/>
<path d="M227.641 96.5305L236.272 101.504" stroke="#004080" stroke-width="0.37" stroke-linecap="round" stroke-linejoin="round"/>
<path d="M229.437 95.491L238.085 100.465" stroke="#004080" stroke-width="0.37" stroke-linecap="round" stroke-linejoin="round"/>
<path d="M236.416 166.945L238.229 163.075" stroke="#004080" stroke-width="0.37" stroke-linecap="round" stroke-linejoin="round"/>
<path d="M240.026 169.024L246.764 167.985" stroke="#004080" stroke-width="0.37" stroke-linecap="round" stroke-linejoin="round"/>
<path d="M240.026 169.024L241.839 165.154" stroke="#004080" stroke-width="0.37" stroke-linecap="round" stroke-linejoin="round"/>
<path d="M236.416 166.946L243.155 165.906" stroke="#004080" stroke-width="0.37" stroke-linecap="round" stroke-linejoin="round"/>
<path d="M217.052 140.638L224.4 136.416" stroke="#004080" stroke-width="0.37" stroke-linecap="round" stroke-linejoin="round"/>
<path d="M219.394 167.361L248.786 150.457" stroke="#004080" stroke-width="0.37" stroke-linecap="round" stroke-linejoin="round"/>
<ellipse cx="195.008" cy="153.336" rx="0.296804" ry="0.295861" fill="#004080"/>
<ellipse cx="195.586" cy="153" rx="0.296804" ry="0.295861" fill="#004080"/>
<ellipse cx="196.837" cy="152.264" rx="0.296804" ry="0.295861" fill="#004080"/>
<ellipse cx="198.105" cy="151.545" rx="0.296804" ry="0.295861" fill="#004080"/>
<ellipse cx="198.682" cy="151.209" rx="0.296804" ry="0.295861" fill="#004080"/>
<ellipse cx="213.378" cy="142.765" rx="0.296804" ry="0.295861" fill="#004080"/>
<ellipse cx="213.955" cy="142.429" rx="0.296804" ry="0.295861" fill="#004080"/>
<ellipse cx="215.207" cy="141.693" rx="0.296804" ry="0.295861" fill="#004080"/>
<ellipse cx="216.474" cy="140.974" rx="0.296804" ry="0.295861" fill="#004080"/>
<ellipse cx="217.052" cy="140.638" rx="0.296804" ry="0.295861" fill="#004080"/>
<path d="M244.63 169.216C245.281 168.84 246.02 168.642 246.772 168.642C247.525 168.642 248.263 168.84 248.914 169.216" stroke="#004080" stroke-width="0.37" stroke-linecap="round" stroke-linejoin="round"/>
<path d="M244.631 171.679C244.414 171.554 244.234 171.374 244.109 171.158C243.984 170.942 243.919 170.697 243.919 170.448C243.919 170.198 243.984 169.953 244.109 169.737C244.234 169.521 244.414 169.341 244.631 169.216" stroke="#004080" stroke-width="0.37" stroke-linecap="round" stroke-linejoin="round"/>
<path d="M246.668 172.255C245.953 172.226 245.254 172.029 244.63 171.679" stroke="#004080" stroke-width="0.37" stroke-linecap="round" stroke-linejoin="round"/>
<path d="M248.914 169.216C249.129 169.342 249.308 169.522 249.432 169.738C249.556 169.954 249.621 170.199 249.62 170.448V170.544" stroke="#004080" stroke-width="0.37" stroke-linecap="round" stroke-linejoin="round"/>
<path fill-rule="evenodd" clip-rule="evenodd" d="M265.407 184.921L266.113 184.521L266.193 184.569L265.84 184.761L266.434 184.713L266.53 184.761L265.952 184.809L265.856 185.193L265.744 185.129L265.84 184.761L265.487 184.969L265.407 184.921Z" fill="white"/>
<path fill-rule="evenodd" clip-rule="evenodd" d="M266.321 185.321H266.417H266.546H266.674H266.802V185.225H266.69H266.578H266.449H266.305V185.337M266.193 185.337H266.369H266.546H266.706H266.851V185.481H266.77H266.594H266.417H266.321H266.177V185.385" fill="white"/>
<path fill-rule="evenodd" clip-rule="evenodd" d="M266.674 185.64L266.77 185.576L266.819 185.656L266.883 185.704L266.995 185.736L267.107 185.704L267.139 185.688L267.156 185.656V185.624L267.139 185.576V185.544L267.123 185.464V185.417L267.139 185.369L267.188 185.337L267.38 185.289L267.476 185.305L267.557 185.337L267.685 185.433L267.589 185.48L267.541 185.417L267.492 185.385L267.396 185.353L267.284 185.385L267.268 185.401L267.252 185.433V185.464L267.268 185.512L267.284 185.56L267.3 185.624L267.284 185.672L267.268 185.704L267.22 185.752L267.011 185.8L266.803 185.752L266.738 185.704L266.674 185.64Z" fill="white"/>
<path fill-rule="evenodd" clip-rule="evenodd" d="M267.428 186.008H267.524H267.653H267.781H267.926V185.912H267.797H267.669M267.557 185.912H267.637H267.797H267.974H268.15H268.295V186.056H268.134H267.958H267.781H267.653V185.96" fill="white"/>
<path fill-rule="evenodd" clip-rule="evenodd" d="M268.054 186.456L268.535 185.912L268.615 185.96L268.23 186.408L268.984 186.168L269.065 186.216L268.134 186.488L268.054 186.456Z" fill="white"/>
<path fill-rule="evenodd" clip-rule="evenodd" d="M268.728 186.744H268.824H268.936H269.081H269.209V186.6H269.113H268.872H268.728V186.696M268.599 186.696H268.776H268.952H269.113H269.257V186.792H269.081H268.904H268.744H268.599" fill="white"/>
<path fill-rule="evenodd" clip-rule="evenodd" d="M269.979 187.112H270.059H270.204L269.947 187.256M270.156 187L270.348 187.112H270.204H270.027L269.899 187.416H269.787L269.915 187.144L269.626 187.304H269.53L270.236 186.904" fill="white"/>
<path fill-rule="evenodd" clip-rule="evenodd" d="M270.059 187.608L270.765 187.208L271.102 187.4L271.038 187.432L270.781 187.288L270.557 187.432L270.765 187.544L270.685 187.592L270.476 187.464L270.22 187.608L270.493 187.768L270.428 187.815L270.059 187.608Z" fill="white"/>
<path fill-rule="evenodd" clip-rule="evenodd" d="M270.541 187.864L270.637 187.8L270.685 187.88L270.749 187.944L270.862 187.96L270.974 187.944L271.006 187.912L271.022 187.88V187.848V187.8L271.006 187.768L270.99 187.704V187.64L271.006 187.608L271.054 187.56L271.247 187.512L271.343 187.528L271.423 187.56L271.551 187.672L271.455 187.72L271.407 187.64L271.359 187.608L271.263 187.592L271.15 187.608L271.134 187.624L271.118 187.656V187.688L271.134 187.736L271.15 187.784L271.166 187.848V187.896L271.134 187.944L271.086 187.976L270.878 188.023L270.669 187.976L270.605 187.928L270.541 187.864Z" fill="white"/>
<path fill-rule="evenodd" clip-rule="evenodd" d="M271.054 188.183L271.76 187.768L272.097 187.975L272.033 188.007L271.776 187.864L271.551 187.991L271.76 188.119L271.68 188.167L271.471 188.039L271.215 188.183L271.487 188.343L271.423 188.391L271.054 188.183Z" fill="white"/>
<path fill-rule="evenodd" clip-rule="evenodd" d="M272.129 188.487L272.337 188.247L271.92 188.375L272.129 188.487ZM272.434 188.151H272.514L272.049 188.679H271.952L272.081 188.535L271.824 188.391H271.567H271.487L272.434 188.119" fill="white"/>
<path fill-rule="evenodd" clip-rule="evenodd" d="M272.739 188.711H272.819H272.899H273.06L272.803 188.855M273.027 188.599L273.22 188.695V188.711H273.076H272.739L272.61 189.015H272.498L272.626 188.743H272.546L272.257 188.903H272.161L272.867 188.503" fill="white"/>
<path fill-rule="evenodd" clip-rule="evenodd" d="M273.252 189.399L273.124 189.367L272.995 189.319L272.931 189.271L272.899 189.223L272.883 189.127L272.899 189.079L272.931 189.031L272.995 188.983L273.076 188.935L273.252 188.855L273.429 188.823L273.589 188.839L273.749 188.887L273.83 188.951L273.91 189.015L273.814 189.079L273.733 188.983L273.669 188.935L273.557 188.903L273.429 188.887L273.3 188.919L273.156 188.983L273.108 189.031L273.06 189.063L273.027 189.111L273.011 189.143V189.207L273.044 189.239L273.092 189.287L273.188 189.319L273.332 189.351L273.252 189.399Z" fill="white"/>
<path fill-rule="evenodd" clip-rule="evenodd" d="M273.38 189.511L274.086 189.111L274.167 189.159L273.878 189.335L274.167 189.495L274.455 189.335L274.552 189.383L273.846 189.783L273.749 189.735L274.086 189.543L273.798 189.383L273.477 189.559L273.38 189.511Z" fill="white"/>
<path fill-rule="evenodd" clip-rule="evenodd" d="M274.937 190.102L275.129 189.863L274.728 189.975L274.937 190.102ZM275.225 189.767L274.76 190.31H274.68L274.792 190.15L274.535 190.006H274.279L275.225 189.735" fill="white"/>
<path fill-rule="evenodd" clip-rule="evenodd" d="M274.985 190.438L275.675 190.022L275.771 190.07L275.53 190.566L276.076 190.262L276.14 190.294L275.45 190.71L275.354 190.646L275.594 190.166L275.049 190.47L274.985 190.438Z" fill="white"/>
<path fill-rule="evenodd" clip-rule="evenodd" d="M275.947 190.886H276.06H276.188H276.316H276.445V190.774L275.883 191.094H275.995M276.429 190.614L276.621 190.742V190.886L276.268 190.998H275.947H275.787L275.578 190.886L276.284 190.47" fill="white"/>
<path fill-rule="evenodd" clip-rule="evenodd" d="M276.621 191.382L277.327 190.982L277.664 191.174L277.6 191.222L277.343 191.062L277.118 191.206L277.327 191.318L277.247 191.366L277.038 191.238L276.782 191.382L277.054 191.542L276.99 191.59L276.621 191.382Z" fill="white"/>
<path fill-rule="evenodd" clip-rule="evenodd" d="M277.391 191.734H277.52H277.632H277.76H277.905V191.622H277.824L277.263 191.941H277.375M277.808 191.478L278.017 191.59V191.702L277.68 191.814H277.552H277.391L277.183 191.702L277.889 191.302" fill="white"/>
<path fill-rule="evenodd" clip-rule="evenodd" d="M278.498 191.654L278.578 191.702L278.145 191.958L278.049 192.006L278.033 192.038L278.017 192.07V192.102L278.049 192.134L278.081 192.15L278.226 192.182L278.306 192.166L278.402 192.118L278.851 191.862L278.931 191.894L278.482 192.166L278.402 192.198L278.338 192.23L278.193 192.246L278.001 192.198L277.953 192.166L277.921 192.134L277.905 192.086V192.054V192.022L277.937 191.99L277.985 191.942L278.049 191.91L278.498 191.654Z" fill="white"/>
<path fill-rule="evenodd" clip-rule="evenodd" d="M278.915 192.661L278.787 192.629L278.659 192.581L278.611 192.533L278.562 192.485L278.546 192.405L278.562 192.341L278.595 192.293L278.659 192.245L278.739 192.197L278.915 192.117L279.092 192.085H279.252L279.413 192.165L279.573 192.277L279.477 192.341L279.397 192.261L279.333 192.197L279.22 192.165L279.108 192.149L278.964 192.181L278.835 192.245L278.771 192.293L278.723 192.325L278.691 192.373L278.675 192.405L278.691 192.469L278.707 192.517L278.755 192.533L278.867 192.581L278.996 192.613L278.915 192.661Z" fill="white"/>
<path fill-rule="evenodd" clip-rule="evenodd" d="M279.621 192.805L279.83 192.565L279.413 192.677L279.621 192.805ZM279.926 192.469H280.006L279.541 193.013H279.445L279.573 192.853L279.316 192.709H279.06H278.979L279.926 192.437" fill="white"/>
<path fill-rule="evenodd" clip-rule="evenodd" d="M279.814 193.221L280.44 192.853L280.231 192.741L280.311 192.693L280.825 192.997L280.744 193.029L280.536 192.917L279.91 193.269L279.814 193.221Z" fill="white"/>
<path fill-rule="evenodd" clip-rule="evenodd" d="M280.247 193.461L280.953 193.061L281.033 193.109L280.327 193.525L280.247 193.461Z" fill="white"/>
<path fill-rule="evenodd" clip-rule="evenodd" d="M280.76 193.685H280.856H280.985H281.113H281.242V193.509H281.129H281.017H280.889H280.744V193.621M280.632 193.621H280.712H280.873H281.049H281.209H281.354V193.765H281.274H281.097H280.921H280.76H280.616V193.669" fill="white"/>
<path fill-rule="evenodd" clip-rule="evenodd" d="M281.226 194.037L281.932 193.621L282.012 193.685L281.787 194.165L282.333 193.861L282.397 193.893L281.691 194.309L281.611 194.261L281.851 193.765L281.306 194.069L281.226 194.037Z" fill="white"/>
<path fill-rule="evenodd" clip-rule="evenodd" d="M282.204 194.596L282.91 194.18L282.99 194.244L282.75 194.724L283.295 194.42L283.375 194.452L282.669 194.868L282.589 194.82L282.814 194.324L282.284 194.644L282.204 194.596Z" fill="white"/>
<path fill-rule="evenodd" clip-rule="evenodd" d="M282.862 194.98L283.568 194.58L283.921 194.772L283.841 194.804L283.584 194.66L283.359 194.804L283.568 194.916L283.504 194.964L283.279 194.836L283.023 194.98L283.295 195.14L283.231 195.188L282.862 194.98Z" fill="white"/>
<path fill-rule="evenodd" clip-rule="evenodd" d="M283.52 195.348L284.146 194.98L283.921 194.852L284.001 194.82L284.515 195.124L284.45 195.156L284.226 195.028L283.6 195.396L283.52 195.348Z" fill="white"/>
<path fill-rule="evenodd" clip-rule="evenodd" d="M284.017 195.636L284.563 195.14L284.659 195.188L284.226 195.588L284.899 195.332L284.98 195.38L284.53 195.764L285.22 195.524L285.285 195.556L284.418 195.86L284.322 195.812L284.771 195.444L284.113 195.684L284.017 195.636Z" fill="white"/>
<path fill-rule="evenodd" clip-rule="evenodd" d="M284.948 196.084H285.044H285.172H285.301H285.445V195.972H285.349H285.22H285.092H284.948V196.084ZM284.835 196.084H284.996H285.172H285.573H285.702V196.228H285.621H285.461H285.285H285.108H284.964V196.132" fill="white"/>
<path fill-rule="evenodd" clip-rule="evenodd" d="M285.894 196.292H285.975H286.055H286.199L285.943 196.436M286.151 196.18L286.344 196.276V196.404H286.199H286.023L285.894 196.707H285.798L285.91 196.436H285.83L285.541 196.611H285.445L286.151 196.212" fill="white"/>
<path fill-rule="evenodd" clip-rule="evenodd" d="M285.974 196.771L286.68 196.355L286.761 196.403L286.424 196.611L287.017 196.547L287.098 196.595L286.52 196.659L286.44 197.027L286.327 196.963L286.424 196.611L286.055 196.819L285.974 196.771Z" fill="white"/>
<path fill-rule="evenodd" clip-rule="evenodd" d="M276.044 189.079L274.856 188.407L275.739 186.504L275.755 186.456L275.787 186.424L275.899 186.28H275.883L273.525 187.64L272.578 187.096L277.391 184.313L278.338 184.857L276.06 186.168L276.076 186.184L276.236 186.136L276.461 186.088L279.621 185.593L280.744 186.248L276.99 186.728L276.044 189.079Z" fill="white"/>
<path fill-rule="evenodd" clip-rule="evenodd" d="M280.76 188.711L281.097 188.839H281.45H281.819L282.14 188.711L282.284 188.615L282.381 188.519V188.423V188.327V188.231L282.284 188.135H282.14L281.723 187.88L280.375 188.647L280.776 188.887M276.781 189.655L281.595 186.872L283.071 187.736L283.407 187.944L283.552 188.056L283.664 188.167L283.744 188.263V188.375V188.471V188.567V188.775V188.871V188.983V189.079L283.632 189.175H283.504L283.343 189.271L282.814 189.511L282.252 189.623H281.659L281.081 189.511V189.687V189.879V190.103L280.985 190.31L280.359 191.574L279.268 190.966L279.862 189.879L279.974 189.639V189.543V189.463L279.717 189.319L277.872 190.374L276.942 189.847" fill="white"/>
<path fill-rule="evenodd" clip-rule="evenodd" d="M283.423 193.333L280.921 191.894L285.734 189.127L288.14 190.502L287.258 191.014L285.798 190.166L284.723 190.79L286.087 191.574L285.204 192.086L283.841 191.302L282.75 191.926L284.306 192.821L283.423 193.333Z" fill="white"/>
<path fill-rule="evenodd" clip-rule="evenodd" d="M288.14 196.052L287.194 195.508L288.509 192.773L288.606 192.565L288.686 192.421L288.381 192.613L287.932 192.885L285.285 194.404L284.386 193.893L289.215 191.126L290.226 191.702L288.942 194.34L288.766 194.692L288.862 194.628L289.007 194.532L289.408 194.292L292.071 192.757L292.953 193.285L288.14 196.052Z" fill="white"/>
<path fill-rule="evenodd" clip-rule="evenodd" d="M269.61 182.634L269.819 182.282L272.594 182.586L272.386 182.938L269.61 182.634Z" fill="white"/>
<path fill-rule="evenodd" clip-rule="evenodd" d="M272.819 182.986H272.915H273.044H273.188H273.493H273.83L274.118 182.874L274.231 182.778L274.327 182.698V182.602V182.506V182.33V182.25H274.215H274.102H273.958H273.637H273.316L273.011 182.362H272.899L272.803 182.458V182.554V182.65V182.826M272.161 182.666V182.506L272.257 182.346L272.402 182.202L272.61 182.058L272.851 181.946L273.124 181.85H273.685H273.958H274.231H274.471L274.68 181.946L274.856 182.074L274.969 182.218V182.538V182.698L274.872 182.858L274.728 183.002L274.52 183.146L274.279 183.258L274.006 183.354H273.461H273.172H272.915H272.658L272.45 183.242L272.273 183.114L272.161 182.986V182.666Z" fill="white"/>
<path fill-rule="evenodd" clip-rule="evenodd" d="M273.493 185.577L268.84 183.002L269.578 182.57L274.038 185.257L273.493 185.577Z" fill="white"/>
<path fill-rule="evenodd" clip-rule="evenodd" d="M272.915 186.28L268.439 183.594L268.984 183.274L273.653 185.848L272.915 186.28Z" fill="white"/>
<path fill-rule="evenodd" clip-rule="evenodd" d="M271.744 186.648L266.995 184.121L267.91 183.594L272.482 186.232L271.744 186.648Z" fill="white"/>
<path fill-rule="evenodd" clip-rule="evenodd" d="M274.215 185.161L270.91 183.146L271.471 182.826L274.937 184.745L274.215 185.161Z" fill="white"/>
<path fill-rule="evenodd" clip-rule="evenodd" d="M192.358 142.799L193.063 142.4L193.144 142.448L192.791 142.64L193.384 142.592L193.481 142.64L192.903 142.688L192.807 143.071L192.694 143.007L192.791 142.64L192.438 142.847L192.358 142.799Z" fill="white"/>
<path fill-rule="evenodd" clip-rule="evenodd" d="M193.272 143.199H193.368H193.497H193.625H193.753V143.104H193.641H193.529H193.4H193.256V143.215M193.144 143.215H193.32H193.497H193.657H193.801V143.359H193.721H193.545H193.368H193.272H193.128V143.263" fill="white"/>
<path fill-rule="evenodd" clip-rule="evenodd" d="M193.625 143.519L193.721 143.455L193.769 143.535L193.834 143.583L193.946 143.615L194.058 143.583L194.09 143.567L194.106 143.535V143.503L194.09 143.455V143.423L194.074 143.343V143.295L194.09 143.247L194.138 143.215L194.331 143.167L194.427 143.183L194.507 143.215L194.636 143.311L194.539 143.359L194.491 143.295L194.443 143.263L194.347 143.231L194.235 143.263L194.219 143.279L194.203 143.311V143.343L194.219 143.391L194.235 143.439L194.251 143.503L194.235 143.551L194.219 143.583L194.17 143.631L193.962 143.679L193.753 143.631L193.689 143.583L193.625 143.519Z" fill="white"/>
<path fill-rule="evenodd" clip-rule="evenodd" d="M194.379 143.887H194.475H194.604H194.732H194.876V143.791H194.748H194.62M194.507 143.791H194.588H194.748H194.924H195.101H195.245V143.935H195.085H194.908H194.732H194.604V143.839" fill="white"/>
<path fill-rule="evenodd" clip-rule="evenodd" d="M195.005 144.335L195.486 143.791L195.566 143.839L195.181 144.287L195.935 144.047L196.016 144.095L195.085 144.367L195.005 144.335Z" fill="white"/>
<path fill-rule="evenodd" clip-rule="evenodd" d="M195.679 144.623H195.775H195.887H196.032H196.16V144.479H196.064H195.823H195.679V144.575M195.55 144.575H195.727H195.903H196.064H196.208V144.671H196.032H195.855H195.695H195.55" fill="white"/>
<path fill-rule="evenodd" clip-rule="evenodd" d="M196.93 144.991H197.01H197.155L196.898 145.135M197.107 144.879L197.299 144.991H197.155H196.978L196.85 145.294H196.738L196.866 145.023L196.577 145.183H196.481L197.187 144.783" fill="white"/>
<path fill-rule="evenodd" clip-rule="evenodd" d="M197.01 145.486L197.716 145.086L198.053 145.278L197.989 145.31L197.732 145.166L197.507 145.31L197.716 145.422L197.636 145.47L197.427 145.342L197.171 145.486L197.443 145.646L197.379 145.694L197.01 145.486Z" fill="white"/>
<path fill-rule="evenodd" clip-rule="evenodd" d="M197.491 145.742L197.588 145.678L197.636 145.758L197.7 145.822L197.812 145.838L197.925 145.822L197.957 145.79L197.973 145.758V145.726V145.678L197.957 145.646L197.941 145.582V145.518L197.957 145.486L198.005 145.438L198.197 145.39L198.294 145.406L198.374 145.438L198.502 145.55L198.406 145.598L198.358 145.518L198.31 145.486L198.213 145.47L198.101 145.486L198.085 145.502L198.069 145.534V145.566L198.085 145.614L198.101 145.662L198.117 145.726V145.774L198.085 145.822L198.037 145.854L197.828 145.902L197.62 145.854L197.556 145.806L197.491 145.742Z" fill="white"/>
<path fill-rule="evenodd" clip-rule="evenodd" d="M198.005 146.062L198.711 145.646L199.048 145.854L198.984 145.886L198.727 145.742L198.502 145.87L198.711 145.998L198.631 146.046L198.422 145.918L198.165 146.062L198.438 146.222L198.374 146.27L198.005 146.062Z" fill="white"/>
<path fill-rule="evenodd" clip-rule="evenodd" d="M199.08 146.366L199.288 146.126L198.871 146.254L199.08 146.366ZM199.385 146.03H199.465L199 146.558H198.903L199.032 146.414L198.775 146.27H198.518H198.438L199.385 145.998" fill="white"/>
<path fill-rule="evenodd" clip-rule="evenodd" d="M199.69 146.59H199.77H199.85H200.01L199.754 146.734M199.978 146.478L200.171 146.574V146.59H200.026H199.69L199.561 146.894H199.449L199.577 146.622H199.497L199.208 146.782H199.112L199.818 146.382" fill="white"/>
<path fill-rule="evenodd" clip-rule="evenodd" d="M200.203 147.277L200.074 147.245L199.946 147.197L199.882 147.149L199.85 147.101L199.834 147.006L199.85 146.958L199.882 146.91L199.946 146.862L200.026 146.814L200.203 146.734L200.379 146.702L200.54 146.718L200.7 146.766L200.78 146.83L200.861 146.894L200.764 146.958L200.684 146.862L200.62 146.814L200.508 146.782L200.379 146.766L200.251 146.798L200.106 146.862L200.058 146.91L200.01 146.942L199.978 146.99L199.962 147.022V147.085L199.994 147.117L200.042 147.165L200.139 147.197L200.283 147.229L200.203 147.277Z" fill="white"/>
<path fill-rule="evenodd" clip-rule="evenodd" d="M200.331 147.389L201.037 146.99L201.117 147.037L200.829 147.213L201.117 147.373L201.406 147.213L201.502 147.261L200.796 147.661L200.7 147.613L201.037 147.421L200.748 147.261L200.427 147.437L200.331 147.389Z" fill="white"/>
<path fill-rule="evenodd" clip-rule="evenodd" d="M201.887 147.981L202.08 147.741L201.679 147.853L201.887 147.981ZM202.176 147.645L201.711 148.189H201.631L201.743 148.029L201.486 147.885H201.23L202.176 147.613" fill="white"/>
<path fill-rule="evenodd" clip-rule="evenodd" d="M201.935 148.317L202.625 147.901L202.722 147.949L202.481 148.445L203.026 148.141L203.091 148.173L202.401 148.589L202.304 148.525L202.545 148.045L202 148.349L201.935 148.317Z" fill="white"/>
<path fill-rule="evenodd" clip-rule="evenodd" d="M202.898 148.765H203.01H203.139H203.267H203.396V148.653L202.834 148.973H202.946M203.379 148.493L203.572 148.621V148.765L203.219 148.877H202.898H202.738L202.529 148.765L203.235 148.349" fill="white"/>
<path fill-rule="evenodd" clip-rule="evenodd" d="M203.572 149.26L204.278 148.861L204.615 149.053L204.551 149.1L204.294 148.941L204.069 149.084L204.278 149.196L204.198 149.244L203.989 149.116L203.732 149.26L204.005 149.42L203.941 149.468L203.572 149.26Z" fill="white"/>
<path fill-rule="evenodd" clip-rule="evenodd" d="M204.342 149.612H204.47H204.583H204.711H204.855V149.501H204.775L204.214 149.82H204.326M204.759 149.357L204.968 149.469V149.58L204.631 149.692H204.502H204.342L204.133 149.58L204.839 149.181" fill="white"/>
<path fill-rule="evenodd" clip-rule="evenodd" d="M205.449 149.532L205.529 149.58L205.096 149.836L205 149.884L204.984 149.916L204.968 149.948V149.98L205 150.012L205.032 150.028L205.176 150.06L205.257 150.044L205.353 149.996L205.802 149.74L205.882 149.772L205.433 150.044L205.353 150.076L205.289 150.108L205.144 150.124L204.952 150.076L204.904 150.044L204.872 150.012L204.855 149.964V149.932V149.9L204.888 149.868L204.936 149.82L205 149.788L205.449 149.532Z" fill="white"/>
<path fill-rule="evenodd" clip-rule="evenodd" d="M205.866 150.54L205.738 150.508L205.61 150.46L205.561 150.412L205.513 150.364L205.497 150.284L205.513 150.22L205.545 150.172L205.61 150.124L205.69 150.076L205.866 149.996L206.043 149.964H206.203L206.364 150.044L206.524 150.156L206.428 150.22L206.347 150.14L206.283 150.076L206.171 150.044L206.059 150.028L205.914 150.06L205.786 150.124L205.722 150.172L205.674 150.204L205.642 150.252L205.626 150.284L205.642 150.348L205.658 150.396L205.706 150.412L205.818 150.46L205.946 150.492L205.866 150.54Z" fill="white"/>
<path fill-rule="evenodd" clip-rule="evenodd" d="M206.572 150.684L206.781 150.444L206.363 150.556L206.572 150.684ZM206.877 150.348H206.957L206.492 150.892H206.396L206.524 150.732L206.267 150.588H206.011H205.93L206.877 150.316" fill="white"/>
<path fill-rule="evenodd" clip-rule="evenodd" d="M206.765 151.1L207.39 150.732L207.182 150.62L207.262 150.572L207.775 150.876L207.695 150.908L207.487 150.796L206.861 151.148L206.765 151.1Z" fill="white"/>
<path fill-rule="evenodd" clip-rule="evenodd" d="M207.198 151.34L207.904 150.94L207.984 150.988L207.278 151.403L207.198 151.34Z" fill="white"/>
<path fill-rule="evenodd" clip-rule="evenodd" d="M207.711 151.563H207.807H207.936H208.064H208.192V151.387H208.08H207.968H207.839H207.695V151.499M207.583 151.499H207.663H207.823H208H208.16H208.305V151.643H208.224H208.048H207.871H207.711H207.567V151.547" fill="white"/>
<path fill-rule="evenodd" clip-rule="evenodd" d="M208.176 151.915L208.882 151.5L208.962 151.563L208.738 152.043L209.283 151.739L209.347 151.771L208.642 152.187L208.561 152.139L208.802 151.643L208.256 151.947L208.176 151.915Z" fill="white"/>
<path fill-rule="evenodd" clip-rule="evenodd" d="M209.155 152.475L209.861 152.059L209.941 152.123L209.701 152.603L210.246 152.299L210.326 152.331L209.62 152.747L209.54 152.699L209.765 152.203L209.235 152.523L209.155 152.475Z" fill="white"/>
<path fill-rule="evenodd" clip-rule="evenodd" d="M209.813 152.859L210.519 152.459L210.872 152.651L210.792 152.683L210.535 152.539L210.31 152.683L210.519 152.795L210.455 152.843L210.23 152.715L209.973 152.859L210.246 153.019L210.182 153.067L209.813 152.859Z" fill="white"/>
<path fill-rule="evenodd" clip-rule="evenodd" d="M210.471 153.227L211.096 152.859L210.872 152.731L210.952 152.699L211.465 153.003L211.401 153.035L211.177 152.907L210.551 153.275L210.471 153.227Z" fill="white"/>
<path fill-rule="evenodd" clip-rule="evenodd" d="M210.968 153.515L211.513 153.019L211.61 153.067L211.176 153.467L211.85 153.211L211.931 153.259L211.481 153.643L212.171 153.403L212.235 153.435L211.369 153.738L211.273 153.69L211.722 153.323L211.064 153.563L210.968 153.515Z" fill="white"/>
<path fill-rule="evenodd" clip-rule="evenodd" d="M211.898 153.962H211.995H212.123H212.251H212.396V153.85H212.3H212.171H212.043H211.898V153.962ZM211.786 153.962H211.947H212.123H212.524H212.652V154.106H212.572H212.412H212.235H212.059H211.914V154.01" fill="white"/>
<path fill-rule="evenodd" clip-rule="evenodd" d="M212.845 154.17H212.925H213.006H213.15L212.893 154.314M213.102 154.058L213.294 154.154V154.282H213.15H212.974L212.845 154.586H212.749L212.861 154.314H212.781L212.492 154.49H212.396L213.102 154.09" fill="white"/>
<path fill-rule="evenodd" clip-rule="evenodd" d="M212.925 154.65L213.631 154.234L213.711 154.282L213.375 154.49L213.968 154.426L214.048 154.474L213.471 154.538L213.391 154.906L213.278 154.842L213.375 154.49L213.006 154.698L212.925 154.65Z" fill="white"/>
<path fill-rule="evenodd" clip-rule="evenodd" d="M202.994 146.958L201.807 146.286L202.689 144.383L202.706 144.335L202.738 144.303L202.85 144.159H202.834L200.476 145.518L199.529 144.975L204.342 142.192L205.289 142.736L203.01 144.047L203.026 144.063L203.187 144.015L203.411 143.967L206.572 143.471L207.695 144.127L203.941 144.607L202.994 146.958Z" fill="white"/>
<path fill-rule="evenodd" clip-rule="evenodd" d="M207.711 146.59L208.048 146.718H208.401H208.77L209.091 146.59L209.235 146.494L209.332 146.398V146.302V146.206V146.11L209.235 146.014H209.091L208.674 145.758L207.326 146.526L207.727 146.766M203.732 147.533L208.545 144.75L210.021 145.614L210.358 145.822L210.503 145.934L210.615 146.046L210.695 146.142V146.254V146.35V146.446V146.654V146.75V146.861V146.957L210.583 147.053H210.455L210.294 147.149L209.765 147.389L209.203 147.501H208.61L208.032 147.389V147.565V147.757V147.981L207.936 148.189L207.31 149.452L206.219 148.845L206.813 147.757L206.925 147.517V147.421V147.341L206.668 147.197L204.823 148.253L203.893 147.725" fill="white"/>
<path fill-rule="evenodd" clip-rule="evenodd" d="M210.374 151.212L207.871 149.772L212.684 147.006L215.091 148.381L214.209 148.893L212.749 148.045L211.674 148.669L213.037 149.452L212.155 149.964L210.791 149.181L209.7 149.804L211.257 150.7L210.374 151.212Z" fill="white"/>
<path fill-rule="evenodd" clip-rule="evenodd" d="M215.091 153.93L214.145 153.387L215.46 150.652L215.556 150.444L215.637 150.3L215.332 150.492L214.883 150.764L212.235 152.283L211.337 151.771L216.166 149.005L217.177 149.58L215.893 152.219L215.717 152.571L215.813 152.507L215.957 152.411L216.359 152.171L219.022 150.636L219.904 151.164L215.091 153.93Z" fill="white"/>
<path fill-rule="evenodd" clip-rule="evenodd" d="M196.561 140.513L196.769 140.161L199.545 140.465L199.336 140.817L196.561 140.513Z" fill="white"/>
<path fill-rule="evenodd" clip-rule="evenodd" d="M199.77 140.864H199.866H199.994H200.139H200.444H200.78L201.069 140.753L201.182 140.657L201.278 140.577V140.481V140.385V140.209V140.129H201.165H201.053H200.909H200.588H200.267L199.962 140.241H199.85L199.754 140.337V140.433V140.529V140.705M199.112 140.545V140.385L199.208 140.225L199.353 140.081L199.561 139.937L199.802 139.825L200.075 139.729H200.636H200.909H201.182H201.422L201.631 139.825L201.807 139.953L201.92 140.097V140.417V140.577L201.823 140.737L201.679 140.88L201.47 141.024L201.23 141.136L200.957 141.232H200.411H200.123H199.866H199.609L199.401 141.12L199.224 140.992L199.112 140.864V140.545Z" fill="white"/>
<path fill-rule="evenodd" clip-rule="evenodd" d="M200.443 143.455L195.791 140.881L196.529 140.449L200.989 143.135L200.443 143.455Z" fill="white"/>
<path fill-rule="evenodd" clip-rule="evenodd" d="M199.866 144.159L195.39 141.472L195.935 141.152L200.604 143.727L199.866 144.159Z" fill="white"/>
<path fill-rule="evenodd" clip-rule="evenodd" d="M198.695 144.527L193.946 142L194.86 141.472L199.433 144.111L198.695 144.527Z" fill="white"/>
<path fill-rule="evenodd" clip-rule="evenodd" d="M201.165 143.039L197.86 141.024L198.422 140.705L201.887 142.624L201.165 143.039Z" fill="white"/>
</g>
<defs>
<clipPath id="clip0_1_1155">
<rect width="384" height="221" fill="white"/>
</clipPath>
</defs>
</svg>
