<svg width="386" height="237" viewBox="0 0 386 237" fill="none" xmlns="http://www.w3.org/2000/svg">
<path opacity="0.25" fill-rule="evenodd" clip-rule="evenodd" d="M49.8228 132.164L107.159 165.26L303.475 51.977L246.122 18.8805L278.841 0L368.914 51.977L336.194 70.8576L139.878 184.141L197.231 217.237L164.512 236.118L107.159 203.021L74.4393 184.141L17.1034 151.044L49.8228 132.164Z" fill="#EC6F2D"/>
<path fill-rule="evenodd" clip-rule="evenodd" d="M127.553 88.0464L134.271 91.925L145.024 98.1445L113.706 116.205L87.7219 101.203L119.04 83.1426L127.553 88.0464Z" fill="#EC6F2D"/>
<path fill-rule="evenodd" clip-rule="evenodd" d="M102.68 73.7111L109.415 77.5897L119.039 83.1428L79.8753 105.748L53.8741 90.7463L93.0554 68.1409L102.68 73.7111Z" fill="#EC6F2D"/>
<path fill-rule="evenodd" clip-rule="evenodd" d="M76.6957 58.7091L83.414 62.5877L93.0554 68.1408L53.8742 90.7462L27.8901 75.7614L67.0714 53.156L76.6957 58.7091Z" fill="#EC6F2D"/>
<path fill-rule="evenodd" clip-rule="evenodd" d="M50.2671 43.451L56.9854 47.3296L67.0713 53.1561L27.8901 75.7615L1 60.2299L40.1812 37.6245L50.2671 43.451Z" fill="#EC6F2D"/>
<path opacity="0.5" fill-rule="evenodd" clip-rule="evenodd" d="M70.4046 39.5893L63.6864 35.7107L53.6005 29.8842L92.8159 7.26172L119.689 22.7762L80.4905 45.3987L70.4046 39.5893Z" fill="#EC6F2D"/>
<path opacity="0.5" fill-rule="evenodd" clip-rule="evenodd" d="M96.8503 54.8476L90.115 50.969L80.4906 45.3988L119.689 22.7764L145.69 37.7783L106.475 60.4007L96.8503 54.8476Z" fill="#EC6F2D"/>
<path opacity="0.5" fill-rule="evenodd" clip-rule="evenodd" d="M129.33 73.5913L122.612 69.7127L106.475 60.4005L145.69 37.7781L171.674 52.7629L132.459 75.4025L129.33 73.5913Z" fill="#EC6F2D"/>
<path opacity="0.5" fill-rule="evenodd" clip-rule="evenodd" d="M168.307 96.0772L161.588 92.1985L158.46 90.3874L197.658 67.7649L223.642 82.7668L184.444 105.389L168.307 96.0772Z" fill="#EC6F2D"/>
<path opacity="0.5" fill-rule="evenodd" clip-rule="evenodd" d="M200.787 105.714L194.051 101.835L192.325 100.827L223.642 82.7668L233.814 88.6275L202.496 106.705L200.787 105.714Z" fill="#EC6F2D"/>
<path opacity="0.5" fill-rule="evenodd" clip-rule="evenodd" d="M231.318 132.437L224.6 128.559L214.958 123.006L254.174 100.366L280.158 115.368L240.942 138.007L231.318 132.437Z" fill="#EC6F2D"/>
<path opacity="0.5" fill-rule="evenodd" clip-rule="evenodd" d="M257.302 147.439L250.584 143.56L240.942 138.007L280.158 115.368L306.142 130.37L266.943 152.992L257.302 147.439Z" fill="#EC6F2D"/>
<path opacity="0.5" fill-rule="evenodd" clip-rule="evenodd" d="M283.286 162.424L276.568 158.562L266.943 152.992L306.142 130.37L332.126 145.372L292.927 167.994L283.286 162.424Z" fill="#EC6F2D"/>
<path opacity="0.5" fill-rule="evenodd" clip-rule="evenodd" d="M309.27 177.426L302.552 173.547L292.927 167.994L332.126 145.372L358.11 160.356L318.911 182.979L309.27 177.426Z" fill="#EC6F2D"/>
<path opacity="0.5" fill-rule="evenodd" clip-rule="evenodd" d="M335.716 192.684L328.997 188.805L318.911 182.979L358.11 160.356L385 175.871L345.802 198.493L335.716 192.684Z" fill="#EC6F2D"/>
<path fill-rule="evenodd" clip-rule="evenodd" d="M315.561 196.546L322.296 200.424L332.365 206.251L293.201 228.856L266.311 213.342L305.475 190.736L315.561 196.546Z" fill="#EC6F2D"/>
<path fill-rule="evenodd" clip-rule="evenodd" d="M289.132 181.287L295.851 185.183L305.475 190.736L266.311 213.341L240.327 198.34L279.491 175.734L289.132 181.287Z" fill="#EC6F2D"/>
<g opacity="0.5">
<path fill-rule="evenodd" clip-rule="evenodd" d="M269.644 170.045L276.363 173.923L279.491 175.734L240.327 198.34L227.335 190.839L266.499 168.233L269.644 170.045Z" fill="#EC6F2D"/>
<path fill-rule="evenodd" clip-rule="evenodd" d="M256.635 162.544L263.371 166.422L266.499 168.233L227.335 190.839L214.343 183.355L253.507 160.75L256.635 162.544Z" fill="#EC6F2D"/>
</g>
<path fill-rule="evenodd" clip-rule="evenodd" d="M209.83 144.568L216.565 148.464L219.694 150.258L196.205 163.825L183.213 156.307L206.701 142.757L209.83 144.568Z" fill="#EC6F2D"/>
<path fill-rule="evenodd" clip-rule="evenodd" d="M237.147 151.301L243.883 155.179L253.507 160.749L222.189 178.81L196.205 163.825L219.693 150.258L227.523 145.748L237.147 151.301Z" fill="#EC6F2D"/>
<path fill-rule="evenodd" clip-rule="evenodd" d="M196.838 137.068L203.556 140.963L206.701 142.757L183.213 156.307L170.221 148.823L193.709 135.273L196.838 137.068Z" fill="#EC6F2D"/>
<path fill-rule="evenodd" clip-rule="evenodd" d="M113.706 116.205L137.194 102.655L163.178 117.657L139.69 131.207L113.706 116.205Z" fill="#EC6F2D"/>
<path fill-rule="evenodd" clip-rule="evenodd" d="M175.093 124.526L181.811 128.405L193.709 135.274L170.221 148.823L139.69 131.207L163.178 117.657L175.093 124.526Z" fill="#EC6F2D"/>
<path opacity="0.5" fill-rule="evenodd" clip-rule="evenodd" d="M158.46 90.3873L145.468 82.9035L132.459 75.4025L171.674 52.7629L197.658 67.7648L158.46 90.3873Z" fill="#EC6F2D"/>
<path d="M1 60.2297L79.8753 105.748" stroke="#004080" stroke-width="0.37" stroke-linecap="round" stroke-linejoin="round"/>
<path d="M385 175.871L293.201 228.856" stroke="#004080" stroke-width="0.37" stroke-linecap="round" stroke-linejoin="round"/>
<path d="M1 60.2297L92.816 7.26172" stroke="#004080" stroke-width="0.37" stroke-linecap="round" stroke-linejoin="round"/>
<path d="M79.8754 105.748L87.7219 101.22" stroke="#004080" stroke-width="0.37" stroke-linecap="round" stroke-linejoin="round"/>
<path d="M40.1812 37.6245L50.2671 43.451" stroke="#004080" stroke-width="0.37" stroke-linecap="round" stroke-linejoin="round"/>
<path d="M214.343 183.355L293.201 228.856" stroke="#004080" stroke-width="0.37" stroke-linecap="round" stroke-linejoin="round"/>
<ellipse cx="139.69" cy="131.207" rx="0.316253" ry="0.316099" fill="#004080"/>
<ellipse cx="140.681" cy="130.643" rx="0.316253" ry="0.316099" fill="#004080"/>
<ellipse cx="142.032" cy="129.857" rx="0.316253" ry="0.316099" fill="#004080"/>
<ellipse cx="143.365" cy="129.088" rx="0.316253" ry="0.316099" fill="#004080"/>
<ellipse cx="144.716" cy="128.319" rx="0.316253" ry="0.316099" fill="#004080"/>
<ellipse cx="146.066" cy="127.533" rx="0.316253" ry="0.316099" fill="#004080"/>
<ellipse cx="147.4" cy="126.764" rx="0.316253" ry="0.316099" fill="#004080"/>
<ellipse cx="148.75" cy="125.978" rx="0.316253" ry="0.316099" fill="#004080"/>
<ellipse cx="150.101" cy="125.21" rx="0.316253" ry="0.316099" fill="#004080"/>
<ellipse cx="151.434" cy="124.424" rx="0.316253" ry="0.316099" fill="#004080"/>
<ellipse cx="152.784" cy="123.655" rx="0.316253" ry="0.316099" fill="#004080"/>
<ellipse cx="154.135" cy="122.869" rx="0.316253" ry="0.316099" fill="#004080"/>
<ellipse cx="155.468" cy="122.1" rx="0.316253" ry="0.316099" fill="#004080"/>
<ellipse cx="156.819" cy="121.331" rx="0.316253" ry="0.316099" fill="#004080"/>
<ellipse cx="158.169" cy="120.545" rx="0.316253" ry="0.316099" fill="#004080"/>
<ellipse cx="159.503" cy="119.776" rx="0.316253" ry="0.316099" fill="#004080"/>
<ellipse cx="160.853" cy="118.99" rx="0.316253" ry="0.316099" fill="#004080"/>
<ellipse cx="162.204" cy="118.221" rx="0.316253" ry="0.316099" fill="#004080"/>
<ellipse cx="163.178" cy="117.657" rx="0.316253" ry="0.316099" fill="#004080"/>
<path d="M170.221 148.823L193.709 135.273" stroke="#004080" stroke-width="0.37" stroke-linecap="round" stroke-linejoin="round"/>
<path d="M214.343 183.355L222.189 178.81" stroke="#004080" stroke-width="0.37" stroke-linecap="round" stroke-linejoin="round"/>
<path d="M240.327 198.34L279.491 175.734" stroke="#004080" stroke-width="0.37" stroke-linecap="round" stroke-linejoin="round"/>
<path d="M92.8162 7.26172L385 175.871" stroke="#004080" stroke-width="0.37" stroke-linecap="round" stroke-linejoin="round"/>
<path d="M80.4906 45.3988L119.689 22.7764" stroke="#004080" stroke-width="0.37" stroke-linecap="round" stroke-linejoin="round"/>
<path d="M106.475 60.4005L145.69 37.7781" stroke="#004080" stroke-width="0.37" stroke-linecap="round" stroke-linejoin="round"/>
<path d="M184.444 105.389L223.642 82.7668" stroke="#004080" stroke-width="0.37" stroke-linecap="round" stroke-linejoin="round"/>
<path d="M214.958 123.006L254.174 100.366" stroke="#004080" stroke-width="0.37" stroke-linecap="round" stroke-linejoin="round"/>
<path d="M193.71 135.273L196.838 137.068" stroke="#004080" stroke-width="0.37" stroke-linecap="round" stroke-linejoin="round"/>
<path d="M214.958 123.005L224.6 128.558" stroke="#004080" stroke-width="0.37" stroke-linecap="round" stroke-linejoin="round"/>
<path d="M240.942 137.99L280.158 115.368" stroke="#004080" stroke-width="0.37" stroke-linecap="round" stroke-linejoin="round"/>
<path d="M266.943 152.992L306.142 130.37" stroke="#004080" stroke-width="0.37" stroke-linecap="round" stroke-linejoin="round"/>
<path d="M292.927 167.994L332.126 145.372" stroke="#004080" stroke-width="0.37" stroke-linecap="round" stroke-linejoin="round"/>
<path d="M318.911 182.979L358.11 160.356" stroke="#004080" stroke-width="0.37" stroke-linecap="round" stroke-linejoin="round"/>
<path d="M87.7219 101.22L139.69 131.207" stroke="#004080" stroke-width="0.37" stroke-linecap="round" stroke-linejoin="round"/>
<path d="M119.04 83.1426L127.553 88.0464" stroke="#004080" stroke-width="0.37" stroke-linecap="round" stroke-linejoin="round"/>
<path d="M134.271 91.925L145.023 98.1445" stroke="#004080" stroke-width="0.37" stroke-linecap="round" stroke-linejoin="round"/>
<path d="M93.0554 68.1409L102.68 73.7111" stroke="#004080" stroke-width="0.37" stroke-linecap="round" stroke-linejoin="round"/>
<path d="M109.415 77.5896L119.04 83.1427" stroke="#004080" stroke-width="0.37" stroke-linecap="round" stroke-linejoin="round"/>
<path d="M67.0713 53.156L76.6956 58.7091" stroke="#004080" stroke-width="0.37" stroke-linecap="round" stroke-linejoin="round"/>
<path d="M83.4139 62.5879L93.0554 68.141" stroke="#004080" stroke-width="0.37" stroke-linecap="round" stroke-linejoin="round"/>
<path d="M56.9854 47.3296L67.0713 53.1561" stroke="#004080" stroke-width="0.37" stroke-linecap="round" stroke-linejoin="round"/>
<path d="M106.475 60.4006L122.612 69.7128" stroke="#004080" stroke-width="0.37" stroke-linecap="round" stroke-linejoin="round"/>
<path d="M53.6005 29.8843L63.6864 35.7108" stroke="#004080" stroke-width="0.37" stroke-linecap="round" stroke-linejoin="round"/>
<path d="M80.4906 45.3987L90.115 50.9689" stroke="#004080" stroke-width="0.37" stroke-linecap="round" stroke-linejoin="round"/>
<path d="M96.8503 54.8474L106.475 60.4005" stroke="#004080" stroke-width="0.37" stroke-linecap="round" stroke-linejoin="round"/>
<path d="M70.4047 39.5894L80.4906 45.3988" stroke="#004080" stroke-width="0.37" stroke-linecap="round" stroke-linejoin="round"/>
<path d="M129.331 73.5913L142.1 80.9556" stroke="#004080" stroke-width="0.37" stroke-linecap="round" stroke-linejoin="round"/>
<path d="M148.819 84.8342L161.588 92.1985" stroke="#004080" stroke-width="0.37" stroke-linecap="round" stroke-linejoin="round"/>
<path d="M168.307 96.0771L184.444 105.389" stroke="#004080" stroke-width="0.37" stroke-linecap="round" stroke-linejoin="round"/>
<path d="M227.523 145.748L237.147 151.301" stroke="#004080" stroke-width="0.37" stroke-linecap="round" stroke-linejoin="round"/>
<path d="M206.701 142.757L209.83 144.568" stroke="#004080" stroke-width="0.37" stroke-linecap="round" stroke-linejoin="round"/>
<path d="M216.565 148.447L219.693 150.258" stroke="#004080" stroke-width="0.37" stroke-linecap="round" stroke-linejoin="round"/>
<path d="M203.556 140.946L206.702 142.757" stroke="#004080" stroke-width="0.37" stroke-linecap="round" stroke-linejoin="round"/>
<path d="M253.507 160.75L256.652 162.544" stroke="#004080" stroke-width="0.37" stroke-linecap="round" stroke-linejoin="round"/>
<path d="M243.883 155.179L253.507 160.749" stroke="#004080" stroke-width="0.37" stroke-linecap="round" stroke-linejoin="round"/>
<path d="M279.491 175.734L289.133 181.287" stroke="#004080" stroke-width="0.37" stroke-linecap="round" stroke-linejoin="round"/>
<path d="M263.371 166.422L266.499 168.233" stroke="#004080" stroke-width="0.37" stroke-linecap="round" stroke-linejoin="round"/>
<path d="M266.499 168.233L269.644 170.044" stroke="#004080" stroke-width="0.37" stroke-linecap="round" stroke-linejoin="round"/>
<path d="M276.362 173.923L279.491 175.734" stroke="#004080" stroke-width="0.37" stroke-linecap="round" stroke-linejoin="round"/>
<path d="M305.475 190.736L315.561 196.546" stroke="#004080" stroke-width="0.37" stroke-linecap="round" stroke-linejoin="round"/>
<path d="M295.851 185.183L305.475 190.736" stroke="#004080" stroke-width="0.37" stroke-linecap="round" stroke-linejoin="round"/>
<path d="M322.296 200.424L332.365 206.251" stroke="#004080" stroke-width="0.37" stroke-linecap="round" stroke-linejoin="round"/>
<path d="M266.943 152.992L276.568 158.545" stroke="#004080" stroke-width="0.37" stroke-linecap="round" stroke-linejoin="round"/>
<path d="M240.942 137.99L250.584 143.56" stroke="#004080" stroke-width="0.37" stroke-linecap="round" stroke-linejoin="round"/>
<path d="M257.302 147.439L266.943 152.992" stroke="#004080" stroke-width="0.37" stroke-linecap="round" stroke-linejoin="round"/>
<path d="M292.927 167.994L302.552 173.547" stroke="#004080" stroke-width="0.37" stroke-linecap="round" stroke-linejoin="round"/>
<path d="M318.911 182.979L328.997 188.805" stroke="#004080" stroke-width="0.37" stroke-linecap="round" stroke-linejoin="round"/>
<path d="M309.27 177.426L318.912 182.979" stroke="#004080" stroke-width="0.37" stroke-linecap="round" stroke-linejoin="round"/>
<path d="M335.716 192.684L345.802 198.493" stroke="#004080" stroke-width="0.37" stroke-linecap="round" stroke-linejoin="round"/>
<path d="M283.286 162.441L292.927 167.994" stroke="#004080" stroke-width="0.37" stroke-linecap="round" stroke-linejoin="round"/>
<path d="M231.318 132.437L240.942 137.99" stroke="#004080" stroke-width="0.37" stroke-linecap="round" stroke-linejoin="round"/>
<path d="M223.694 94.488L244.037 106.226" stroke="#004080" stroke-width="0.37" stroke-linecap="round" stroke-linejoin="round"/>
<path d="M202.496 106.705L233.814 88.6274" stroke="#004080" stroke-width="0.37" stroke-linecap="round" stroke-linejoin="round"/>
<path d="M221.762 95.5815L230.976 100.913" stroke="#004080" stroke-width="0.37" stroke-linecap="round" stroke-linejoin="round"/>
<path d="M219.83 96.7092L229.044 102.023" stroke="#004080" stroke-width="0.37" stroke-linecap="round" stroke-linejoin="round"/>
<path d="M217.916 97.8201L227.13 103.134" stroke="#004080" stroke-width="0.37" stroke-linecap="round" stroke-linejoin="round"/>
<path d="M215.984 98.9307L225.198 104.245" stroke="#004080" stroke-width="0.37" stroke-linecap="round" stroke-linejoin="round"/>
<path d="M214.052 100.041L223.266 105.355" stroke="#004080" stroke-width="0.37" stroke-linecap="round" stroke-linejoin="round"/>
<path d="M212.138 101.152L221.352 106.466" stroke="#004080" stroke-width="0.37" stroke-linecap="round" stroke-linejoin="round"/>
<path d="M210.206 102.262L219.42 107.576" stroke="#004080" stroke-width="0.37" stroke-linecap="round" stroke-linejoin="round"/>
<path d="M208.274 103.373L217.488 108.687" stroke="#004080" stroke-width="0.37" stroke-linecap="round" stroke-linejoin="round"/>
<path d="M206.36 104.484L215.574 109.798" stroke="#004080" stroke-width="0.37" stroke-linecap="round" stroke-linejoin="round"/>
<path d="M204.428 105.594L213.642 110.908" stroke="#004080" stroke-width="0.37" stroke-linecap="round" stroke-linejoin="round"/>
<path d="M202.496 106.705L211.71 112.019" stroke="#004080" stroke-width="0.37" stroke-linecap="round" stroke-linejoin="round"/>
<path d="M211.71 112.019L232.908 99.7849" stroke="#004080" stroke-width="0.37" stroke-linecap="round" stroke-linejoin="round"/>
<path d="M202.496 106.705L200.787 105.714" stroke="#004080" stroke-width="0.37" stroke-linecap="round" stroke-linejoin="round"/>
<path d="M194.051 101.835L192.325 100.827" stroke="#004080" stroke-width="0.37" stroke-linecap="round" stroke-linejoin="round"/>
<path d="M213.642 113.129L234.822 100.913" stroke="#004080" stroke-width="0.37" stroke-linecap="round" stroke-linejoin="round"/>
<path d="M213.642 113.129L222.856 118.443" stroke="#004080" stroke-width="0.37" stroke-linecap="round" stroke-linejoin="round"/>
<path d="M215.574 112.019L224.771 117.333" stroke="#004080" stroke-width="0.37" stroke-linecap="round" stroke-linejoin="round"/>
<path d="M219.42 109.798L228.634 115.111" stroke="#004080" stroke-width="0.37" stroke-linecap="round" stroke-linejoin="round"/>
<path d="M217.488 110.908L226.702 116.222" stroke="#004080" stroke-width="0.37" stroke-linecap="round" stroke-linejoin="round"/>
<path d="M221.352 108.687L230.549 114.001" stroke="#004080" stroke-width="0.37" stroke-linecap="round" stroke-linejoin="round"/>
<path d="M223.266 107.576L232.48 112.89" stroke="#004080" stroke-width="0.37" stroke-linecap="round" stroke-linejoin="round"/>
<path d="M225.198 106.466L234.412 111.78" stroke="#004080" stroke-width="0.37" stroke-linecap="round" stroke-linejoin="round"/>
<path d="M227.13 105.355L236.327 110.669" stroke="#004080" stroke-width="0.37" stroke-linecap="round" stroke-linejoin="round"/>
<path d="M229.044 104.244L238.258 109.558" stroke="#004080" stroke-width="0.37" stroke-linecap="round" stroke-linejoin="round"/>
<path d="M230.976 103.134L240.19 108.448" stroke="#004080" stroke-width="0.37" stroke-linecap="round" stroke-linejoin="round"/>
<path d="M232.908 102.023L242.105 107.337" stroke="#004080" stroke-width="0.37" stroke-linecap="round" stroke-linejoin="round"/>
<path d="M139.69 131.207L222.189 178.81" stroke="#004080" stroke-width="0.37" stroke-linecap="round" stroke-linejoin="round"/>
<ellipse cx="113.706" cy="116.205" rx="0.316253" ry="0.316099" fill="#004080"/>
<ellipse cx="114.697" cy="115.641" rx="0.316253" ry="0.316099" fill="#004080"/>
<ellipse cx="116.048" cy="114.872" rx="0.316253" ry="0.316099" fill="#004080"/>
<ellipse cx="117.381" cy="114.086" rx="0.316253" ry="0.316099" fill="#004080"/>
<ellipse cx="118.732" cy="113.317" rx="0.316253" ry="0.316099" fill="#004080"/>
<ellipse cx="120.082" cy="112.531" rx="0.316253" ry="0.316099" fill="#004080"/>
<ellipse cx="121.416" cy="111.763" rx="0.316253" ry="0.316099" fill="#004080"/>
<ellipse cx="122.766" cy="110.994" rx="0.316253" ry="0.316099" fill="#004080"/>
<ellipse cx="124.116" cy="110.208" rx="0.316253" ry="0.316099" fill="#004080"/>
<ellipse cx="125.45" cy="109.439" rx="0.316253" ry="0.316099" fill="#004080"/>
<ellipse cx="126.801" cy="108.653" rx="0.316253" ry="0.316099" fill="#004080"/>
<ellipse cx="128.151" cy="107.884" rx="0.316253" ry="0.316099" fill="#004080"/>
<ellipse cx="129.484" cy="107.115" rx="0.316253" ry="0.316099" fill="#004080"/>
<ellipse cx="130.835" cy="106.329" rx="0.316253" ry="0.316099" fill="#004080"/>
<ellipse cx="132.185" cy="105.56" rx="0.316253" ry="0.316099" fill="#004080"/>
<ellipse cx="133.519" cy="104.774" rx="0.316253" ry="0.316099" fill="#004080"/>
<ellipse cx="134.869" cy="104.005" rx="0.316253" ry="0.316099" fill="#004080"/>
<ellipse cx="136.22" cy="103.219" rx="0.316253" ry="0.316099" fill="#004080"/>
<ellipse cx="137.194" cy="102.655" rx="0.316253" ry="0.316099" fill="#004080"/>
<path d="M137.194 102.655L145.707 107.559" stroke="#004080" stroke-width="0.37" stroke-linecap="round" stroke-linejoin="round"/>
<path d="M152.425 111.455L163.178 117.657" stroke="#004080" stroke-width="0.37" stroke-linecap="round" stroke-linejoin="round"/>
<path d="M163.178 117.657L175.076 124.526" stroke="#004080" stroke-width="0.37" stroke-linecap="round" stroke-linejoin="round"/>
<path d="M181.811 128.405L193.709 135.274" stroke="#004080" stroke-width="0.37" stroke-linecap="round" stroke-linejoin="round"/>
<path d="M132.459 75.4025L171.674 52.7629" stroke="#004080" stroke-width="0.37" stroke-linecap="round" stroke-linejoin="round"/>
<path d="M158.46 90.3874L197.658 67.7649" stroke="#004080" stroke-width="0.37" stroke-linecap="round" stroke-linejoin="round"/>
<path d="M240.327 178.365L242.259 174.23" stroke="#004080" stroke-width="0.37" stroke-linecap="round" stroke-linejoin="round"/>
<path d="M244.19 180.587L251.37 179.476" stroke="#004080" stroke-width="0.37" stroke-linecap="round" stroke-linejoin="round"/>
<path d="M244.19 180.587L246.105 176.452" stroke="#004080" stroke-width="0.37" stroke-linecap="round" stroke-linejoin="round"/>
<path d="M240.327 178.366L247.507 177.255" stroke="#004080" stroke-width="0.37" stroke-linecap="round" stroke-linejoin="round"/>
<path d="M137.194 102.655L145.024 98.1445" stroke="#004080" stroke-width="0.37" stroke-linecap="round" stroke-linejoin="round"/>
<path d="M222.189 178.81L253.507 160.75" stroke="#004080" stroke-width="0.37" stroke-linecap="round" stroke-linejoin="round"/>
<path d="M219.693 150.258L227.523 145.748" stroke="#004080" stroke-width="0.37" stroke-linecap="round" stroke-linejoin="round"/>
<ellipse cx="111.21" cy="87.6535" rx="0.316253" ry="0.316099" fill="#004080"/>
<ellipse cx="112.441" cy="86.9528" rx="0.316253" ry="0.316099" fill="#004080"/>
<ellipse cx="113.774" cy="86.1843" rx="0.316253" ry="0.316099" fill="#004080"/>
<ellipse cx="115.125" cy="85.3981" rx="0.316253" ry="0.316099" fill="#004080"/>
<ellipse cx="116.475" cy="84.6293" rx="0.316253" ry="0.316099" fill="#004080"/>
<ellipse cx="117.809" cy="83.8432" rx="0.316253" ry="0.316099" fill="#004080"/>
<ellipse cx="119.039" cy="83.1428" rx="0.316253" ry="0.316099" fill="#004080"/>
<ellipse cx="87.7216" cy="101.22" rx="0.316253" ry="0.316099" fill="#004080"/>
<ellipse cx="88.9527" cy="100.503" rx="0.316253" ry="0.316099" fill="#004080"/>
<ellipse cx="90.2862" cy="99.7336" rx="0.316253" ry="0.316099" fill="#004080"/>
<ellipse cx="91.6366" cy="98.9477" rx="0.316253" ry="0.316099" fill="#004080"/>
<ellipse cx="92.987" cy="98.1789" rx="0.316253" ry="0.316099" fill="#004080"/>
<ellipse cx="94.3204" cy="97.4099" rx="0.316253" ry="0.316099" fill="#004080"/>
<ellipse cx="95.5511" cy="96.6923" rx="0.316253" ry="0.316099" fill="#004080"/>
<ellipse cx="215.779" cy="152.531" rx="0.316253" ry="0.316099" fill="#004080"/>
<ellipse cx="216.394" cy="152.172" rx="0.316253" ry="0.316099" fill="#004080"/>
<ellipse cx="217.728" cy="151.386" rx="0.316253" ry="0.316099" fill="#004080"/>
<ellipse cx="219.078" cy="150.617" rx="0.316253" ry="0.316099" fill="#004080"/>
<ellipse cx="219.693" cy="150.258" rx="0.316253" ry="0.316099" fill="#004080"/>
<ellipse cx="196.205" cy="163.825" rx="0.316253" ry="0.316099" fill="#004080"/>
<ellipse cx="196.821" cy="163.466" rx="0.316253" ry="0.316099" fill="#004080"/>
<ellipse cx="198.171" cy="162.68" rx="0.316253" ry="0.316099" fill="#004080"/>
<ellipse cx="199.505" cy="161.911" rx="0.316253" ry="0.316099" fill="#004080"/>
<ellipse cx="200.12" cy="161.552" rx="0.316253" ry="0.316099" fill="#004080"/>
<ellipse cx="183.213" cy="156.324" rx="0.316253" ry="0.316099" fill="#004080"/>
<ellipse cx="184.205" cy="155.743" rx="0.316253" ry="0.316099" fill="#004080"/>
<ellipse cx="185.538" cy="154.974" rx="0.316253" ry="0.316099" fill="#004080"/>
<ellipse cx="186.889" cy="154.188" rx="0.316253" ry="0.316099" fill="#004080"/>
<ellipse cx="188.239" cy="153.419" rx="0.316253" ry="0.316099" fill="#004080"/>
<ellipse cx="189.572" cy="152.65" rx="0.316253" ry="0.316099" fill="#004080"/>
<ellipse cx="190.923" cy="151.864" rx="0.316253" ry="0.316099" fill="#004080"/>
<ellipse cx="192.273" cy="151.095" rx="0.316253" ry="0.316099" fill="#004080"/>
<ellipse cx="193.607" cy="150.31" rx="0.316253" ry="0.316099" fill="#004080"/>
<ellipse cx="194.957" cy="149.541" rx="0.316253" ry="0.316099" fill="#004080"/>
<ellipse cx="196.308" cy="148.772" rx="0.316253" ry="0.316099" fill="#004080"/>
<ellipse cx="197.641" cy="147.986" rx="0.316253" ry="0.316099" fill="#004080"/>
<ellipse cx="198.992" cy="147.217" rx="0.316253" ry="0.316099" fill="#004080"/>
<ellipse cx="200.342" cy="146.431" rx="0.316253" ry="0.316099" fill="#004080"/>
<ellipse cx="201.676" cy="145.662" rx="0.316253" ry="0.316099" fill="#004080"/>
<ellipse cx="203.026" cy="144.893" rx="0.316253" ry="0.316099" fill="#004080"/>
<ellipse cx="204.376" cy="144.107" rx="0.316253" ry="0.316099" fill="#004080"/>
<ellipse cx="205.71" cy="143.338" rx="0.316253" ry="0.316099" fill="#004080"/>
<ellipse cx="206.702" cy="142.758" rx="0.316253" ry="0.316099" fill="#004080"/>
<path d="M249.079 180.792C249.773 180.39 250.56 180.178 251.362 180.178C252.163 180.178 252.95 180.39 253.644 180.792" stroke="#004080" stroke-width="0.37" stroke-linecap="round" stroke-linejoin="round"/>
<path d="M249.079 183.423C248.849 183.29 248.657 183.098 248.524 182.867C248.391 182.636 248.321 182.374 248.321 182.108C248.321 181.841 248.391 181.579 248.524 181.348C248.657 181.118 248.849 180.926 249.079 180.792" stroke="#004080" stroke-width="0.37" stroke-linecap="round" stroke-linejoin="round"/>
<path d="M251.25 184.038C250.489 184.005 249.745 183.795 249.079 183.423" stroke="#004080" stroke-width="0.37" stroke-linecap="round" stroke-linejoin="round"/>
<path d="M253.695 180.792C253.925 180.926 254.115 181.119 254.247 181.35C254.379 181.58 254.448 181.842 254.447 182.108V182.21" stroke="#004080" stroke-width="0.37" stroke-linecap="round" stroke-linejoin="round"/>
<path fill-rule="evenodd" clip-rule="evenodd" d="M85.961 86.6795L88.7133 88.2686L89.1235 88.4907L89.5851 88.6615L90.0808 88.8153L90.5937 88.952H91.1407H91.6878H92.8502L94.0297 88.8324L95.1751 88.5932L96.2692 88.2344L96.782 88.0123L97.2777 87.756L97.7222 87.4655L98.0983 87.175L98.4402 86.8675L98.7137 86.5599L98.9359 86.2524L99.1069 85.9448L99.2265 85.6372V85.3297V84.7487V84.4583L99.0898 84.1678L98.8847 83.8944L98.594 83.7236L98.2863 83.4673L97.9102 83.228L94.8674 81.5194L85.961 86.6453M84.884 86.6453L94.8845 80.8872L98.3034 82.818L98.7308 83.0914L99.0898 83.3818L99.3804 83.7065L99.6197 84.0311L99.7907 84.3899L99.8932 84.7487V85.5006V85.8764L99.7565 86.2524L99.5514 86.6112L99.2949 86.97L98.9872 87.3288L98.6111 87.6705L98.1838 87.9952L97.688 88.3027L97.1581 88.5761L96.611 88.8153L95.4315 89.2083L94.2007 89.4646L92.9528 89.5842H91.7219H91.1236L90.5424 89.4817L89.9783 89.345L89.4483 89.1741L88.9526 88.9862L88.4739 88.747L85.055 86.7137" fill="white"/>
<path fill-rule="evenodd" clip-rule="evenodd" d="M85.2944 86.6968L97.0386 88.3371L97.0044 88.3712L85.2773 86.7309L85.2944 86.6968Z" fill="white"/>
<path fill-rule="evenodd" clip-rule="evenodd" d="M99.6026 85.6886L94.8673 81.1948L94.9186 81.1777L99.6538 85.6715L99.6026 85.6886Z" fill="white"/>
<path fill-rule="evenodd" clip-rule="evenodd" d="M90.1664 85.6714L90.2177 85.6543L91.0382 89.3279L90.9698 89.345L90.1664 85.6714Z" fill="white"/>
<path fill-rule="evenodd" clip-rule="evenodd" d="M94.9357 81.1606L90.2688 85.6544L90.2175 85.6373L94.8844 81.1436L94.9357 81.1606Z" fill="white"/>
<path fill-rule="evenodd" clip-rule="evenodd" d="M90.2346 85.6372L97.0725 88.354L97.0383 88.3881L90.2004 85.6714L90.2346 85.6372Z" fill="white"/>
<path fill-rule="evenodd" clip-rule="evenodd" d="M90.2346 85.6204L99.5684 85.6375V85.6718L90.2346 85.6546V85.6204Z" fill="white"/>
<path fill-rule="evenodd" clip-rule="evenodd" d="M99.6197 85.7058L95.0725 84.2876L95.1067 84.2534L99.6539 85.6716L99.6197 85.7058Z" fill="white"/>
<path fill-rule="evenodd" clip-rule="evenodd" d="M90.1835 85.6203L95.0042 84.2534L95.0213 84.2705L90.2177 85.6545L90.1835 85.6203Z" fill="white"/>
<path fill-rule="evenodd" clip-rule="evenodd" d="M97.0555 88.3713L95.0554 84.2705L95.1067 84.2534L97.1068 88.3542L97.0555 88.3713Z" fill="white"/>
<path fill-rule="evenodd" clip-rule="evenodd" d="M95.09 84.2191L94.8673 81.1948H94.9187L95.1414 84.2191H95.09Z" fill="white"/>
<path fill-rule="evenodd" clip-rule="evenodd" d="M90.2007 85.6714L85.38 86.6795V86.6453L90.1836 85.6372L90.2007 85.6714Z" fill="white"/>
<path fill-rule="evenodd" clip-rule="evenodd" d="M91.0039 89.3279L99.5342 85.7056L99.5684 85.7397L91.0381 89.3621L91.0039 89.3279Z" fill="white"/>
<path fill-rule="evenodd" clip-rule="evenodd" d="M101.705 88.4909L102.15 88.7472L102.509 88.8839H102.919L103.364 88.7985L103.791 88.6105L103.979 88.4909L104.133 88.3542L104.235 88.2346V88.115V87.8758L104.133 87.7562L103.996 87.6537L103.552 87.4145L101.705 88.4738M103.535 86.936L104.389 87.4315L104.629 87.6024L104.783 87.7562V87.9441V88.115V88.303L104.663 88.4909L104.458 88.6789L104.184 88.8497L103.552 89.1231L102.902 89.2427H102.287L101.723 89.0035L100.868 88.508L103.5 86.9873" fill="white"/>
<path fill-rule="evenodd" clip-rule="evenodd" d="M104.799 90.2677H104.902H105.021H105.278H105.534H105.774H105.876V90.1822V90.0455H105.774H105.654H105.38H105.124L104.885 90.1481H104.782V90.2847M103.671 90.7119L104.457 91.1732L105.175 90.7461H104.799H104.611H104.457L104.321 90.5581V90.4556V90.2164V90.0797L104.423 89.9601L104.543 89.8234L104.731 89.7038L105.603 89.4475H106.013H106.201H106.372L106.509 89.55V89.6526V89.8747L106.714 89.7722L107.09 89.9772L104.457 91.515L103.295 90.8315L103.637 90.6265" fill="white"/>
<path fill-rule="evenodd" clip-rule="evenodd" d="M101.346 92.0619L101.552 92.2669H101.671H101.928H102.201L102.441 92.1644H102.526V92.0277H102.441H102.338H102.218H102.064H101.791H101.552H101.449V92.1131V92.2669M100.868 92.1131V91.9935L100.97 91.8568L101.107 91.7372L101.278 91.6176L102.15 91.3613H102.577H102.765H102.936H103.056V91.4638V91.7031L103.244 91.5834L103.62 91.8056L101.911 92.8308L101.552 92.6257L101.74 92.5061H101.346H101.176H101.005L100.885 92.2669V92.1473V91.9081" fill="white"/>
<path fill-rule="evenodd" clip-rule="evenodd" d="M108.201 92.2669H108.304H108.424H108.68H108.954L109.193 92.1644H109.296V92.079V91.9252H109.193H109.073H108.817H108.56L108.304 92.0277H108.219V92.1815M107.637 92.0448V91.9081L107.723 91.7885L107.86 91.6518L108.031 91.5322L108.458 91.3613H108.902H109.33H109.518H109.689L109.808 91.4468V91.5493V91.7714L109.996 91.6689L110.39 91.891L108.68 92.8991L108.389 92.8137L108.595 92.7112H108.184H108.013H107.86L107.723 92.6086V92.5061V92.2669" fill="white"/>
<path fill-rule="evenodd" clip-rule="evenodd" d="M113.022 98.7938H113.108H113.21H113.313H113.586H113.843L114.082 98.7083H114.185V98.6229V98.4862H114.065H113.689H113.433L113.193 98.5887H113.091V98.7425M112.492 98.5887V98.4691L112.595 98.3324L112.732 98.2128L112.903 98.0932L113.33 97.9053H113.774H114.185H114.39H114.544L114.68 97.9907V98.1103V98.3324L114.886 98.2128L115.262 98.435L113.552 99.4601L113.176 99.238L113.364 99.1184H112.971H112.783H112.629L112.509 99.0159V98.8963V98.6571" fill="white"/>
<path fill-rule="evenodd" clip-rule="evenodd" d="M116.424 100.81H116.526H116.646H116.903H117.176L117.415 100.708H117.518V100.554H117.415H117.296H117.039H116.766L116.526 100.656V100.742V100.896M115.979 100.759V100.639V100.503L116.116 100.366L116.287 100.246L116.697 100.075H117.159H117.621H117.826H117.997L118.15 100.178V100.298V100.571V100.708V100.827L118.014 100.964L117.843 101.066L117.638 101.169L117.432 101.254H116.954H116.509H116.304H116.116L115.979 101.152L115.877 101.032V100.759" fill="white"/>
<path fill-rule="evenodd" clip-rule="evenodd" d="M107.364 95.5133H107.466H107.586H107.842H108.099H108.355V95.4278V95.2741H108.253H108.389H108.133H107.86L107.62 95.3766H107.518V95.5133M106.971 95.3937V95.257V95.1374L107.09 95.0007L107.261 94.8811L107.689 94.7102H108.15H108.595H108.8L108.988 94.7956L109.125 94.8982L109.227 95.0178V95.2741V95.4107V95.5474L109.107 95.667L108.936 95.7867L108.731 95.8892H108.509H108.048H107.586H107.381H107.21L107.056 95.7867V95.667V95.4107" fill="white"/>
<path fill-rule="evenodd" clip-rule="evenodd" d="M98.6111 93.5314V93.4118V93.2922V93.1896L98.5085 93.0871H98.3376H98.1325H97.7051L98.5427 93.5655M96.8333 93.4801V93.3434L96.9187 93.2067L97.0384 93.0871L97.2093 92.9675L97.4145 92.865H97.6367H98.0983H98.5427H98.7479L98.9359 92.9504L99.0727 93.0529V93.1555V93.4118V93.5485V93.6681L98.9359 93.8048L98.765 93.9244L97.5512 93.2238L97.4316 93.3434V93.4801V93.6168H97.5512H97.6709H98.1325V93.9244H97.6367H97.4145L97.1239 93.9756L96.9871 93.8731L96.8845 93.7535V93.4972" fill="white"/>
<path fill-rule="evenodd" clip-rule="evenodd" d="M102.936 96.026V95.9064V95.7868V95.6843L102.834 95.5817H102.663H102.475H102.047L102.868 96.0602M101.158 95.9747V95.838L101.244 95.7184L101.381 95.5817L101.552 95.4621L101.74 95.3596H101.962H102.44H102.885H103.09L103.278 95.4451L103.398 95.5476L103.5 95.6672V95.9064V96.0431V96.1798L103.364 96.2994L103.193 96.419H103.09L101.893 95.7184L101.774 95.8551V95.9918V96.1285H101.876H102.013H102.287V96.419H101.791H101.569L101.363 96.3165L101.227 96.2139L101.124 96.0943V95.838" fill="white"/>
<path fill-rule="evenodd" clip-rule="evenodd" d="M94.9017 84.254L94.9361 84.2024L94.9875 84.1853L95.1248 84.1509L95.1763 84.1681L95.2278 84.1853L95.245 84.2712L95.2106 84.3056L95.1591 84.34L95.039 84.3571L94.9704 84.34L94.9189 84.3228L94.9017 84.254Z" fill="white"/>
<path fill-rule="evenodd" clip-rule="evenodd" d="M96.8848 88.3545L96.9191 88.3201L96.9706 88.2857L97.1079 88.2686H97.1765L97.2108 88.3029L97.228 88.3717L97.1937 88.4233L97.1422 88.4404L97.0221 88.4576H96.9534L96.9019 88.4233L96.8848 88.3545Z" fill="white"/>
<path fill-rule="evenodd" clip-rule="evenodd" d="M90.0298 85.6551L90.0641 85.6036L90.1156 85.5864L90.2529 85.552L90.3044 85.5692L90.3559 85.5864L90.373 85.6723L90.3387 85.7067L90.2872 85.7411L90.1671 85.7583L90.0984 85.7411L90.0469 85.7239L90.0298 85.6551Z" fill="white"/>
<path fill-rule="evenodd" clip-rule="evenodd" d="M99.3975 85.6716L99.4317 85.6203L99.5 85.5862L99.671 85.552L99.7565 85.5691L99.8077 85.6033L99.8419 85.6545L99.8248 85.7058L99.7906 85.757L99.7223 85.7912L99.5513 85.8254L99.4658 85.8083L99.4146 85.7741L99.3804 85.7229L99.3975 85.6716Z" fill="white"/>
<path fill-rule="evenodd" clip-rule="evenodd" d="M117.638 99.1528L117.501 99.204L117.364 99.2382L117.227 99.2211L117.108 99.1869L117.022 99.1186L117.005 99.0332L117.039 98.9477L117.142 98.8794L117.261 98.8281L117.415 98.7939L117.552 98.811L117.672 98.8452L117.74 98.9306L117.757 98.999L117.723 99.0844L117.638 99.1528Z" fill="white"/>
<path fill-rule="evenodd" clip-rule="evenodd" d="M105.996 88.6786L105.859 88.7299L105.723 88.7641L105.569 88.747L105.466 88.6957L105.381 88.6274L105.364 88.559L105.415 88.4736L105.5 88.3882L105.62 88.3369L105.774 88.3198L105.911 88.3369L106.03 88.3711L106.099 88.4394L106.116 88.5249L106.082 88.6103L105.996 88.6786Z" fill="white"/>
<path fill-rule="evenodd" clip-rule="evenodd" d="M108.543 90.1481L108.406 90.1994L108.27 90.2165H108.116L108.013 90.1652L107.928 90.0969L107.911 90.0285L107.962 89.9431L108.047 89.8577L108.184 89.8064L108.321 89.7893H108.458L108.577 89.8406L108.646 89.9089L108.663 89.9943L108.629 90.0798L108.543 90.1481Z" fill="white"/>
<path fill-rule="evenodd" clip-rule="evenodd" d="M94.6451 81.1777L94.6793 81.1265L94.7477 81.0923L94.9358 81.0581L95.0212 81.0752L95.0896 81.1094L95.1238 81.1606L95.1067 81.2119L95.0725 81.2631L95.0041 81.3144L94.8161 81.3315L94.7306 81.3144L94.6622 81.2802L94.6281 81.2461L94.6451 81.1777Z" fill="white"/>
<path fill-rule="evenodd" clip-rule="evenodd" d="M85.1233 86.6626L85.1575 86.6113L85.243 86.5601L85.4481 86.5259L85.5336 86.543L85.6019 86.5771L85.6361 86.6284V86.6967L85.5849 86.748L85.5165 86.7993L85.3113 86.8334L85.2088 86.8164L85.1575 86.7651L85.1062 86.7138L85.1233 86.6626Z" fill="white"/>
<path fill-rule="evenodd" clip-rule="evenodd" d="M90.7816 89.2937L90.8329 89.2253L90.9184 89.1741L91.1235 89.1399L91.2261 89.1741L91.2945 89.2082L91.3286 89.2595V89.3278L91.2774 89.3962L91.1919 89.4304L90.9868 89.4645L90.8842 89.4474L90.8158 89.4133L90.7816 89.362V89.2937Z" fill="white"/>
<path fill-rule="evenodd" clip-rule="evenodd" d="M116.954 99.4773L115.193 100.502L114.817 100.28L116.578 99.2722L116.954 99.4773Z" fill="white"/>
<path fill-rule="evenodd" clip-rule="evenodd" d="M107.859 90.4729L106.098 91.481L105.722 91.2759L107.483 90.2507L107.859 90.4729Z" fill="white"/>
<path fill-rule="evenodd" clip-rule="evenodd" d="M103.175 89.7894L104.936 88.7812L105.312 89.0034L103.551 90.0115L103.175 89.7894Z" fill="white"/>
<path fill-rule="evenodd" clip-rule="evenodd" d="M105.158 96.4872L104.799 96.6922L104.27 96.3676L102.868 97.1877L102.475 96.9656L104.235 95.9575L105.158 96.4872Z" fill="white"/>
<path fill-rule="evenodd" clip-rule="evenodd" d="M109.962 95.8551L108.56 96.6753L108.184 96.4532L109.945 95.428L110.851 95.9577L110.509 96.1627L109.962 95.8551Z" fill="white"/>
<path fill-rule="evenodd" clip-rule="evenodd" d="M99.7395 91.5662L99.3463 91.3611L101.107 90.3359L102.03 90.8656L101.671 91.0707L101.141 90.7631L99.7395 91.5662Z" fill="white"/>
<path fill-rule="evenodd" clip-rule="evenodd" d="M105.449 94.2832L105.5 94.2491L105.517 94.2149V94.1807L105.5 94.1295L105.466 94.0953L105.432 94.0611L105.329 93.9586L105.244 93.8902L105.175 93.8219L105.107 93.7535L105.056 93.6681L105.073 93.4973L105.158 93.4118L105.278 93.3264L105.859 93.1897L106.167 93.241L106.475 93.3776L106.611 93.4631L106.714 93.5485L106.765 93.651L106.799 93.7365L106.782 93.8219L106.731 93.9073L106.646 93.9928L106.526 94.0782L106.15 93.8561L106.201 93.8219L106.235 93.7877L106.252 93.7194L106.235 93.6852L106.218 93.651L106.116 93.5827L105.996 93.5314L105.876 93.4973L105.654 93.5485L105.62 93.5827L105.603 93.6169L105.586 93.651L105.603 93.7023L105.637 93.7365L105.688 93.7877L105.791 93.8732L105.859 93.9415L105.945 94.0098L105.996 94.0953L106.047 94.1636L106.03 94.3345L105.962 94.4199L105.825 94.5054L105.244 94.642L104.936 94.5908L104.628 94.437L104.475 94.3516L104.372 94.2661L104.321 94.1636L104.286 94.0782V93.9928L104.338 93.8902L104.423 93.8219L104.543 93.7365L104.919 93.9586L104.868 93.9928L104.834 94.0269L104.816 94.0953L104.834 94.1295L104.868 94.1636L104.97 94.232L105.107 94.3003L105.227 94.3345L105.346 94.3174L105.449 94.2832Z" fill="white"/>
<path fill-rule="evenodd" clip-rule="evenodd" d="M113.945 99.7678L115.997 98.5889L116.373 98.811L116.082 98.9819L116.321 99.1185L115.98 99.3236L115.74 99.1869L114.68 99.7849L114.937 99.9387L114.595 100.144L113.945 99.7678Z" fill="white"/>
<path fill-rule="evenodd" clip-rule="evenodd" d="M106.441 91.686L108.492 90.5071L108.868 90.7121L108.577 90.883L108.834 91.0368L108.475 91.2247L108.236 91.088L107.176 91.7031L107.449 91.8569L107.09 92.0619L106.441 91.686Z" fill="white"/>
<path fill-rule="evenodd" clip-rule="evenodd" d="M102.389 94.5566L102.098 94.7104L102.338 94.8641L101.996 95.0521L101.739 94.9154L100.697 95.5305L100.953 95.6843L100.611 95.8893L99.9615 95.5134L102.013 94.3174L102.389 94.5566Z" fill="white"/>
<path fill-rule="evenodd" clip-rule="evenodd" d="M108.953 93.8047L108.56 94.0268L108.406 93.9584L108.236 93.9413L108.047 93.9926L107.859 94.078L107.723 94.1635L108.013 94.3172L107.654 94.5223L107.381 94.3514L105.962 95.1716L105.586 94.9494L107.483 93.8559L107.688 93.7534L107.877 93.685L108.253 93.5996L108.612 93.6509L108.783 93.7021L108.953 93.8047Z" fill="white"/>
<path fill-rule="evenodd" clip-rule="evenodd" d="M100.287 93.6679L100.116 93.7704L100.475 93.7875L100.782 93.9071L100.919 94.0097L101.004 94.0951L101.022 94.3172L100.97 94.4368L100.868 94.5564L100.714 94.676L100.509 94.8127L99.6369 95.3253L99.2437 95.1032L100.133 94.5906L100.235 94.5222L100.338 94.4539L100.389 94.3856L100.423 94.3172V94.1976L100.372 94.1293L100.304 94.078L100.116 94.0097H99.8933L99.654 94.0609L99.4147 94.1805L98.5257 94.676L98.1497 94.471L99.9104 93.4458L100.287 93.6679Z" fill="white"/>
<path fill-rule="evenodd" clip-rule="evenodd" d="M104.919 92.4889L105.039 92.5744L105.124 92.6769L105.158 92.899L105.09 93.0186L104.987 93.1382L104.834 93.2578L104.628 93.3945L103.757 93.89L103.363 93.6679L104.252 93.1553L104.372 93.0869L104.458 93.0186L104.509 92.9503L104.543 92.8819V92.7623L104.492 92.711L104.423 92.6427L104.235 92.5744H104.013L103.774 92.6256L103.534 92.7452L102.645 93.2578L102.269 93.0357L104.03 92.0105L104.406 92.2497L104.235 92.3351L104.594 92.3522L104.919 92.4889Z" fill="white"/>
<path fill-rule="evenodd" clip-rule="evenodd" d="M118.356 102.314L119.228 101.801L119.347 101.733L119.433 101.664L119.501 101.596L119.535 101.528L119.518 101.408L119.467 101.34L119.399 101.288L119.211 101.22H118.988L118.749 101.271L118.51 101.391L117.621 101.886L117.245 101.681L119.005 100.656L119.381 100.878L119.228 100.981L119.57 100.998L119.894 101.118L120.031 101.203L120.099 101.323L120.134 101.528L120.065 101.647L119.963 101.767L119.809 101.904L119.621 102.023L118.732 102.536L118.356 102.314Z" fill="white"/>
<path fill-rule="evenodd" clip-rule="evenodd" d="M109.141 93.2407L111.774 91.72L112.15 91.925L109.859 93.2578L110.133 93.4115L109.774 93.5995L109.141 93.2407Z" fill="white"/>
<path fill-rule="evenodd" clip-rule="evenodd" d="M95.5171 91.4296L95.8249 91.2929L96.1497 91.1733L96.8334 91.0708H97.1753L97.5001 91.1221L97.8078 91.2075L98.0643 91.3271L98.2865 91.498L98.4404 91.6859L98.4916 92.1131H97.9104L97.8762 91.8226L97.7737 91.6859L97.6198 91.5834L97.4489 91.498L97.2437 91.4467L96.7993 91.4125L96.3206 91.4809L95.9103 91.6517L95.7394 91.7713L95.6026 91.891L95.5171 92.0276L95.483 92.1643L95.5342 92.4206L95.6368 92.5402L95.7736 92.6428L95.9787 92.7282L96.2009 92.7965L96.6967 92.8136V93.1383L96.3206 93.1554L95.9616 93.1212L95.6368 93.0357L95.3462 92.8991L95.124 92.7453L94.9872 92.5744L94.9017 92.1814L94.9701 91.9935L95.0898 91.7884L95.2778 91.6005L95.5171 91.4296Z" fill="white"/>
<path fill-rule="evenodd" clip-rule="evenodd" d="M102.03 89.8577L101.637 90.0798L100.97 89.6868L98.7136 90.9854L98.3033 90.7462L100.543 89.4476L99.8761 89.0717L100.269 88.8325L102.03 89.8577Z" fill="white"/>
<path fill-rule="evenodd" clip-rule="evenodd" d="M111.398 98.2984L112.27 97.7858L112.389 97.7174L112.475 97.6491L112.543 97.5808L112.577 97.5124V97.3928L112.526 97.3415L112.458 97.2903L112.287 97.2219H112.065L111.842 97.2732L111.586 97.3928L110.714 97.9054L110.338 97.6833L111.21 97.1707L111.33 97.1023L111.415 97.034L111.483 96.9656L111.518 96.8973V96.7777L111.466 96.7264L111.398 96.6752L111.227 96.6068H111.005L110.783 96.6581L110.526 96.7948L109.637 97.2903L109.261 97.0682L111.022 96.0601L111.415 96.2822L111.244 96.3676L111.586 96.3847L111.894 96.5043L112.03 96.6239L112.116 96.7435L112.133 96.8631L112.065 96.9998L112.304 96.9827H112.543L112.954 97.1194L113.073 97.2048L113.159 97.3074L113.176 97.5295L113.125 97.6491L113.022 97.7687L112.868 97.8883L112.663 98.025L111.774 98.5205L111.398 98.2984Z" fill="white"/>
<path fill-rule="evenodd" clip-rule="evenodd" d="M115.381 105.458L113.073 104.125L113.415 103.937L115.432 105.099L119.108 102.98L119.381 103.151L115.381 105.458Z" fill="white"/>
<path fill-rule="evenodd" clip-rule="evenodd" d="M99.5686 88.2515L103.586 85.9448L105.894 87.2776L105.552 87.4655L103.535 86.3036L99.8592 88.4224L99.5686 88.2515Z" fill="white"/>
<path fill-rule="evenodd" clip-rule="evenodd" d="M294.928 207.242L295.44 203.209L297.611 204.457L297.099 208.506L290.09 208.796L287.936 207.532L294.928 207.242Z" fill="white"/>
<path fill-rule="evenodd" clip-rule="evenodd" d="M286.859 202.355L288.774 203.448H288.91H289.064H289.406H289.577H289.731H289.885L290.774 202.936H290.893L290.979 202.833V202.731V202.543H290.876L288.962 201.449L286.893 202.645M288.705 199.587L292.859 201.996L293.064 202.133L293.235 202.269L293.372 202.44L293.458 202.611V202.799V203.158V203.363L293.355 203.551L293.218 203.722L293.047 203.91L292.842 204.064L292.603 204.217L291.714 204.73L291.457 204.867L291.184 204.986L290.876 205.089H290.551H290.227H289.902H289.252H288.927H288.637H288.363L288.107 204.986L287.868 204.867L285.44 203.466L282.944 204.918L281.235 203.91L288.756 199.57" fill="white"/>
<path fill-rule="evenodd" clip-rule="evenodd" d="M280.995 194.888L287.85 198.818L286.38 199.672L283.816 198.203L277.782 201.689L276.055 200.68L282.09 197.212L279.525 195.725L280.995 194.888Z" fill="white"/>
<path fill-rule="evenodd" clip-rule="evenodd" d="M270.943 197.742L278.448 193.402L280.192 194.41L272.67 198.733L270.943 197.742Z" fill="white"/>
<path fill-rule="evenodd" clip-rule="evenodd" d="M217.369 162.304L217.864 158.272L220.035 159.519L219.523 163.569L212.531 163.859L210.36 162.595L217.369 162.304Z" fill="white"/>
<path fill-rule="evenodd" clip-rule="evenodd" d="M209.249 157.401L211.163 158.511H211.283H211.437H211.779H211.949H212.12H212.257L213.146 157.999H213.266L213.351 157.896V157.794V157.691V157.589H213.249L211.334 156.495L209.283 157.674M210.992 154.633L215.163 157.042L215.351 157.178L215.522 157.315L215.659 157.486V157.657V157.828V158.016V158.204V158.409L215.556 158.58L215.42 158.767L215.232 158.938L215.027 159.109L214.787 159.263L213.915 159.776L213.642 159.912L213.368 160.015L213.061 160.117H212.753H212.428H212.086H211.437H211.129H210.821H210.548H210.291L210.052 159.998L207.625 158.597L205.129 160.032L203.419 159.041L210.924 154.701" fill="white"/>
<path fill-rule="evenodd" clip-rule="evenodd" d="M203.436 149.934L210.274 153.881L208.804 154.735L206.24 153.266L200.206 156.751L198.479 155.743L204.513 152.258L201.949 150.788L203.436 149.934Z" fill="white"/>
<path fill-rule="evenodd" clip-rule="evenodd" d="M193.367 152.787L200.872 148.464L202.616 149.455L195.094 153.795L193.367 152.787Z" fill="white"/>
</svg>
