<svg width="391" height="225" viewBox="0 0 391 225" fill="none" xmlns="http://www.w3.org/2000/svg">
<g clip-path="url(#clip0_1_1928)">
<path opacity="0.25" fill-rule="evenodd" clip-rule="evenodd" d="M125.068 71.9661L156.335 53.9746L265.932 117.051L328.466 81.0677L218.868 17.9915L250.135 0L391 81.0677L359.733 99.0593L265.932 153.034L234.665 135.042L156.335 89.9577L62.5339 143.932L172.131 207.008L140.865 225L31.2669 161.924L0 143.932L125.068 71.9661Z" fill="#EC6F2D"/>
<path fill-rule="evenodd" clip-rule="evenodd" d="M132.958 83.9007L139.378 87.5967L149.653 93.5233L119.726 110.733L94.8953 96.4541L124.823 79.2278L132.958 83.9007Z" fill="#EC6F2D"/>
<path fill-rule="evenodd" clip-rule="evenodd" d="M109.189 70.2403L115.609 73.9363L124.823 79.2279L87.3808 100.769L62.5502 86.4734L99.9921 64.9324L109.189 70.2403Z" fill="#EC6F2D"/>
<path fill-rule="evenodd" clip-rule="evenodd" d="M84.3586 55.9447L90.7786 59.6407L99.9921 64.9323L62.5502 86.4733L37.7196 72.1941L75.1452 50.6531L84.3586 55.9447Z" fill="#EC6F2D"/>
<path opacity="0.5" fill-rule="evenodd" clip-rule="evenodd" d="M78.347 37.7253L71.927 34.0293L62.2888 28.4772L99.7471 6.91992L125.443 21.7039L87.9852 43.2612L78.347 37.7253Z" fill="#EC6F2D"/>
<path opacity="0.5" fill-rule="evenodd" clip-rule="evenodd" d="M202.925 100.736L196.505 97.0403L194.855 96.0959L224.782 78.8696L234.502 84.4543L204.575 101.681L202.925 100.736Z" fill="#EC6F2D"/>
<path fill-rule="evenodd" clip-rule="evenodd" d="M316.035 131.379L278.56 152.936L275.358 151.08L266.145 145.788L303.619 124.231L316.035 131.379Z" fill="#EC6F2D"/>
<path fill-rule="evenodd" clip-rule="evenodd" d="M306.609 169.072L300.189 165.376L290.992 160.084L328.45 138.527L353.28 152.806L315.822 174.363L306.609 169.072Z" fill="#EC6F2D"/>
<path fill-rule="evenodd" clip-rule="evenodd" d="M331.88 183.611L325.444 179.915L315.822 174.363L353.28 152.806L378.977 167.59L341.519 189.147L331.88 183.611Z" fill="#EC6F2D"/>
<path fill-rule="evenodd" clip-rule="evenodd" d="M278.397 210.688L315.838 189.147L319.04 190.987L328.678 196.539L291.253 218.08L278.397 210.688Z" fill="#EC6F2D"/>
<path opacity="0.5" fill-rule="evenodd" clip-rule="evenodd" d="M278.152 167.46L240.71 189.001L228.294 181.853L215.879 174.705L253.321 153.164L256.31 154.89L262.73 158.586L265.736 160.312L268.726 162.038L275.146 165.734L278.152 167.46Z" fill="#EC6F2D"/>
<path fill-rule="evenodd" clip-rule="evenodd" d="M119.726 110.733L142.171 97.8218L167.002 112.117L144.556 125.029L119.726 110.733Z" fill="#EC6F2D"/>
<path fill-rule="evenodd" clip-rule="evenodd" d="M351.01 164.496L351.222 164.578L351.418 164.708L351.581 165.083L351.402 165.425L351.14 165.506L350.83 165.473L350.618 165.441H350.389L350.128 165.555L349.882 165.718L349.605 165.897L349.294 165.994L348.935 165.864L348.853 165.555L348.968 165.408L349.115 165.294L349.262 165.197L349.376 165.05V164.855L349.229 164.741L348.723 164.757L348.478 164.936L347.693 165.164L347.448 165.18L347.236 165.229L347.007 165.522L347.024 165.864L347.138 166.239L347.269 166.629L347.334 167.02L347.252 167.411L346.926 167.623L346.403 167.574L345.717 167.395L344.41 167.069L343.675 167.085L342.629 167.606L341.666 168.144L341.045 168.388L340.506 169.055L340.457 169.153H340.44H340.424V169.137V169.121L340.408 169.055V168.99V168.779L340.391 168.437L339.934 167.932H339.624L339.264 168.013L338.741 168.339L338.3 168.779L338.137 168.681L337.696 168.323L338.317 167.753L339.901 166.662L341.796 165.75L343.855 165.066L348.216 164.415L350.389 164.448L351.01 164.496Z" fill="white"/>
<path fill-rule="evenodd" clip-rule="evenodd" d="M357.381 166.971L358.279 168.078L358.835 169.853L353.95 171.123L351.761 171.204V170.781L351.843 170.358L352.153 170.048L352.398 169.951L352.66 169.886L353.378 169.495L354.326 169.12L355.584 168.925L355.878 168.827L356.025 168.811L356.139 168.827L356.27 169.006L356.303 169.169L356.335 169.316L356.401 169.446L356.531 169.511H356.678L357.005 169.609L357.136 169.658H357.266L357.315 169.609L357.364 169.56L357.397 169.527L357.479 169.462L357.56 169.446L357.658 169.479L357.854 169.593L358.034 169.723L358.23 169.772L358.443 169.658L358.524 169.316L358.426 169.153L358.246 169.104L358.165 169.12H358.099L358.001 169.055L357.92 168.958L357.854 168.746L357.822 168.664L357.805 168.632V168.616L357.773 168.599L357.756 168.616L357.74 168.632L357.675 168.746L357.626 168.86L357.528 168.941L357.364 168.925L357.283 168.844L357.217 168.73L357.021 168.42L356.776 168.29H356.629L356.564 168.306L356.548 168.323V168.339V168.355L356.564 168.371L356.58 168.388L356.678 168.437L356.923 168.616L357.038 168.73L357.103 168.876L357.087 169.023L356.923 169.169L356.711 169.104L356.629 168.941V168.795L356.646 168.681L356.613 168.55L356.499 168.42L356.368 168.323L356.106 168.127L355.845 167.932L355.502 167.883L355.159 168.078L354.898 168.371L354.587 168.697L354.163 168.892L353.721 168.811L353.525 168.599L353.329 168.29L353.297 168.127L353.362 167.981L353.591 167.85H353.77L353.983 167.932L354.146 167.997L354.31 168.013L354.489 167.981L354.538 167.915L354.555 167.834L354.506 167.753L354.408 167.688L354.31 167.622L354.244 167.525L354.228 167.362L354.375 167.15L354.522 167.069L354.685 167.02L354.849 166.971L354.996 166.89L355.077 166.808V166.694L354.979 166.564L354.898 166.532L354.669 166.45L354.408 166.352L354.244 166.19L354.195 166.027L354.179 165.88L354.163 165.701L354.146 165.571L354.163 165.424L354.179 165.343L354.212 165.294L354.261 165.278H354.31L354.359 165.31L354.473 165.392L354.636 165.522L354.832 165.603L355.012 165.62L355.192 165.571L356.057 165.994L357.381 166.971Z" fill="white"/>
<path fill-rule="evenodd" clip-rule="evenodd" d="M342.025 177.18L341.845 177.082L341.322 176.692L341.061 176.382L340.816 175.943L340.62 175.584L340.391 175.259L339.852 174.868L339.281 174.428L339.052 174.103L338.888 173.728L338.3 172.865L337.435 172.263L337.99 172.426L341.502 173.256L346.06 173.973L346.044 174.461L345.75 174.884L345.194 175.161L344.377 175.584L343.364 176.089L342.613 176.447L342.319 176.692L342.188 177.001L342.221 177.229L342.025 177.18Z" fill="white"/>
<path fill-rule="evenodd" clip-rule="evenodd" d="M354.898 175.291L353.003 176.203L350.928 176.887L349.703 177.18L350.993 176.203L351.516 175.682L351.941 175.47L352.431 175.324L353.084 175.112L353.525 174.787L353.934 174.103L355.306 173.891L357.56 173.142L356.482 174.2L354.898 175.291Z" fill="white"/>
<path fill-rule="evenodd" clip-rule="evenodd" d="M281.778 154.776L278.56 152.936L316.035 131.379L328.45 138.527L290.992 160.084L281.778 154.776Z" fill="#EC6F2D"/>
<path fill-rule="evenodd" clip-rule="evenodd" d="M86.0739 78.7395L83.5745 77.3067L80.9118 78.8372L83.6889 80.4328L82.8884 80.8887L79.2782 78.8209L86.6784 74.5713L90.1416 76.5577L89.3411 77.0136L86.711 75.4994L84.3587 76.8508L86.8581 78.2836L86.0739 78.7395Z" fill="white"/>
<path fill-rule="evenodd" clip-rule="evenodd" d="M92.1835 77.73L84.7833 81.9796L83.9666 81.5074L91.3504 77.2578L92.1835 77.73Z" fill="white"/>
<path fill-rule="evenodd" clip-rule="evenodd" d="M86.3516 82.2401L95.9081 80.8399L95.9408 80.8236L92.69 78.9512L93.4904 78.479L97.8194 80.9701L97.2313 81.3121L87.7238 82.7123L87.6912 82.7286L91.2687 84.7964L90.4683 85.2686L85.7962 82.5658L86.3516 82.2401Z" fill="white"/>
<path fill-rule="evenodd" clip-rule="evenodd" d="M98.2768 85.757L95.7938 84.3242L93.1147 85.8547L95.8918 87.4666L95.0913 87.9225L91.4974 85.8547L98.8813 81.5889L102.344 83.5753L101.544 84.0474L98.9139 82.5332L96.5779 83.8683L99.061 85.3011L98.2768 85.757Z" fill="white"/>
<path fill-rule="evenodd" clip-rule="evenodd" d="M103.57 84.2754L104.403 84.7639L100.825 86.8154L100.858 86.8317L101.528 86.734L102.148 86.6688L106.886 86.1967L107.915 86.7828L102.459 87.255L100.695 91.1464L99.7144 90.5765L101.234 87.2713L99.8124 87.3852L97.0026 89.0134L96.1695 88.5413L103.57 84.2754Z" fill="white"/>
<path fill-rule="evenodd" clip-rule="evenodd" d="M125.296 100.948L125.068 100.802L124.888 100.622L124.774 100.443L124.708 100.248V100.069L124.79 99.8734L124.937 99.6943L125.166 99.5152H125.247L125.885 99.8897H125.901V99.906V99.9223L125.885 99.9386L125.754 100.02L125.688 100.101L125.656 100.28L125.688 100.378L125.737 100.46L125.819 100.525L125.917 100.59L126.195 100.704L126.473 100.769L126.734 100.753L126.963 100.671L127.028 100.622L127.077 100.557L127.11 100.427L127.093 100.346L127.044 100.264L126.963 100.15L126.832 100.036L126.652 99.8734L126.489 99.7269L126.342 99.5641L126.293 99.4827L126.26 99.4013L126.244 99.2385L126.293 99.0756L126.358 98.9942L126.44 98.9128L126.554 98.8314L126.685 98.75L126.93 98.6523L127.191 98.5709L127.469 98.5383H127.779L128.368 98.6523L128.645 98.75L128.907 98.8802L129.119 99.0105L129.282 99.1733L129.413 99.3524L129.462 99.5315V99.6943L129.38 99.8734L129.25 100.036L129.152 100.118L129.021 100.199L128.988 100.215L128.939 100.199L128.302 99.8409L128.286 99.8246V99.8083V99.792L128.302 99.7758L128.433 99.6943L128.498 99.6292L128.531 99.5478V99.4827L128.498 99.4013L128.433 99.3524L128.368 99.2873L128.286 99.2385L128.074 99.1408L127.845 99.0756L127.616 99.0919L127.404 99.157L127.322 99.2222L127.273 99.271L127.24 99.4013L127.273 99.4664L127.322 99.5478L127.404 99.6292L127.502 99.7106L127.698 99.8897L127.877 100.053L128.041 100.215L128.09 100.297L128.123 100.394L128.155 100.476V100.557L128.106 100.736L128.041 100.818L127.943 100.899L127.828 100.981L127.681 101.078L127.42 101.192L127.126 101.257L126.832 101.29H126.505L125.868 101.192L125.574 101.095L125.296 100.948Z" fill="white"/>
<path fill-rule="evenodd" clip-rule="evenodd" d="M128.776 102.137L129.217 102.299H129.707H129.968L130.246 102.218L130.508 102.104L130.785 101.957L131.03 101.795L131.226 101.648L131.357 101.502V101.42V101.274V101.143H131.275H131.177L130.981 100.948H130.753H130.524H130.295H130.05L129.789 101.062L129.527 101.208L129.266 101.355L129.054 101.518L128.907 101.664V101.86M125.819 102.381L130.524 99.678L131.128 100.02L130.638 100.28L131.014 100.199H131.373L131.749 100.28L132.125 100.443L132.272 100.541L132.403 100.655L132.517 100.753L132.599 100.867V101.078V101.306V101.436V101.55V101.664L132.501 101.795L132.37 101.909L132.223 102.023L131.847 102.267L131.014 102.641L130.589 102.755H130.165H129.756H129.348L128.972 102.658L128.613 102.495L128.449 102.364L128.237 102.576V102.462V102.348V102.234V102.12V101.99L128.351 101.876L126.407 103.048H126.277L125.786 102.706" fill="white"/>
<path fill-rule="evenodd" clip-rule="evenodd" d="M134.543 103.651H134.657H134.771V103.553V103.455V103.26V103.162H134.641L134.363 103.048H134.052H133.954H133.758H133.562H133.35L134.575 103.748M131.161 103.862V103.748V103.618V103.504L131.259 103.39L131.39 103.26L131.537 103.146L131.912 102.902L132.746 102.527L133.17 102.413H133.595H134.02H134.412L134.788 102.527L135.147 102.69L135.294 102.788L135.425 102.886L135.523 102.983V103.097V103.325V103.553V103.667V103.797L135.425 103.911L135.327 104.042L135.033 104.269L134.673 104.514H134.543L132.566 103.374L132.305 103.553L132.108 103.7L131.961 103.846V103.96V104.074V104.172L132.321 104.204L132.648 104.335H132.991H133.154H133.35H133.53H133.742H133.856L134.396 104.644L133.693 104.872H132.991H132.337L131.716 104.628L131.569 104.53L131.439 104.432L131.324 104.318L131.21 104.204V103.976V103.748" fill="white"/>
<path fill-rule="evenodd" clip-rule="evenodd" d="M136.895 106.028L137.499 106.37L137.516 106.386V106.402V106.419L137.483 106.435L137.124 106.565L136.764 106.663L136.421 106.712L136.078 106.728L135.735 106.712L135.408 106.663L134.804 106.419L134.641 106.321L134.51 106.223L134.412 106.109L134.33 106.012L134.232 105.784L134.249 105.556L134.281 105.442L134.33 105.311L134.412 105.198L134.526 105.084L134.657 104.953L134.804 104.839L135.18 104.595L136.013 104.221L136.438 104.107L136.862 104.042H137.271L137.679 104.074L138.055 104.188L138.398 104.351L138.643 104.514L138.823 104.693L138.937 104.888L138.986 105.084L138.953 105.295L138.855 105.491L138.676 105.686L138.431 105.881L138.365 105.914L138.3 105.898L137.695 105.556L137.679 105.539V105.523V105.491L137.695 105.474L137.826 105.36L137.924 105.246L137.989 105.149L138.006 105.051L137.973 104.856L137.891 104.774L137.777 104.709L137.597 104.628L137.385 104.579L137.173 104.563L136.944 104.595L136.683 104.66L136.438 104.742L136.16 104.872L135.898 105.018L135.637 105.165L135.441 105.311L135.294 105.458L135.245 105.523L135.212 105.588L135.18 105.719L135.196 105.833L135.229 105.898L135.278 105.946L135.343 106.012L135.425 106.06L135.719 106.174L136.029 106.207L136.209 106.191L136.389 106.158L136.568 106.093L136.781 106.028L136.846 106.012L136.895 106.028Z" fill="white"/>
<path fill-rule="evenodd" clip-rule="evenodd" d="M140.554 106.337L138.496 107.509L138.463 107.542L138.431 107.575L138.398 107.607V107.623L138.414 107.689L138.431 107.721L138.48 107.737L139.068 108.079L139.084 108.096V108.112V108.128L139.051 108.144L138.578 108.421L138.496 108.454L138.447 108.438L137.728 108.031L137.581 107.917L137.467 107.803L137.418 107.689L137.401 107.558L137.45 107.428L137.532 107.314L137.679 107.184L137.859 107.054L139.819 105.93L139.378 105.702L139.362 105.686L139.345 105.67L139.362 105.653L139.378 105.621L139.868 105.344L139.933 105.328L139.999 105.344L140.375 105.605L141.175 105.149L141.24 105.132L141.306 105.149L141.91 105.491L141.926 105.507V105.523V105.539L141.894 105.556L141.11 106.012L141.91 106.435L141.926 106.451V106.467V106.5L141.894 106.516L141.404 106.793L141.338 106.809L141.273 106.793L140.554 106.337Z" fill="white"/>
<path fill-rule="evenodd" clip-rule="evenodd" d="M144.23 107.851L143.74 108.128L143.674 108.144H143.609L143.299 107.965L142.841 107.786L142.596 107.77H142.351L142.09 107.819L141.845 107.884L141.338 108.112L139.672 109.056L139.607 109.089L139.541 109.073L138.953 108.731L138.921 108.714V108.682L138.937 108.665L138.953 108.649L142.286 106.744L142.351 106.712L142.416 106.728L143.005 107.07L143.037 107.086V107.119L143.021 107.135L143.005 107.151L142.384 107.461L142.596 107.396L142.792 107.363L143.168 107.347L143.544 107.428L143.723 107.509L143.919 107.607L144.23 107.786L144.262 107.803V107.819L144.246 107.835L144.23 107.851Z" fill="white"/>
<path fill-rule="evenodd" clip-rule="evenodd" d="M142.776 110.212L142.874 110.326L143.005 110.424L143.168 110.505H143.364H143.576H143.756H144.017H144.279L144.573 110.391L144.867 110.245L145.128 110.066L145.324 109.903L145.471 109.74V109.577V109.447V109.317V109.203L145.39 109.089H145.226H145.03H144.556H144.279H144.001L143.707 109.203L143.413 109.366L143.152 109.528L142.956 109.691L142.841 109.854V109.984V110.245M141.796 109.903V109.773V109.659L141.877 109.545L141.975 109.414L142.106 109.301L142.269 109.187L142.629 108.942L143.478 108.568L143.903 108.454H144.328H144.736H145.128L145.504 108.552L145.863 108.714L146.027 108.828L146.157 108.942L146.239 109.056V109.154V109.268V109.382V109.496L146.141 109.61L146.647 109.301L147.236 109.642L143.968 111.564H143.838L143.25 111.222L143.74 110.961L143.364 111.043H143.005H142.645L142.269 110.88L142.122 110.717L141.992 110.619L141.894 110.505L141.812 110.408L141.714 110.18V109.952" fill="white"/>
<path fill-rule="evenodd" clip-rule="evenodd" d="M123.712 96.7798L122.879 97.0728L122.617 97.3496L121.882 96.9263L122.356 96.7798L122.879 96.2913L124.61 95.2981L125.443 95.7866L123.712 96.7798Z" fill="white"/>
<path fill-rule="evenodd" clip-rule="evenodd" d="M121.621 97.9846L119.889 98.9778L119.056 98.4893L120.788 97.4961L121.621 97.2031L121.882 96.9263L122.617 97.3496L122.144 97.4961L121.621 97.9846Z" fill="white"/>
<path fill-rule="evenodd" clip-rule="evenodd" d="M123.352 97.6589L122.585 97.4147L122.062 97.4635L122.438 96.8123L122.846 96.9588L123.777 96.9262L125.933 97.1705L125.509 97.9031L123.352 97.6589Z" fill="white"/>
<path fill-rule="evenodd" clip-rule="evenodd" d="M120.722 97.3497L118.566 97.1055L118.991 96.3728L121.147 96.617L121.915 96.8613L122.438 96.8124L122.062 97.4637L121.654 97.3172L120.722 97.3497Z" fill="white"/>
<path fill-rule="evenodd" clip-rule="evenodd" d="M121.359 96.5029L120.918 95.2655L122.193 95.0212L122.617 96.2587L122.552 96.796L122.813 97.0239L121.686 97.2519L121.768 96.9425L121.359 96.5029Z" fill="white"/>
<path fill-rule="evenodd" clip-rule="evenodd" d="M121.882 98.0171L121.948 97.4798L121.686 97.2519L122.813 97.0239L122.732 97.3333L123.14 97.7729L123.581 99.0103L122.307 99.2545L121.882 98.0171Z" fill="white"/>
<path fill-rule="evenodd" clip-rule="evenodd" d="M103.619 52.265L97.1825 48.5528L87.9854 43.2611L125.444 21.7039L150.274 35.9994L112.816 57.5567L103.619 52.265Z" fill="#EC6F2D"/>
<path fill-rule="evenodd" clip-rule="evenodd" d="M134.657 70.1262L128.237 66.4302L112.816 57.5565L150.274 35.9993L175.121 50.2785L137.647 71.8521L134.657 70.1262Z" fill="#EC6F2D"/>
<path fill-rule="evenodd" clip-rule="evenodd" d="M171.903 91.5534L165.483 87.8574L162.477 86.1315L199.952 64.5742L224.782 78.8698L187.324 100.427L171.903 91.5534Z" fill="#EC6F2D"/>
<path fill-rule="evenodd" clip-rule="evenodd" d="M162.477 86.1314L150.062 78.9836L137.646 71.8521L175.121 50.2786L199.952 64.5741L162.477 86.1314Z" fill="#EC6F2D"/>
<path fill-rule="evenodd" clip-rule="evenodd" d="M157.364 66.072L159.782 64.6881H161.415L160.174 67.7816L161.807 68.7423L163.441 64.5741L169.42 64.2647L167.688 63.2715L161.726 63.5809L165.091 61.6271L163.621 60.7804L155.91 65.2254L157.38 66.072M149.98 64.5252L165.826 59.3313L173.324 63.646L160.893 70.8101L149.964 64.5252" fill="white"/>
<path fill-rule="evenodd" clip-rule="evenodd" d="M149 56.6611L149.278 56.7914H149.604H149.98H150.356L150.715 56.6937L151.026 56.5471L151.287 56.368L151.45 56.1564L151.532 55.9447V55.733L151.418 55.5377L151.205 55.3748L149.572 54.3979L147.383 55.6516L149.016 56.6286M149.539 52.6558L152.806 54.577L153.149 54.8213L153.411 55.0981L153.574 55.4074V55.733V56.075L153.443 56.4006L153.198 56.7262L152.872 57.0356L152.463 57.3124L152.006 57.5566L151.467 57.752L150.911 57.8823L150.323 57.98H149.735H149.163L148.657 57.9311L147.53 60.4385L145.896 59.4779L146.893 57.2473L145.733 56.5634L143.282 57.98L141.796 57.117L149.506 52.6883" fill="white"/>
<path fill-rule="evenodd" clip-rule="evenodd" d="M156.073 56.4495L161.562 59.6082L160.01 60.5037L158.017 59.3477L151.842 62.8971L150.372 62.0342L156.531 58.4847L154.521 57.345L156.073 56.4495Z" fill="white"/>
<path fill-rule="evenodd" clip-rule="evenodd" d="M232.117 126.201L225.68 122.505L216.483 117.214L253.942 95.6562L278.789 109.935L241.314 131.493L232.117 126.201Z" fill="#EC6F2D"/>
<path fill-rule="evenodd" clip-rule="evenodd" d="M256.947 140.497L250.511 136.801L241.314 131.493L278.789 109.936L303.619 124.231L266.145 145.788L256.947 140.497Z" fill="#EC6F2D"/>
<path fill-rule="evenodd" clip-rule="evenodd" d="M253.223 118.549L262.404 113.273L261.995 116.546L252.815 121.838L250.152 120.307L250.577 117.035L253.223 118.549Z" fill="white"/>
<path fill-rule="evenodd" clip-rule="evenodd" d="M252.406 125.127L270.751 114.56L270.343 117.849L251.981 128.399L249.335 126.885L249.743 123.596L252.406 125.127Z" fill="white"/>
<path fill-rule="evenodd" clip-rule="evenodd" d="M263.825 124.655L269.935 121.121L269.526 124.41L263.4 127.927L260.754 126.413L261.162 123.124L263.825 124.655Z" fill="white"/>
<path fill-rule="evenodd" clip-rule="evenodd" d="M312.637 146.13L317.913 149.175L316.1 150.217L312.8 148.312L311.313 149.159L314.156 150.787L312.441 151.764L309.614 150.136L306.168 152.106L304.207 150.982L312.637 146.13Z" fill="white"/>
<path fill-rule="evenodd" clip-rule="evenodd" d="M312.833 152.822L313.829 153.294L313.584 153.506L313.372 153.685L313.208 153.881L313.094 154.076L313.029 154.45L313.078 154.662L313.176 154.874L313.323 155.085L313.519 155.281L313.764 155.476L314.042 155.655L315.218 156.111L315.806 156.193L316.361 156.176L316.868 156.062L317.292 155.883L317.472 155.769L317.619 155.639L317.717 155.509L317.782 155.362L317.815 155.216L317.799 155.053L317.733 154.89L317.635 154.695L317.505 154.548L317.325 154.336L317.064 154.06L316.737 153.718L316.41 153.359L316.149 153.066L315.969 152.806L315.904 152.692L315.855 152.594L315.773 152.366L315.757 152.138L315.855 151.699L315.985 151.503L316.165 151.308L316.394 151.129L316.655 150.95L316.982 150.787L317.341 150.64L317.733 150.526L318.158 150.445L319.04 150.38L319.922 150.478L320.772 150.722L321.556 151.096L321.915 151.324L322.242 151.568L322.487 151.829L322.683 152.089L322.798 152.35L322.847 152.611L322.83 152.887L322.749 153.148L322.585 153.408L322.373 153.653L322.111 153.897L321.768 154.125L320.772 153.636L320.935 153.506L321.082 153.376L321.213 153.262L321.311 153.132L321.376 153.018L321.425 152.887L321.474 152.643L321.409 152.399L321.344 152.285L321.246 152.171L321.115 152.041L320.968 151.927L320.805 151.796L320.609 151.682L320.168 151.454L319.759 151.292L319.351 151.194L318.959 151.161H318.583L318.24 151.227L317.946 151.308L317.668 151.438L317.456 151.568L317.325 151.715L317.227 151.878L317.194 152.041L317.211 152.122L317.243 152.236L317.309 152.35L317.407 152.497L317.521 152.659L317.668 152.822L318.044 153.213L318.452 153.62L318.763 153.962L318.991 154.239L319.073 154.353L319.122 154.467L319.253 154.727L319.302 155.004L319.22 155.492L319.073 155.72L318.877 155.948L318.632 156.16L318.322 156.355L317.962 156.534L317.586 156.681L317.162 156.811L316.721 156.893L315.773 156.974L314.826 156.876L313.911 156.632L313.094 156.258L312.637 155.981L312.261 155.688L311.967 155.395L311.771 155.118L311.64 154.825L311.591 154.532L311.607 154.239L311.722 153.929L311.902 153.636L312.147 153.359L312.457 153.083L312.833 152.822Z" fill="white"/>
<path fill-rule="evenodd" clip-rule="evenodd" d="M322.83 154.483L324.725 153.376L324.121 153.018L324.366 152.871L325.852 153.734L325.591 153.881L324.97 153.522L323.075 154.613L322.83 154.483Z" fill="white"/>
<path fill-rule="evenodd" clip-rule="evenodd" d="M323.696 154.971L325.852 153.734L326.228 153.946L325.134 155.085L324.905 155.313L325.346 155.183L327.306 154.564L327.633 154.76L325.477 155.997L325.232 155.867L327.045 154.825L324.693 155.557L324.464 155.427L325.771 154.06L323.925 155.118L323.696 154.971Z" fill="white"/>
<path fill-rule="evenodd" clip-rule="evenodd" d="M211.582 137.762L218.002 141.458L221.008 143.183L198.563 156.111L186.147 148.963L208.593 136.036L211.582 137.762Z" fill="#EC6F2D"/>
<path fill-rule="evenodd" clip-rule="evenodd" d="M237.687 144.176L244.107 147.872L253.321 153.18L223.394 170.39L198.563 156.111L221.009 143.183L228.49 138.885L237.687 144.176Z" fill="#EC6F2D"/>
<path fill-rule="evenodd" clip-rule="evenodd" d="M212.89 148.898L222.07 143.623L221.662 146.912L212.481 152.187L209.818 150.673L210.227 147.384L212.89 148.898Z" fill="white"/>
<path fill-rule="evenodd" clip-rule="evenodd" d="M212.073 155.476L230.418 144.909L230.009 148.198L211.648 158.765L209.001 157.235L209.41 153.946L212.073 155.476Z" fill="white"/>
<path fill-rule="evenodd" clip-rule="evenodd" d="M223.492 155.004L229.601 151.487L229.193 154.776L223.067 158.293L220.42 156.762L220.829 153.473L223.492 155.004Z" fill="white"/>
<path fill-rule="evenodd" clip-rule="evenodd" d="M287.512 137.42V137.224L287.365 137.045L287.153 136.899L286.891 136.785L286.581 136.703H286.238H285.878H285.519H285.176L284.866 136.817L284.588 136.98L287.577 137.322M283.216 137.615V137.354L283.379 137.11L283.608 136.866L283.902 136.654L284.245 136.475L284.621 136.312L285.029 136.182H285.47H285.911H286.352H286.777L287.169 136.28L287.512 136.394L287.822 136.557L288.067 136.736L288.247 136.964L288.361 137.192V137.436V137.696L288.247 137.957L284.081 137.468V137.648V137.827V137.989L284.163 138.152L284.31 138.299L284.49 138.429L284.735 138.559L285.029 138.657H285.339H285.682H286.401L285.748 139.227H285.29H284.882L284.49 139.129L284.13 138.983L283.82 138.82L283.559 138.624L283.363 138.429L283.232 138.185V137.941V137.696" fill="white"/>
<path fill-rule="evenodd" clip-rule="evenodd" d="M287.659 139.927L287.757 140.106L287.92 140.253L288.133 140.383L288.41 140.48H288.705H289.358H289.685L289.995 140.383L290.273 140.253L290.501 140.09L290.681 139.911L290.779 139.732V139.536V139.341L290.681 139.178L290.518 139.015L290.305 138.901L290.044 138.803H289.734H289.407H289.08H288.754L288.443 138.901L288.165 139.031L287.937 139.194L287.757 139.357L287.659 139.552V139.748V139.927ZM286.597 139.666L286.695 139.406L286.842 139.178L287.071 138.95L287.332 138.738L287.659 138.543L288.035 138.38L288.427 138.266L288.852 138.168H289.276H289.701H290.126H290.518L290.861 138.282L291.188 138.429L291.449 138.592L291.645 138.787L291.792 139.015V139.243V139.487L293.703 138.38L294.357 138.673L289.146 141.783L288.508 141.49L289.097 141.148H288.672H288.263H287.871L287.528 141.034L287.234 140.888L286.989 140.708L286.81 140.497L286.679 140.269V140.041V139.797" fill="white"/>
<path fill-rule="evenodd" clip-rule="evenodd" d="M289.244 138.966H289.521L289.783 139.015L290.011 139.08L290.191 139.178L290.322 139.308L290.371 139.471V139.618L290.305 139.78L290.175 139.927L289.979 140.073L289.75 140.171L289.489 140.253L289.211 140.285L288.933 140.301L288.672 140.253L288.443 140.187L288.263 140.073L288.133 139.943L288.084 139.797V139.634L288.149 139.487L288.28 139.325L288.476 139.194L288.705 139.08L288.966 139.015L289.244 138.966Z" fill="white"/>
<path fill-rule="evenodd" clip-rule="evenodd" d="M291.122 141.392L293.524 139.992L294.177 140.285L291.694 141.718L291.514 141.848L291.384 141.995L291.318 142.141V142.288L291.384 142.434L291.498 142.564L291.678 142.662L291.89 142.727L292.135 142.76H292.396L292.658 142.727L292.919 142.646L293.132 142.548L295.549 141.164L296.203 141.457L292.364 143.655L291.71 143.362L292.053 143.167L291.727 143.151L291.416 143.102L291.139 143.004L290.91 142.89L290.714 142.76L290.567 142.597L290.485 142.418L290.469 142.239L290.501 142.06L290.583 141.881L290.714 141.702L290.894 141.539L291.122 141.392Z" fill="white"/>
<path fill-rule="evenodd" clip-rule="evenodd" d="M279.654 139.341L280.586 138.803L281.288 139.064L280.243 139.666L281.141 140.171L280.471 140.562L279.573 140.041L277.759 141.099L277.563 141.229L277.449 141.376L277.384 141.539V141.685L277.449 141.832L277.596 141.962L277.792 142.06L278.021 142.125L277.253 142.402L276.992 142.288L276.796 142.141L276.632 141.978L276.551 141.783L276.534 141.604L276.567 141.425L276.649 141.246L276.779 141.067L276.959 140.904L277.171 140.757L279.001 139.715L278.642 139.504L278.511 139.438L279.295 139.129L279.654 139.341Z" fill="white"/>
<path fill-rule="evenodd" clip-rule="evenodd" d="M279.344 142.727L279.458 142.874L279.638 143.004L279.85 143.102H280.128H280.422H280.618H280.831H281.01H281.19L281.321 143.004L281.435 142.89V142.776V142.662V142.499L281.321 142.337L281.141 142.206L280.912 142.109H280.651H280.357H280.145H279.948H279.752H279.589L279.442 142.206L279.344 142.32V142.434V142.548V142.727ZM278.397 142.451L278.495 142.239L278.674 142.043L278.887 141.864L279.164 141.702L279.344 141.653L279.687 141.555H280.046H280.765H281.092L281.386 141.669L281.615 141.799L281.811 141.962L281.925 142.157V142.353V142.564L282.154 142.434L282.334 142.304L282.481 142.141V141.978V141.864V141.767V141.669L282.366 141.571L282.088 141.441L281.778 141.327L281.435 141.246H281.076H280.684L281.664 140.887H282.023L282.35 141.001L282.66 141.115L282.954 141.262L283.167 141.408L283.314 141.588L283.395 141.783V141.995V142.206L283.265 142.418L283.052 142.613L282.807 142.776L280.324 144.209L279.671 143.916L280.177 143.623H279.818H279.458H279.132L278.854 143.525L278.609 143.379L278.429 143.216L278.315 143.02V142.825V142.613" fill="white"/>
<path fill-rule="evenodd" clip-rule="evenodd" d="M284.326 142.564L284.653 142.516L284.964 142.532L285.274 142.564L285.552 142.646L285.78 142.76L285.993 142.906L286.156 143.069L286.27 143.265L286.319 143.46V143.672L285.437 143.704L285.47 143.541L285.437 143.379L285.356 143.216L285.192 143.085L285.029 143.004L284.817 142.972H284.588L284.425 143.004L284.277 143.053L284.147 143.118L284.065 143.199L284.016 143.297L284 143.379V143.476L284.049 143.558L284.163 143.72L284.326 143.883L284.539 144.079L284.588 144.16L284.621 144.258V144.388L284.604 144.518L284.457 144.697L284.245 144.877L283.983 145.023L283.673 145.153L283.346 145.235L283.003 145.284H282.66L282.334 145.251L282.039 145.17L281.778 145.056L281.549 144.893L281.386 144.697L281.272 144.502L281.239 144.274L281.272 144.046L282.072 144.014L282.056 144.209L282.121 144.404L282.186 144.502L282.268 144.6L282.399 144.697L282.546 144.746L282.726 144.795H282.922L283.101 144.779L283.265 144.746L283.428 144.681L283.542 144.616L283.624 144.518L283.657 144.437L283.64 144.339L283.608 144.242L283.379 143.981L283.232 143.818L283.101 143.623L283.052 143.509L283.036 143.379L283.069 143.248L283.15 143.118L283.281 142.972L283.444 142.858L283.706 142.727L284.016 142.63L284.326 142.564Z" fill="white"/>
<path fill-rule="evenodd" clip-rule="evenodd" d="M283.51 146.033L288.835 142.972L289.489 143.248L284.147 146.326L283.51 146.033Z" fill="white"/>
<path fill-rule="evenodd" clip-rule="evenodd" d="M284.081 146.358L283.51 146.033L284.147 146.326L284.081 146.358Z" fill="white"/>
<path fill-rule="evenodd" clip-rule="evenodd" d="M286.107 145.202L289.456 144.909L289.701 145.349L286.842 145.609L286.434 147.417L285.552 147.254L286.107 145.202Z" fill="white"/>
<path fill-rule="evenodd" clip-rule="evenodd" d="M299.535 129.539L300.27 129.506L301.005 129.523L301.724 129.588L301.871 130.32L301.234 130.239L300.581 130.19H299.911L299.225 130.223L298.539 130.304L297.869 130.434L297.216 130.597L296.578 130.793L295.974 131.021L295.419 131.297L294.896 131.59L294.422 131.9L294.014 132.242L293.654 132.616L293.377 132.991L293.148 133.381L293.001 133.772L292.919 134.163V134.554L292.985 134.928L293.115 135.303L293.328 135.645L293.605 135.987L293.948 136.296L294.357 136.573L294.814 136.817L295.321 137.045L295.876 137.224L296.464 137.354L297.101 137.452L297.755 137.517L298.424 137.533L299.094 137.517L299.78 137.452L300.466 137.354L301.12 137.208L301.757 137.012L302.378 136.801L302.966 136.54L303.489 136.263L303.995 135.954L304.42 135.612L304.795 135.254L305.122 134.896L305.367 134.505L305.547 134.114L305.661 133.723L305.481 133.626L305.351 133.512L305.285 133.381L305.302 133.219L305.367 133.072L305.514 132.942L305.694 132.828L305.939 132.73L306.184 132.681L306.445 132.665L306.69 132.681L306.919 132.746L307.099 132.844L307.213 132.974L307.262 133.105L307.246 133.267L307.164 133.414L307.017 133.544L306.821 133.658L306.707 134.082L306.527 134.521L306.282 134.945L305.955 135.352L305.579 135.742L305.122 136.117L304.632 136.475L304.077 136.817L303.472 137.11L302.835 137.387L302.149 137.615L301.447 137.81L300.711 137.973L299.976 138.087L299.225 138.168L298.49 138.217L297.755 138.201L297.019 138.152L296.333 138.071L295.647 137.94L295.01 137.761L294.422 137.55L293.883 137.305L293.377 137.029L292.952 136.719L292.576 136.377L292.266 136.019L292.021 135.628L291.857 135.238L291.759 134.814L291.743 134.391L291.792 133.968L291.923 133.544L292.119 133.105L292.38 132.698L292.723 132.291L293.115 131.884L293.573 131.525L294.095 131.167L294.651 130.841L295.272 130.548L295.925 130.288L296.595 130.06L297.314 129.865L298.049 129.718L298.784 129.604L299.535 129.539Z" fill="white"/>
<path fill-rule="evenodd" clip-rule="evenodd" d="M296.088 133.235L302.623 133.837H302.753H302.9V133.512V133.235L302.77 132.974L302.574 132.73L302.312 132.519L302.002 132.323L301.643 132.16L301.234 132.03L300.793 131.932H300.319H299.339H298.849L298.375 132.03L297.902 132.177L297.477 132.339L297.069 132.535L296.709 132.763L296.415 133.007L296.17 133.284M294.749 134.261V133.935L294.863 133.593L295.043 133.267L295.288 132.958L295.598 132.649L295.974 132.372L296.399 132.111L296.856 131.884L297.363 131.688L297.902 131.525L298.457 131.395L299.029 131.297H299.601H300.172H300.728L301.267 131.379L301.773 131.493L302.247 131.639L302.672 131.818L303.047 132.046L303.358 132.291L303.603 132.567L303.799 132.86L303.913 133.17V133.495V133.821L304.077 133.919L304.191 134.049V134.196V134.342L304.093 134.489L303.946 134.619L303.75 134.733L303.505 134.814H303.26H302.998H302.753H302.541L302.378 134.717L302.28 134.586L295.745 133.968V134.261V134.537L295.843 134.814L296.023 135.058L296.252 135.286L296.529 135.498L296.872 135.677L297.265 135.824L297.689 135.938H298.163H298.637H299.127H299.633L300.123 135.84L301.643 136.003L301.136 136.198L300.597 136.345L300.025 136.475H299.454H298.882H298.31H297.755H297.232L296.725 136.345L296.268 136.182L295.86 135.987L295.5 135.759L295.206 135.514L294.961 135.221L294.798 134.928L294.7 134.619V134.293" fill="white"/>
<path d="M359.129 169.772C359.138 169.809 359.141 169.848 359.135 169.886C359.13 169.925 359.117 169.961 359.097 169.995C359.078 170.028 359.051 170.057 359.02 170.08C358.989 170.103 358.954 170.12 358.916 170.13L354.016 171.4H353.901H350.144H350.013L346.37 170.976L341.47 170.016L340.114 169.658H340.016H339.934L338.79 169.299H338.66L338.088 169.023C338.049 168.99 338.02 168.946 338.005 168.897C337.991 168.847 337.991 168.795 338.006 168.746L337.892 168.86L337.484 169.267C337.458 169.298 337.426 169.324 337.389 169.341C337.352 169.358 337.312 169.366 337.271 169.365C337.19 169.361 337.114 169.326 337.059 169.267C337.005 169.209 336.975 169.134 336.975 169.055C336.975 168.977 337.005 168.901 337.059 168.843L338.251 167.655H338.349L339.885 166.597L341.78 165.685L343.838 165.001H343.953L348.167 164.366H348.298H350.471L352.496 164.643H352.594L354.375 165.115H354.473L356.106 165.848L357.381 166.792L358.214 167.834L358.671 169.006C358.699 169.08 358.697 169.161 358.667 169.234C358.637 169.306 358.58 169.365 358.508 169.397H358.394C358.333 169.397 358.273 169.378 358.223 169.343C358.174 169.308 358.136 169.259 358.116 169.202L357.658 168.078L356.858 167.069L355.6 166.141L353.966 165.424L352.186 164.936L350.16 164.659H348.086L343.822 165.31L341.845 165.962L340.032 166.825L338.529 167.85L338.17 168.209V168.29C338.197 168.274 338.228 168.266 338.26 168.266C338.291 168.266 338.322 168.274 338.349 168.29L338.823 168.518L340.081 168.909L341.404 169.251H341.502L346.403 170.211L350.095 170.651H353.803L358.59 169.397C358.614 169.362 358.646 169.332 358.682 169.309C358.718 169.285 358.759 169.27 358.801 169.262C358.844 169.254 358.887 169.255 358.93 169.264C358.972 169.274 359.012 169.291 359.047 169.316C359.082 169.34 359.113 169.372 359.136 169.408C359.159 169.444 359.175 169.484 359.183 169.527C359.19 169.569 359.189 169.613 359.18 169.655C359.171 169.697 359.153 169.736 359.129 169.772Z" fill="white"/>
<path d="M358.9 170.228C358.862 170.215 358.823 170.21 358.783 170.213C358.744 170.216 358.705 170.227 358.67 170.246C358.635 170.264 358.604 170.289 358.579 170.319C358.554 170.35 358.535 170.385 358.524 170.423L358.197 171.612L357.479 172.768L355.371 173.484L352.562 173.793H350.307L341.764 172.8L338.349 171.986L337.32 171.677L336.618 171.335C336.61 171.259 336.573 171.188 336.516 171.137C336.459 171.086 336.384 171.058 336.307 171.058C336.268 171.058 336.229 171.066 336.193 171.082C336.157 171.098 336.125 171.121 336.098 171.15C336.072 171.179 336.052 171.214 336.041 171.251C336.029 171.289 336.025 171.328 336.03 171.367V171.628V172.637C336.023 172.67 336.023 172.703 336.03 172.735L336.471 173.859V173.956L337.304 174.982L338.578 175.926L340.212 176.643H340.293L342.123 177.147H342.205L344.165 177.408H344.279H346.452H346.566L350.797 176.773H350.895L352.97 176.089L354.767 175.226L356.303 174.184H356.401L357.43 173.175C357.475 173.15 357.51 173.109 357.528 173.061C357.538 173.029 357.538 172.995 357.528 172.963L358.279 171.774L358.622 170.586C358.667 170.588 358.711 170.579 358.751 170.56C358.792 170.542 358.827 170.514 358.854 170.479C358.882 170.443 358.9 170.402 358.908 170.359C358.916 170.315 358.913 170.27 358.9 170.228ZM356.319 173.956L354.816 174.982L353.003 175.861L351.059 176.512L346.795 177.147H344.671L342.727 176.887L340.898 176.382L339.264 175.666L338.039 174.787L337.173 173.712L336.732 172.621V172.116L337.14 172.312C337.172 172.323 337.207 172.323 337.239 172.312H337.32L338.317 172.621L341.764 173.419H341.862L350.324 174.38H350.454H352.774L355.633 174.07H355.731L356.744 173.728L356.319 173.956Z" fill="white"/>
<path fill-rule="evenodd" clip-rule="evenodd" d="M296.056 201.766L299.274 200.479L298.98 200.317L299.797 199.991L300.091 200.17L300.352 200.056L300.793 199.909L301.022 199.844L301.234 199.812L301.659 199.844L302.1 200.007L302.263 200.121L302.329 200.17L302.378 200.219L301.61 200.528L301.561 200.496L301.512 200.447L301.3 200.398L301.169 200.43L301.038 200.479L300.793 200.577L301.12 200.756L300.303 201.082L299.993 200.886L296.758 202.173L296.056 201.766Z" fill="white"/>
<path fill-rule="evenodd" clip-rule="evenodd" d="M303.276 200.74L303.979 201.147L303.096 201.489L302.394 201.082L303.276 200.74Z" fill="white"/>
<path fill-rule="evenodd" clip-rule="evenodd" d="M301.986 201.261L302.688 201.652L298.653 203.264L297.951 202.857L301.986 201.261Z" fill="white"/>
<path fill-rule="evenodd" clip-rule="evenodd" d="M302.492 202.726L303.309 202.401L303.701 202.238L304.387 202.629L304.371 202.645L304.093 202.759H304.305H304.518L304.746 202.808L304.959 202.905L305.073 203.003L305.155 203.084L305.171 203.182L305.138 203.28L305.057 203.378L304.942 203.475L304.779 203.573L304.567 203.654L301.479 204.875L300.777 204.468L303.652 203.345L303.815 203.264L303.864 203.215L303.913 203.182L303.93 203.15V203.117L303.913 203.084L303.881 203.052L303.75 203.019H303.587L303.391 203.068L303.129 203.166L300.385 204.24L299.666 203.85L302.492 202.726Z" fill="white"/>
<path fill-rule="evenodd" clip-rule="evenodd" d="M305.988 205.152L306.429 204.973H306.609H306.494H306.364H306.184H305.972L305.53 205.152L305.906 205.38M302.868 205.82L303.064 205.69L303.309 205.559L303.587 205.445L304.926 204.908L305.187 204.81H305.465H305.727H306.004H306.527L307.066 205.022H307.197H307.295H307.376V205.169V205.315L307.197 205.445L306.952 205.576L306.674 205.69L305.776 206.048L304.714 205.429L304.077 205.69H303.913H304.044H304.175H304.338H304.485H304.665L305.351 206.097H305.236L304.975 206.194L304.73 206.276H304.485H304.224H303.717L303.211 206.08H303.08H302.966V205.999V205.836" fill="white"/>
<path fill-rule="evenodd" clip-rule="evenodd" d="M308.994 205.299L309.304 205.462L310.219 205.104L310.921 205.511L309.99 205.869L310.333 206.064L309.516 206.374L309.19 206.178L306.984 207.041L306.87 207.09L306.821 207.122L306.805 207.155V207.204L306.837 207.236L306.886 207.269L307.05 207.35L306.315 207.643L305.841 207.448L305.71 207.35L305.612 207.269L305.547 207.171V207.09L305.596 206.992L305.694 206.911L305.874 206.813L306.102 206.699L308.471 205.771L308.193 205.608L308.994 205.299Z" fill="white"/>
<path fill-rule="evenodd" clip-rule="evenodd" d="M295.811 202.987H295.941H296.105L296.333 202.889H296.17H296.039H295.909H295.794M295.631 202.889H295.811H295.99H296.203L296.415 202.987H296.513H296.382H296.497H296.627H296.725V203.133L296.154 203.345H296.056H296.137H295.909H295.811" fill="white"/>
<path fill-rule="evenodd" clip-rule="evenodd" d="M296.774 203.524H296.889H297.036L297.526 203.345H297.395H297.232H297.052H296.905M296.725 203.345H296.823L297.052 203.247H297.281H297.591H297.673L298.032 203.101H298.13L296.954 203.557H296.84H296.938H296.742H296.627" fill="white"/>
<path fill-rule="evenodd" clip-rule="evenodd" d="M298.784 204.013L297.689 204.192L297.591 204.126L298.196 203.654L298.294 203.719L297.804 204.094L298.686 203.947L298.784 204.013Z" fill="white"/>
<path fill-rule="evenodd" clip-rule="evenodd" d="M299.241 204.582H299.16H299.045H298.816L299.176 204.778M298.408 204.68L298.62 204.599H298.865H299.078H299.258H299.339V204.729H299.258H299.143L298.686 204.469V204.582H298.833H298.735" fill="white"/>
<path fill-rule="evenodd" clip-rule="evenodd" d="M300.287 205.022V205.006L300.254 204.973L300.205 204.957L300.074 204.908L299.911 204.892L299.307 205.12L299.209 205.071L300.058 204.729L300.156 204.794L300.042 204.843L300.156 204.859L300.238 204.876L300.368 204.908L300.401 204.941L300.434 204.957L300.287 205.022Z" fill="white"/>
<path fill-rule="evenodd" clip-rule="evenodd" d="M301.087 205.331L300.973 205.38L300.76 205.25L300.368 205.397L300.287 205.429L300.238 205.462L300.205 205.478L300.189 205.494V205.511L300.205 205.527L300.238 205.559L300.303 205.592L300.368 205.608L300.238 205.657L300.172 205.625L300.091 205.592L300.042 205.543L300.025 205.511V205.478L300.042 205.462L300.107 205.413L300.14 205.38L300.189 205.364L300.646 205.185L300.581 205.152L300.695 205.104L300.777 205.152L301.022 205.055L301.12 205.104L300.875 205.201L301.087 205.331Z" fill="white"/>
<path fill-rule="evenodd" clip-rule="evenodd" d="M301.839 205.478L301.692 205.544L301.577 205.478L301.725 205.413L301.839 205.478Z" fill="white"/>
<path fill-rule="evenodd" clip-rule="evenodd" d="M301.545 205.592L300.695 205.918L300.581 205.852L301.447 205.527L301.545 205.592Z" fill="white"/>
<path fill-rule="evenodd" clip-rule="evenodd" d="M301.3 206.292L301.234 206.243L301.185 206.211L301.136 206.129L301.3 206.064V206.097L301.316 206.145L301.349 206.194L301.414 206.243L301.561 206.292L301.708 206.259L301.741 206.243V206.227L301.724 206.194L301.708 206.162L301.659 206.129L301.626 206.08L301.594 206.031V205.999L301.61 205.95L301.659 205.917L301.757 205.885L301.904 205.869L302.051 205.885L302.182 205.95L302.28 206.015L302.312 206.048L302.329 206.097L302.182 206.145V206.113L302.165 206.064L302.133 206.031L302.067 205.983L301.92 205.934L301.79 205.966L301.773 205.983L301.757 206.015V206.031L301.79 206.064L301.822 206.113L301.871 206.145L301.904 206.194V206.243L301.888 206.276L301.855 206.308L301.724 206.357L301.594 206.373L301.447 206.341L301.3 206.292Z" fill="white"/>
<path fill-rule="evenodd" clip-rule="evenodd" d="M303.195 206.26L303.048 206.325L302.933 206.243L303.081 206.194L303.195 206.26Z" fill="white"/>
<path fill-rule="evenodd" clip-rule="evenodd" d="M302.884 206.373L302.035 206.699L301.937 206.634L302.786 206.308L302.884 206.373Z" fill="white"/>
<path fill-rule="evenodd" clip-rule="evenodd" d="M303.636 206.976L303.587 207.008L303.538 207.025L302.982 207.236L302.884 207.188L303.374 206.992L303.44 206.96L303.489 206.943L303.538 206.911V206.894L303.554 206.878L303.538 206.862V206.846L303.489 206.813L303.44 206.797L303.374 206.78L303.211 206.764L302.574 207.008L302.476 206.943L303.325 206.618L303.423 206.683L303.342 206.715L303.521 206.732L303.652 206.78L303.701 206.829L303.734 206.878L303.701 206.927L303.636 206.976Z" fill="white"/>
<path fill-rule="evenodd" clip-rule="evenodd" d="M303.734 207.529H303.848H303.995L304.452 207.35H304.322H304.175H304.011H303.864M303.276 207.432H303.423H303.505H303.603H303.815H303.913H303.995H303.848H303.717H303.815H304.011H304.24H304.452H304.632H304.73L303.979 207.725H303.766H303.587H303.276H303.178" fill="white"/>
<path fill-rule="evenodd" clip-rule="evenodd" d="M309.811 202.515L314.45 200.398L315.071 200.74L309.811 202.515Z" fill="white"/>
<path fill-rule="evenodd" clip-rule="evenodd" d="M309.811 202.515L303.538 199.861L305.171 198.916L309.811 202.515Z" fill="white"/>
<path fill-rule="evenodd" clip-rule="evenodd" d="M314.499 199.584L310.186 201.912L305.057 198.656L308.798 198.281L314.499 199.584Z" fill="white"/>
<path fill-rule="evenodd" clip-rule="evenodd" d="M335.981 171.449L336.34 170.195L337.124 168.941L337.696 168.323L338.137 168.681L338.709 168.974L340.032 169.381L341.47 169.739L346.436 170.7L350.193 171.139L353.95 171.123L358.835 169.853L358.818 170.504L358.443 171.774L357.658 173.028L357.56 173.142L355.306 173.891L352.415 174.217L350.095 174.233L341.502 173.256L337.99 172.426L336.912 172.1L335.964 171.644L335.981 171.449Z" fill="white"/>
<path d="M337.615 168.03L337.402 168.242C337.397 168.204 337.397 168.166 337.402 168.128C337.429 168.098 337.462 168.073 337.498 168.057C337.535 168.04 337.574 168.03 337.615 168.03Z" fill="white"/>
<path d="M337.941 168.909L337.745 168.746L337.859 168.632C337.844 168.681 337.844 168.733 337.858 168.783C337.873 168.832 337.901 168.876 337.941 168.909Z" fill="white"/>
<path d="M338.333 168.453C338.306 168.437 338.275 168.429 338.243 168.429C338.212 168.429 338.181 168.437 338.153 168.453V168.371L338.333 168.453Z" fill="white"/>
<path fill-rule="evenodd" clip-rule="evenodd" d="M336.373 170.602H336.454V170.39L336.291 170.716M336.634 170.016L336.781 169.869V169.739L336.585 170.032M336.879 169.104L337.124 169.283L337.304 169.43L337.386 169.56V169.723V169.918L336.863 170.423V170.96L336.52 171.302L336.34 171.172L336.111 170.96L337.091 169.088" fill="#BFBFFF"/>
<path fill-rule="evenodd" clip-rule="evenodd" d="M337.059 171.481L338.072 169.625L339.281 170.065L338.921 170.553L338.3 170.358L338.202 170.504L338.562 170.651L338.284 171.123L337.908 171.025L337.81 171.221L338.48 171.449L338.284 171.937L337.059 171.481Z" fill="#BFBFFF"/>
<path fill-rule="evenodd" clip-rule="evenodd" d="M341.159 171.172L340.718 171.009L340.342 170.944H340.277L340.244 170.977L340.228 171.025L340.244 171.058L340.261 171.091L340.326 171.139L340.391 171.172L340.653 171.335L340.914 171.579L340.963 171.905L340.751 172.181L340.375 172.344H339.754L338.774 172.051L338.986 171.53L339.411 171.709L339.722 171.807H339.836L339.918 171.791L339.95 171.758L339.967 171.709L339.95 171.677L339.901 171.644L339.852 171.612L339.689 171.498L339.444 171.302L339.313 171.058L339.297 170.895L339.379 170.732L339.526 170.618L340.457 170.39L341.519 170.667L341.159 171.172Z" fill="#BFBFFF"/>
<path fill-rule="evenodd" clip-rule="evenodd" d="M341.764 171.286L342.123 170.749L344.508 171.172L344.165 171.693L343.528 171.611L342.776 172.947L341.715 172.767L342.45 171.416L341.764 171.286Z" fill="#BFBFFF"/>
<path fill-rule="evenodd" clip-rule="evenodd" d="M345.995 171.921L346.011 171.954L346.076 172.54L345.423 172.605L345.21 172.703L345.063 172.833L345.014 172.963L344.769 171.205L345.946 171.367L345.995 171.921Z" fill="#BFBFFF"/>
<path fill-rule="evenodd" clip-rule="evenodd" d="M346.158 172.54L347.481 171.514L348.772 171.612L346.681 173.142L346.779 172.963L346.713 172.768L346.468 172.621L346.158 172.54Z" fill="#BFBFFF"/>
<path fill-rule="evenodd" clip-rule="evenodd" d="M347.988 173.533L348.919 171.644L350.144 171.677L349.278 173.533H347.988Z" fill="#BFBFFF"/>
<path fill-rule="evenodd" clip-rule="evenodd" d="M349.686 173.549L349.948 173.028L350.258 173.061L351.026 173.126L351.32 173.061L351.353 173.044L351.369 173.012V172.996V172.979L351.32 172.947L351.271 172.93L351.108 172.882L350.65 172.768L350.471 172.702L350.307 172.605L350.209 172.475V172.295L350.307 172.165L350.438 172.051L350.846 171.856L351.549 171.726L352.856 171.742L352.676 172.263L352.317 172.23L351.794 172.198L351.63 172.23L351.516 172.263L351.5 172.279H351.483V172.328L351.5 172.344L351.532 172.377L351.663 172.409L351.745 172.426L352.333 172.589L352.447 172.637L352.545 172.702L352.611 172.865L352.513 173.11L352.186 173.354L351.598 173.549L350.863 173.614L349.686 173.549Z" fill="#BFBFFF"/>
<path fill-rule="evenodd" clip-rule="evenodd" d="M352.562 173.582L353.28 171.709L354.277 171.628L353.607 173.468L352.562 173.582Z" fill="#BFBFFF"/>
<path fill-rule="evenodd" clip-rule="evenodd" d="M355.812 171.937L355.551 172.019L355.273 172.247V172.361V172.507L355.371 172.751H355.518H355.698L356.09 172.54L356.286 172.247V172.1V171.986H356.156H355.992M356.613 171.449L357.021 171.823V172.067L356.874 172.474L356.156 173.126L355.175 173.386H354.751L354.457 173.109V172.751L354.636 172.361L355.306 171.742L356.188 171.481H356.629" fill="#BFBFFF"/>
<path fill-rule="evenodd" clip-rule="evenodd" d="M356.678 172.979L357.136 171.139L357.74 170.977L358.148 171.579L358.198 170.765L358.622 170.504L358.328 172.263L357.854 172.523L357.626 171.921L357.332 172.735L356.678 172.979Z" fill="#BFBFFF"/>
<path fill-rule="evenodd" clip-rule="evenodd" d="M346.142 172.914L346.256 172.67H345.88L345.766 172.914H345.341L345.243 173.093H345.684L345.57 173.305H345.929L346.044 173.11H346.485L346.599 172.93H346.142M346.713 173.142L346.583 173.24L345.962 173.386L345.243 173.272L345.063 173.126V172.979V172.898L345.243 172.8H345.357H346.321H346.485H346.615H346.73V172.979V173.158" fill="white"/>
<path fill-rule="evenodd" clip-rule="evenodd" d="M346.599 172.947L346.485 173.126L346.044 173.077L345.929 173.272L345.57 173.24L345.684 173.028L345.243 172.995L345.341 172.816L345.766 172.881L345.88 172.637L346.256 172.686L346.142 172.914L346.599 172.947Z" fill="#BFBFFF"/>
<path d="M71.4533 66.3976L69.2806 67.6513C68.5758 68.0583 67.7754 68.2718 66.9609 68.27C66.1415 68.2693 65.3365 68.0561 64.6249 67.6513C64.3607 67.4959 64.1417 67.2745 63.9897 67.0089C63.8376 66.7434 63.7576 66.4429 63.7576 66.1371C63.7576 65.8313 63.8376 65.5309 63.9897 65.2653C64.1417 64.9998 64.3607 64.7783 64.6249 64.6229L66.8139 63.3692C66.848 63.3491 66.8858 63.3362 66.9251 63.3311C66.9644 63.326 67.0043 63.3288 67.0424 63.3395C67.0806 63.3501 67.1162 63.3683 67.1471 63.393C67.178 63.4177 67.2035 63.4484 67.2223 63.4832C67.2424 63.5172 67.2554 63.5549 67.2605 63.594C67.2656 63.6332 67.2628 63.6729 67.2521 63.711C67.2414 63.749 67.2231 63.7844 67.1984 63.8152C67.1736 63.846 67.1428 63.8715 67.1079 63.8902L64.9352 65.1276C64.7626 65.2301 64.6197 65.3755 64.5204 65.5496C64.4211 65.7237 64.3689 65.9206 64.3689 66.1208C64.3689 66.3211 64.4211 66.5179 64.5204 66.692C64.6197 66.8661 64.7626 67.0116 64.9352 67.114C65.5547 67.4576 66.2519 67.638 66.9609 67.638C67.6698 67.638 68.3671 67.4576 68.9865 67.114L71.1592 65.8603C71.2285 65.8215 71.3105 65.8116 71.3871 65.833C71.425 65.8436 71.4605 65.8615 71.4915 65.8858C71.5224 65.91 71.5483 65.9401 71.5676 65.9743C71.5869 66.0085 71.5993 66.0462 71.604 66.0851C71.6087 66.1241 71.6056 66.1636 71.595 66.2014C71.5844 66.2392 71.5664 66.2746 71.5421 66.3054C71.5178 66.3363 71.4876 66.3621 71.4533 66.3813V66.3976Z" fill="white"/>
<path d="M73.6423 67.1304L72.6131 66.5442C72.5679 66.52 72.5174 66.5073 72.4661 66.5073C72.4148 66.5073 72.3643 66.52 72.3191 66.5442L70.2117 67.7491L68.0391 68.9865C68.0037 69.0048 67.9726 69.0304 67.9481 69.0617C67.9235 69.0929 67.906 69.1291 67.8967 69.1677C67.8874 69.2063 67.8866 69.2465 67.8942 69.2855C67.9019 69.3244 67.9178 69.3613 67.941 69.3936C67.9639 69.4398 67.9986 69.4792 68.0416 69.5078C68.0846 69.5363 68.1345 69.5531 68.1861 69.5564C68.2393 69.5727 68.2962 69.5727 68.3494 69.5564L70.2444 68.3841L71.1919 68.9214C71.5705 69.1351 71.9983 69.2473 72.4334 69.247C72.8683 69.2451 73.2955 69.1331 73.6749 68.9214C73.8309 68.8312 73.9604 68.7018 74.0504 68.5461C74.1405 68.3903 74.1878 68.2138 74.1878 68.034C74.1878 67.8543 74.1405 67.6777 74.0504 67.522C73.9604 67.3663 73.8309 67.2368 73.6749 67.1467L73.6423 67.1304ZM71.4533 68.3841L70.8162 68.0096L72.4497 67.0978L73.3809 67.6514C73.4453 67.6865 73.4991 67.7384 73.5365 67.8014C73.5738 67.8645 73.5935 67.9364 73.5933 68.0096C73.5947 68.0852 73.5757 68.1599 73.5384 68.2257C73.501 68.2916 73.4466 68.3463 73.3809 68.3841C73.0879 68.5527 72.7554 68.6415 72.4171 68.6415C72.0787 68.6415 71.7463 68.5527 71.4533 68.3841Z" fill="white"/>
<path d="M75.962 71.1521C75.9761 71.1999 75.9761 71.2508 75.962 71.2986C75.972 71.3304 75.972 71.3645 75.962 71.3963C75.9033 71.4131 75.841 71.4131 75.7823 71.3963H72.5151L73.724 72.0802C73.7897 72.1263 73.8361 72.1951 73.8542 72.2732C73.8723 72.3513 73.8608 72.4333 73.822 72.5035C73.7971 72.5503 73.7592 72.589 73.7129 72.615C73.6665 72.6409 73.6137 72.6531 73.5606 72.65C73.5126 72.6641 73.4616 72.6641 73.4136 72.65L71.2736 71.4289C71.2192 71.406 71.173 71.3674 71.141 71.3181C71.1089 71.2687 71.0925 71.2109 71.0939 71.1521C71.0923 71.1068 71.1002 71.0617 71.1171 71.0197C71.1339 70.9776 71.1594 70.9395 71.1919 70.9079H71.3226H74.5898L73.3973 70.224C73.3618 70.2038 73.3307 70.1767 73.3057 70.1445C73.2808 70.1122 73.2625 70.0754 73.2519 70.036C73.2412 69.9967 73.2385 69.9557 73.2438 69.9153C73.2492 69.8749 73.2624 69.836 73.2829 69.8007C73.3292 69.7352 73.3982 69.689 73.4765 69.6709C73.5549 69.6529 73.6372 69.6643 73.7076 69.703L75.815 70.9242C75.836 70.9305 75.8554 70.9409 75.8723 70.9549C75.8891 70.9689 75.903 70.9861 75.913 71.0056C75.9409 71.0498 75.9577 71.1 75.962 71.1521Z" fill="white"/>
<path d="M252.079 169.934C252.089 170.014 252.067 170.094 252.018 170.158C251.969 170.222 251.898 170.264 251.818 170.276L244.99 171.335H244.908H244.794C244.741 171.315 244.695 171.279 244.663 171.233C244.631 171.186 244.614 171.131 244.614 171.074C244.607 171.037 244.607 170.998 244.614 170.96L245.725 168.583L241.265 169.267H241.151C241.103 169.248 241.062 169.217 241.031 169.177C240.999 169.137 240.979 169.089 240.971 169.039C240.956 169.003 240.948 168.964 240.948 168.925C240.948 168.886 240.956 168.847 240.971 168.811L242.768 164.92C242.806 164.85 242.869 164.796 242.944 164.769C243.019 164.742 243.102 164.743 243.176 164.773C243.212 164.789 243.244 164.812 243.271 164.84C243.297 164.868 243.318 164.901 243.332 164.938C243.346 164.974 243.352 165.013 243.35 165.052C243.349 165.091 243.34 165.129 243.323 165.164L241.69 168.616L245.986 167.948L246.411 167.036C246.449 166.966 246.512 166.913 246.587 166.886C246.662 166.859 246.745 166.86 246.819 166.89C246.855 166.906 246.887 166.928 246.914 166.957C246.94 166.985 246.961 167.018 246.975 167.054C246.988 167.091 246.995 167.13 246.993 167.168C246.992 167.207 246.983 167.245 246.966 167.281L246.705 167.834L247.995 167.639C248.034 167.632 248.074 167.633 248.112 167.641C248.151 167.65 248.187 167.666 248.219 167.689C248.251 167.711 248.278 167.74 248.298 167.774C248.319 167.807 248.333 167.844 248.339 167.883C248.348 167.963 248.326 168.043 248.277 168.107C248.228 168.17 248.157 168.213 248.077 168.225L246.444 168.485L245.398 170.732L251.704 169.755C251.74 169.742 251.779 169.737 251.817 169.739C251.856 169.741 251.894 169.751 251.929 169.767C251.964 169.784 251.995 169.807 252.021 169.836C252.047 169.865 252.067 169.898 252.079 169.934Z" fill="#004080"/>
<path d="M254.987 172.491C254.987 172.491 254.987 172.491 254.987 172.621C254.983 172.696 254.95 172.766 254.896 172.818C254.841 172.869 254.768 172.898 254.693 172.898C254.654 172.894 254.617 172.882 254.583 172.864C254.549 172.845 254.519 172.82 254.494 172.79C254.47 172.759 254.452 172.724 254.441 172.687C254.43 172.65 254.427 172.611 254.432 172.572C254.428 172.372 254.374 172.176 254.274 172.003C254.174 171.829 254.032 171.683 253.86 171.579C253.241 171.235 252.543 171.055 251.834 171.055C251.125 171.055 250.428 171.235 249.809 171.579C249.632 171.678 249.485 171.823 249.382 171.997C249.28 172.172 249.226 172.37 249.226 172.572C249.226 172.774 249.28 172.973 249.382 173.148C249.485 173.322 249.632 173.466 249.809 173.565C250.394 173.907 251.058 174.092 251.736 174.103C251.816 174.107 251.891 174.141 251.945 174.199C252 174.257 252.031 174.333 252.03 174.412C252.026 174.491 251.992 174.566 251.934 174.62C251.876 174.675 251.8 174.705 251.72 174.705C250.939 174.691 250.174 174.478 249.498 174.087C249.498 174.087 249.498 174.087 249.384 173.989C249.152 173.832 248.961 173.621 248.83 173.374C248.698 173.127 248.629 172.852 248.629 172.572C248.629 172.293 248.698 172.017 248.83 171.77C248.961 171.523 249.152 171.312 249.384 171.156C249.414 171.114 249.453 171.081 249.498 171.058C250.208 170.657 251.01 170.446 251.826 170.446C252.642 170.446 253.444 170.657 254.154 171.058C254.4 171.21 254.605 171.421 254.75 171.671C254.896 171.92 254.977 172.202 254.987 172.491Z" fill="#004080"/>
<path d="M99.502 24.4228C99.5114 24.5025 99.4894 24.5826 99.4406 24.6464C99.3919 24.7102 99.3202 24.7526 99.2406 24.7648L92.4122 25.8231H92.2979C92.2448 25.8031 92.1992 25.7675 92.167 25.7209C92.1349 25.6743 92.1179 25.6191 92.1182 25.5626C92.1111 25.5249 92.1111 25.4863 92.1182 25.4486L93.1147 23.0877L88.655 23.7716H88.5406C88.4934 23.7523 88.452 23.7212 88.4205 23.6813C88.389 23.6413 88.3685 23.5939 88.3609 23.5436C88.3456 23.5075 88.3378 23.4688 88.3378 23.4296C88.3378 23.3905 88.3456 23.3517 88.3609 23.3157L90.1579 19.4243C90.1961 19.3543 90.2588 19.3007 90.3341 19.2736C90.4094 19.2466 90.492 19.2481 90.5663 19.2777C90.6018 19.2936 90.6339 19.3163 90.6606 19.3446C90.6873 19.3728 90.7081 19.4061 90.7218 19.4425C90.7354 19.4788 90.7417 19.5175 90.7403 19.5563C90.7388 19.5951 90.7296 19.6333 90.7133 19.6685L89.0797 23.1203L93.376 22.4527L93.8008 21.5409C93.839 21.4709 93.9017 21.4173 93.977 21.3903C94.0523 21.3633 94.1349 21.3647 94.2092 21.3944C94.2447 21.4102 94.2768 21.4329 94.3035 21.4612C94.3302 21.4895 94.351 21.5228 94.3647 21.5591C94.3784 21.5955 94.3847 21.6342 94.3832 21.673C94.3817 21.7118 94.3726 21.7499 94.3562 21.7852L94.0948 22.3387L95.3854 22.1434C95.424 22.1364 95.4637 22.1372 95.5021 22.1458C95.5404 22.1543 95.5766 22.1705 95.6086 22.1933C95.6406 22.216 95.6677 22.245 95.6883 22.2783C95.7088 22.3117 95.7225 22.3489 95.7284 22.3876C95.7378 22.4672 95.7158 22.5474 95.667 22.6112C95.6183 22.675 95.5466 22.7174 95.467 22.7295L93.8334 22.99L92.7879 25.2369L99.0936 24.26C99.1308 24.2415 99.1715 24.231 99.213 24.2292C99.2545 24.2275 99.2959 24.2345 99.3345 24.2499C99.3731 24.2653 99.408 24.2887 99.4369 24.3185C99.4657 24.3483 99.4879 24.3838 99.502 24.4228Z" fill="#004080"/>
<path d="M102.41 27.0442C102.41 27.0442 102.41 27.1256 102.41 27.1745C102.406 27.2493 102.373 27.3198 102.318 27.3713C102.263 27.4228 102.191 27.4514 102.116 27.4513C102.077 27.4472 102.04 27.4356 102.005 27.4169C101.971 27.3983 101.941 27.3732 101.917 27.3429C101.893 27.3126 101.874 27.2778 101.864 27.2405C101.853 27.2032 101.85 27.1642 101.854 27.1256V27.0442C101.851 26.8441 101.796 26.6481 101.696 26.4745C101.596 26.3008 101.454 26.1552 101.283 26.051C100.663 25.7074 99.9659 25.5271 99.257 25.5271C98.548 25.5271 97.8508 25.7074 97.2313 26.051C97.0546 26.1502 96.9075 26.2944 96.8051 26.469C96.7027 26.6435 96.6488 26.842 96.6488 27.0442C96.6488 27.2464 96.7027 27.4449 96.8051 27.6195C96.9075 27.794 97.0546 27.9382 97.2313 28.0374C97.8167 28.379 98.4807 28.5641 99.159 28.5747C99.2384 28.5789 99.3133 28.6133 99.368 28.6709C99.4227 28.7285 99.4531 28.8048 99.453 28.8841C99.4488 28.9633 99.4143 29.0378 99.3565 29.0924C99.2988 29.1469 99.2222 29.1773 99.1426 29.1772C98.3613 29.1628 97.5966 28.9498 96.921 28.5584C96.921 28.5584 96.921 28.5584 96.8066 28.4607C96.5741 28.3042 96.3838 28.0932 96.2521 27.8462C96.1205 27.5992 96.0517 27.3239 96.0517 27.0442C96.0517 26.7646 96.1205 26.4892 96.2521 26.2422C96.3838 25.9953 96.5741 25.7843 96.8066 25.6277C96.8361 25.5863 96.8754 25.5527 96.921 25.53C97.6308 25.129 98.4329 24.9182 99.2488 24.9182C100.065 24.9182 100.867 25.129 101.577 25.53C101.835 25.6896 102.047 25.9129 102.193 26.1781C102.339 26.4434 102.413 26.7417 102.41 27.0442Z" fill="#004080"/>
<path opacity="0.5" fill-rule="evenodd" clip-rule="evenodd" d="M59.0872 41.405L65.5235 45.101L75.1454 50.6531L37.7198 72.1941L12.0234 57.4101L49.4653 35.8691L59.0872 41.405Z" fill="#EC6F2D"/>
<path d="M48.8119 55.3585C47.4915 56.0904 46.0171 56.5027 44.5074 56.5621C42.9978 56.6215 41.4953 56.3263 40.1212 55.7004C37.9158 54.3979 38.2262 52.1672 40.84 50.6856C42.1644 49.9733 43.639 49.5829 45.1435 49.5461C46.6481 49.5093 48.1401 49.8272 49.498 50.4739C51.7033 51.7113 51.393 53.942 48.8119 55.3585ZM44.6626 52.33C44.9403 52.4603 44.9239 52.5254 44.5809 52.6557L43.7804 52.9325L41.8038 53.7303C41.2647 53.942 41.1177 54.3002 41.4444 54.5444C42.1464 54.8872 42.9544 54.9456 43.6987 54.7072C43.6987 54.7072 43.8458 54.6095 43.8294 54.577C43.8131 54.5444 43.7151 54.577 43.6497 54.577C43.5137 54.5851 43.3773 54.5851 43.2413 54.577C43.0931 54.5343 42.9505 54.4741 42.8166 54.3979C42.9248 54.3179 43.0396 54.2471 43.1597 54.1862L46.1328 53.0953C46.4105 52.9813 46.4268 52.9325 46.1328 52.8185L45.7407 52.5091L44.8259 52.1021C44.728 52.0948 44.6298 52.0948 44.5319 52.1021C44.5319 52.1021 44.5319 52.2161 44.5319 52.2649L44.6626 52.33ZM48.0278 52.33C48.4198 52.1184 48.4688 51.7765 48.1258 51.5811C47.9252 51.4821 47.7044 51.4305 47.4805 51.4305C47.2567 51.4305 47.0358 51.4821 46.8352 51.5811C46.4595 51.7927 46.4105 52.1347 46.7372 52.33C46.9387 52.4278 47.1604 52.4772 47.3844 52.4744C47.6085 52.4715 47.8288 52.4165 48.0278 52.3138V52.33Z" fill="#EC6F2D"/>
<path opacity="0.5" fill-rule="evenodd" clip-rule="evenodd" d="M199.167 130.614L205.587 134.326L208.593 136.036L186.148 148.963L173.732 141.816L196.162 128.904L199.167 130.614Z" fill="#EC6F2D"/>
<path opacity="0.5" fill-rule="evenodd" clip-rule="evenodd" d="M178.372 118.663L184.808 122.359L196.162 128.904L173.733 141.816L144.557 125.029L167.002 112.117L178.372 118.663Z" fill="#EC6F2D"/>
<path d="M175.268 128.236C173.957 128.965 172.493 129.379 170.993 129.447C169.494 129.514 167.999 129.234 166.626 128.627C164.405 127.341 164.731 125.094 167.345 123.612C168.665 122.893 170.135 122.491 171.638 122.437C173.14 122.384 174.635 122.68 176.003 123.303C178.143 124.524 177.833 126.771 175.268 128.236ZM171.119 125.192C171.396 125.338 171.38 125.387 171.021 125.517L170.237 125.81C169.583 126.055 168.897 126.283 168.26 126.543C167.623 126.804 167.574 127.129 167.901 127.374C168.604 127.71 169.41 127.768 170.155 127.536C170.185 127.526 170.213 127.509 170.235 127.486C170.258 127.464 170.275 127.436 170.286 127.406C170.286 127.406 170.171 127.406 170.106 127.406C169.97 127.414 169.834 127.414 169.698 127.406C169.551 127.359 169.409 127.299 169.273 127.227C169.374 127.133 169.49 127.056 169.616 126.999L172.589 125.908C172.867 125.81 172.883 125.745 172.589 125.648L172.05 125.403L171.2 125.045C171.2 125.045 171.021 125.045 170.923 125.045C170.914 125.099 170.914 125.154 170.923 125.208C170.923 125.208 171.086 125.175 171.119 125.192ZM174.484 125.192C174.876 124.964 174.909 124.638 174.582 124.443C174.382 124.343 174.161 124.29 173.937 124.29C173.713 124.29 173.492 124.343 173.291 124.443C172.899 124.671 172.867 124.996 173.193 125.192C173.397 125.284 173.62 125.328 173.845 125.32C174.069 125.311 174.288 125.251 174.484 125.143V125.192Z" fill="#EC6F2D"/>
<path d="M195.492 140.546C194.172 141.271 192.7 141.678 191.193 141.735C189.687 141.791 188.188 141.496 186.817 140.871C184.596 139.585 184.906 137.338 187.52 135.856C188.841 135.134 190.314 134.729 191.82 134.675C193.326 134.622 194.824 134.92 196.194 135.547C198.383 136.768 198.073 139.08 195.492 140.546ZM191.342 137.501C191.636 137.647 191.62 137.696 191.342 137.827L190.558 138.12C189.889 138.364 189.219 138.592 188.565 138.852C187.912 139.113 187.896 139.438 188.206 139.683C188.916 140.018 189.726 140.077 190.477 139.845C190.507 139.835 190.534 139.818 190.557 139.795C190.58 139.773 190.597 139.745 190.607 139.715C190.607 139.715 190.493 139.715 190.411 139.715C190.281 139.723 190.15 139.723 190.019 139.715C189.868 139.665 189.721 139.606 189.578 139.536C189.682 139.446 189.798 139.369 189.921 139.308L192.911 138.217C193.188 138.12 193.205 138.054 192.911 137.957L192.355 137.713L191.522 137.354C191.522 137.354 191.326 137.354 191.228 137.354C191.219 137.408 191.219 137.463 191.228 137.517C191.228 137.517 191.31 137.485 191.342 137.501ZM194.708 137.501C195.1 137.273 195.149 136.947 194.806 136.752C194.608 136.652 194.39 136.6 194.169 136.6C193.947 136.6 193.729 136.652 193.531 136.752C193.139 136.98 193.09 137.305 193.433 137.501C193.635 137.593 193.855 137.637 194.076 137.629C194.298 137.62 194.514 137.56 194.708 137.452V137.501Z" fill="#EC6F2D"/>
<path opacity="0.5" fill-rule="evenodd" clip-rule="evenodd" d="M315.839 189.147L278.397 210.688L265.557 203.296L240.726 189.001L278.152 167.46L287.365 172.751L293.785 176.447L302.982 181.755L312.62 187.291L315.839 189.147Z" fill="#EC6F2D"/>
<path d="M284.245 190.498C282.925 191.224 281.453 191.631 279.946 191.688C278.44 191.744 276.941 191.449 275.57 190.824C273.349 189.538 273.675 187.291 276.273 185.809C277.594 185.086 279.067 184.682 280.573 184.628C282.079 184.575 283.577 184.873 284.947 185.5C287.103 186.737 286.793 188.984 284.245 190.498ZM280.095 187.454C280.389 187.6 280.373 187.649 280.014 187.779L279.229 188.072C278.56 188.317 277.89 188.545 277.253 188.805C276.616 189.066 276.567 189.391 276.893 189.636C277.597 189.972 278.403 190.03 279.148 189.798C279.178 189.788 279.205 189.771 279.228 189.748C279.251 189.726 279.268 189.698 279.279 189.668C279.279 189.668 279.164 189.668 279.082 189.668C278.952 189.676 278.821 189.676 278.69 189.668C278.54 189.618 278.392 189.558 278.249 189.489C278.356 189.395 278.478 189.318 278.609 189.261L281.582 188.17C281.86 188.072 281.876 188.007 281.582 187.91L281.026 187.665L280.193 187.307C280.193 187.307 279.997 187.307 279.916 187.307C279.898 187.36 279.898 187.417 279.916 187.47C279.916 187.47 280.03 187.389 280.063 187.405L280.095 187.454ZM283.461 187.454C283.869 187.226 283.902 186.9 283.559 186.705C283.361 186.605 283.143 186.553 282.921 186.553C282.7 186.553 282.482 186.605 282.284 186.705C281.892 186.933 281.843 187.258 282.186 187.454C282.387 187.534 282.603 187.566 282.819 187.55C283.034 187.533 283.242 187.466 283.428 187.356L283.461 187.454Z" fill="#EC6F2D"/>
<path d="M12.2029 57.3613L87.5605 100.736" stroke="#004080" stroke-width="0.15" stroke-linecap="round" stroke-linejoin="round"/>
<path d="M379.156 167.557L291.416 218.048" stroke="#004080" stroke-width="0.15" stroke-linecap="round" stroke-linejoin="round"/>
<path d="M12.2029 57.3612L99.9268 6.88721" stroke="#004080" stroke-width="0.15" stroke-linecap="round" stroke-linejoin="round"/>
<path d="M37.8993 72.1452L75.3249 50.6042" stroke="#004080" stroke-width="0.15" stroke-linecap="round" stroke-linejoin="round"/>
<path d="M62.7299 86.4409L100.155 64.8999" stroke="#004080" stroke-width="0.15" stroke-linecap="round" stroke-linejoin="round"/>
<path d="M87.5605 100.736L125.002 79.1953" stroke="#004080" stroke-width="0.15" stroke-linecap="round" stroke-linejoin="round"/>
<path d="M49.6285 35.8203L59.2667 41.3725" stroke="#004080" stroke-width="0.15" stroke-linecap="round" stroke-linejoin="round"/>
<path d="M216.059 174.673L291.416 218.048" stroke="#004080" stroke-width="0.15" stroke-linecap="round" stroke-linejoin="round"/>
<path d="M144.736 124.996L167.182 112.085" stroke="#004080" stroke-width="0.15" stroke-linecap="round" stroke-linejoin="round"/>
<path d="M173.896 141.783L196.341 128.855" stroke="#004080" stroke-width="0.15" stroke-linecap="round" stroke-linejoin="round"/>
<path d="M216.059 174.673L253.501 153.132" stroke="#004080" stroke-width="0.15" stroke-linecap="round" stroke-linejoin="round"/>
<path d="M240.889 188.968L278.331 167.427" stroke="#004080" stroke-width="0.15" stroke-linecap="round" stroke-linejoin="round"/>
<path d="M278.576 210.656L316.002 189.115" stroke="#004080" stroke-width="0.15" stroke-linecap="round" stroke-linejoin="round"/>
<path d="M99.9268 6.88721L379.156 167.557" stroke="#004080" stroke-width="0.15" stroke-linecap="round" stroke-linejoin="round"/>
<path d="M88.1649 43.2284L125.623 21.6711" stroke="#004080" stroke-width="0.15" stroke-linecap="round" stroke-linejoin="round"/>
<path d="M187.487 100.394L224.962 78.8372" stroke="#004080" stroke-width="0.15" stroke-linecap="round" stroke-linejoin="round"/>
<path d="M216.663 117.181L254.121 95.6074" stroke="#004080" stroke-width="0.15" stroke-linecap="round" stroke-linejoin="round"/>
<path d="M196.341 128.855L199.347 130.581" stroke="#004080" stroke-width="0.15" stroke-linecap="round" stroke-linejoin="round"/>
<path d="M216.663 117.181L225.86 122.473" stroke="#004080" stroke-width="0.15" stroke-linecap="round" stroke-linejoin="round"/>
<path d="M266.324 145.756L303.783 124.198" stroke="#004080" stroke-width="0.15" stroke-linecap="round" stroke-linejoin="round"/>
<path d="M278.74 152.904L316.214 131.346" stroke="#004080" stroke-width="0.15" stroke-linecap="round" stroke-linejoin="round"/>
<path d="M315.985 174.331L353.46 152.773" stroke="#004080" stroke-width="0.15" stroke-linecap="round" stroke-linejoin="round"/>
<path d="M95.075 96.4053L144.736 124.996" stroke="#004080" stroke-width="0.15" stroke-linecap="round" stroke-linejoin="round"/>
<path d="M125.002 79.1953L133.121 83.8682" stroke="#004080" stroke-width="0.15" stroke-linecap="round" stroke-linejoin="round"/>
<path d="M139.558 87.5642L149.833 93.4746" stroke="#004080" stroke-width="0.15" stroke-linecap="round" stroke-linejoin="round"/>
<path d="M100.155 64.8999L109.369 70.1915" stroke="#004080" stroke-width="0.15" stroke-linecap="round" stroke-linejoin="round"/>
<path d="M115.789 73.9036L125.002 79.1952" stroke="#004080" stroke-width="0.15" stroke-linecap="round" stroke-linejoin="round"/>
<path d="M75.3249 50.6042L84.5383 55.9122" stroke="#004080" stroke-width="0.15" stroke-linecap="round" stroke-linejoin="round"/>
<path d="M90.9584 59.6082L100.155 64.8998" stroke="#004080" stroke-width="0.15" stroke-linecap="round" stroke-linejoin="round"/>
<path d="M65.6867 45.0684L75.3249 50.6042" stroke="#004080" stroke-width="0.15" stroke-linecap="round" stroke-linejoin="round"/>
<path d="M112.995 57.5242L128.4 66.3815" stroke="#004080" stroke-width="0.15" stroke-linecap="round" stroke-linejoin="round"/>
<path d="M62.4685 28.4446L72.1067 33.9804" stroke="#004080" stroke-width="0.15" stroke-linecap="round" stroke-linejoin="round"/>
<path d="M88.1649 43.2285L97.362 48.5201" stroke="#004080" stroke-width="0.15" stroke-linecap="round" stroke-linejoin="round"/>
<path d="M103.782 52.2161L112.995 57.524" stroke="#004080" stroke-width="0.15" stroke-linecap="round" stroke-linejoin="round"/>
<path d="M78.5267 37.6926L88.1649 43.2285" stroke="#004080" stroke-width="0.15" stroke-linecap="round" stroke-linejoin="round"/>
<path d="M134.837 70.0774L147.023 77.1112" stroke="#004080" stroke-width="0.15" stroke-linecap="round" stroke-linejoin="round"/>
<path d="M153.46 80.8071L165.662 87.8246" stroke="#004080" stroke-width="0.15" stroke-linecap="round" stroke-linejoin="round"/>
<path d="M172.082 91.5208L187.487 100.394" stroke="#004080" stroke-width="0.15" stroke-linecap="round" stroke-linejoin="round"/>
<path d="M228.654 138.852L237.867 144.144" stroke="#004080" stroke-width="0.15" stroke-linecap="round" stroke-linejoin="round"/>
<path d="M208.757 136.003L211.762 137.729" stroke="#004080" stroke-width="0.15" stroke-linecap="round" stroke-linejoin="round"/>
<path d="M218.182 141.425L221.172 143.151" stroke="#004080" stroke-width="0.15" stroke-linecap="round" stroke-linejoin="round"/>
<path d="M205.767 134.277L208.757 136.003" stroke="#004080" stroke-width="0.15" stroke-linecap="round" stroke-linejoin="round"/>
<path d="M253.501 153.132L256.49 154.857" stroke="#004080" stroke-width="0.15" stroke-linecap="round" stroke-linejoin="round"/>
<path d="M244.287 147.84L253.501 153.131" stroke="#004080" stroke-width="0.15" stroke-linecap="round" stroke-linejoin="round"/>
<path d="M278.331 167.427L287.528 172.719" stroke="#004080" stroke-width="0.15" stroke-linecap="round" stroke-linejoin="round"/>
<path d="M262.91 158.553L265.916 160.279" stroke="#004080" stroke-width="0.15" stroke-linecap="round" stroke-linejoin="round"/>
<path d="M265.916 160.279L268.905 162.005" stroke="#004080" stroke-width="0.15" stroke-linecap="round" stroke-linejoin="round"/>
<path d="M275.325 165.701L278.331 167.427" stroke="#004080" stroke-width="0.15" stroke-linecap="round" stroke-linejoin="round"/>
<path d="M293.965 176.415L303.162 181.723" stroke="#004080" stroke-width="0.15" stroke-linecap="round" stroke-linejoin="round"/>
<path d="M266.324 145.756L269.314 147.482" stroke="#004080" stroke-width="0.15" stroke-linecap="round" stroke-linejoin="round"/>
<path d="M241.494 131.46L250.691 136.752" stroke="#004080" stroke-width="0.15" stroke-linecap="round" stroke-linejoin="round"/>
<path d="M257.127 140.464L266.324 145.756" stroke="#004080" stroke-width="0.15" stroke-linecap="round" stroke-linejoin="round"/>
<path d="M291.155 160.051L300.368 165.343" stroke="#004080" stroke-width="0.15" stroke-linecap="round" stroke-linejoin="round"/>
<path d="M315.985 174.331L325.624 179.883" stroke="#004080" stroke-width="0.15" stroke-linecap="round" stroke-linejoin="round"/>
<path d="M306.788 169.039L315.985 174.331" stroke="#004080" stroke-width="0.15" stroke-linecap="round" stroke-linejoin="round"/>
<path d="M332.044 183.579L341.682 189.115" stroke="#004080" stroke-width="0.15" stroke-linecap="round" stroke-linejoin="round"/>
<path d="M275.521 151.047L291.155 160.051" stroke="#004080" stroke-width="0.15" stroke-linecap="round" stroke-linejoin="round"/>
<path d="M232.28 126.169L241.494 131.46" stroke="#004080" stroke-width="0.15" stroke-linecap="round" stroke-linejoin="round"/>
<path d="M224.995 89.9902L244.451 101.192" stroke="#004080" stroke-width="0.15" stroke-linecap="round" stroke-linejoin="round"/>
<path d="M204.754 101.648L234.682 84.4219" stroke="#004080" stroke-width="0.15" stroke-linecap="round" stroke-linejoin="round"/>
<path d="M223.165 91.0486L231.954 96.1123" stroke="#004080" stroke-width="0.15" stroke-linecap="round" stroke-linejoin="round"/>
<path d="M221.319 92.1069L230.124 97.1706" stroke="#004080" stroke-width="0.15" stroke-linecap="round" stroke-linejoin="round"/>
<path d="M219.473 93.1653L228.278 98.2452" stroke="#004080" stroke-width="0.15" stroke-linecap="round" stroke-linejoin="round"/>
<path d="M217.643 94.2397L226.432 99.3034" stroke="#004080" stroke-width="0.15" stroke-linecap="round" stroke-linejoin="round"/>
<path d="M215.797 95.2981L224.602 100.362" stroke="#004080" stroke-width="0.15" stroke-linecap="round" stroke-linejoin="round"/>
<path d="M213.951 96.3564L222.756 101.42" stroke="#004080" stroke-width="0.15" stroke-linecap="round" stroke-linejoin="round"/>
<path d="M212.122 97.4148L220.911 102.478" stroke="#004080" stroke-width="0.15" stroke-linecap="round" stroke-linejoin="round"/>
<path d="M210.276 98.4731L219.081 103.537" stroke="#004080" stroke-width="0.15" stroke-linecap="round" stroke-linejoin="round"/>
<path d="M208.43 99.5315L217.235 104.595" stroke="#004080" stroke-width="0.15" stroke-linecap="round" stroke-linejoin="round"/>
<path d="M206.6 100.59L215.389 105.654" stroke="#004080" stroke-width="0.15" stroke-linecap="round" stroke-linejoin="round"/>
<path d="M204.754 101.648L213.559 106.712" stroke="#004080" stroke-width="0.15" stroke-linecap="round" stroke-linejoin="round"/>
<path d="M213.559 106.712L233.8 95.054" stroke="#004080" stroke-width="0.15" stroke-linecap="round" stroke-linejoin="round"/>
<path d="M204.754 101.648L203.104 100.704" stroke="#004080" stroke-width="0.15" stroke-linecap="round" stroke-linejoin="round"/>
<path d="M196.684 97.0078L195.034 96.0471" stroke="#004080" stroke-width="0.15" stroke-linecap="round" stroke-linejoin="round"/>
<path d="M215.389 107.77L235.645 96.1123" stroke="#004080" stroke-width="0.15" stroke-linecap="round" stroke-linejoin="round"/>
<path d="M215.389 107.77L224.194 112.834" stroke="#004080" stroke-width="0.15" stroke-linecap="round" stroke-linejoin="round"/>
<path d="M217.235 106.712L226.04 111.775" stroke="#004080" stroke-width="0.15" stroke-linecap="round" stroke-linejoin="round"/>
<path d="M220.911 104.595L229.716 109.659" stroke="#004080" stroke-width="0.15" stroke-linecap="round" stroke-linejoin="round"/>
<path d="M219.081 105.654L227.886 110.717" stroke="#004080" stroke-width="0.15" stroke-linecap="round" stroke-linejoin="round"/>
<path d="M222.756 103.537L231.562 108.601" stroke="#004080" stroke-width="0.15" stroke-linecap="round" stroke-linejoin="round"/>
<path d="M224.602 102.479L233.407 107.542" stroke="#004080" stroke-width="0.15" stroke-linecap="round" stroke-linejoin="round"/>
<path d="M226.432 101.42L235.237 106.484" stroke="#004080" stroke-width="0.15" stroke-linecap="round" stroke-linejoin="round"/>
<path d="M228.278 100.362L237.083 105.425" stroke="#004080" stroke-width="0.15" stroke-linecap="round" stroke-linejoin="round"/>
<path d="M230.124 99.3035L238.929 104.367" stroke="#004080" stroke-width="0.15" stroke-linecap="round" stroke-linejoin="round"/>
<path d="M231.954 98.2451L240.759 103.309" stroke="#004080" stroke-width="0.15" stroke-linecap="round" stroke-linejoin="round"/>
<path d="M233.8 97.1707L242.605 102.251" stroke="#004080" stroke-width="0.15" stroke-linecap="round" stroke-linejoin="round"/>
<path d="M144.736 124.996L223.573 170.358" stroke="#004080" stroke-width="0.15" stroke-linecap="round" stroke-linejoin="round"/>
<path d="M142.351 97.7893L150.486 102.462" stroke="#004080" stroke-width="0.15" stroke-linecap="round" stroke-linejoin="round"/>
<path d="M156.906 106.158L167.182 112.085" stroke="#004080" stroke-width="0.15" stroke-linecap="round" stroke-linejoin="round"/>
<path d="M167.182 112.085L178.552 118.614" stroke="#004080" stroke-width="0.15" stroke-linecap="round" stroke-linejoin="round"/>
<path d="M184.971 122.326L196.341 128.855" stroke="#004080" stroke-width="0.15" stroke-linecap="round" stroke-linejoin="round"/>
<ellipse cx="137.826" cy="71.8033" rx="0.122519" ry="0.122114" fill="#004080"/>
<ellipse cx="139.019" cy="71.1194" rx="0.122519" ry="0.122114" fill="#004080"/>
<ellipse cx="140.309" cy="70.3868" rx="0.122519" ry="0.122114" fill="#004080"/>
<ellipse cx="141.6" cy="69.6377" rx="0.122519" ry="0.122114" fill="#004080"/>
<ellipse cx="142.874" cy="68.9051" rx="0.122519" ry="0.122114" fill="#004080"/>
<ellipse cx="144.164" cy="68.1561" rx="0.122519" ry="0.122114" fill="#004080"/>
<ellipse cx="145.357" cy="67.4722" rx="0.122519" ry="0.122114" fill="#004080"/>
<ellipse cx="162.657" cy="86.0989" rx="0.122519" ry="0.122114" fill="#004080"/>
<ellipse cx="163.408" cy="85.6756" rx="0.122519" ry="0.122114" fill="#004080"/>
<ellipse cx="164.682" cy="84.9266" rx="0.122519" ry="0.122114" fill="#004080"/>
<ellipse cx="165.973" cy="84.1939" rx="0.122519" ry="0.122114" fill="#004080"/>
<ellipse cx="167.263" cy="83.4612" rx="0.122519" ry="0.122114" fill="#004080"/>
<ellipse cx="168.538" cy="82.7122" rx="0.122519" ry="0.122114" fill="#004080"/>
<ellipse cx="169.828" cy="81.9795" rx="0.122519" ry="0.122114" fill="#004080"/>
<ellipse cx="171.119" cy="81.2305" rx="0.122519" ry="0.122114" fill="#004080"/>
<ellipse cx="172.393" cy="80.4978" rx="0.122519" ry="0.122114" fill="#004080"/>
<ellipse cx="173.683" cy="79.7488" rx="0.122519" ry="0.122114" fill="#004080"/>
<ellipse cx="174.974" cy="79.0162" rx="0.122519" ry="0.122114" fill="#004080"/>
<ellipse cx="176.248" cy="78.2835" rx="0.122519" ry="0.122114" fill="#004080"/>
<ellipse cx="177.539" cy="77.5345" rx="0.122519" ry="0.122114" fill="#004080"/>
<ellipse cx="178.829" cy="76.8018" rx="0.122519" ry="0.122114" fill="#004080"/>
<ellipse cx="180.103" cy="76.0528" rx="0.122519" ry="0.122114" fill="#004080"/>
<ellipse cx="181.394" cy="75.3201" rx="0.122519" ry="0.122114" fill="#004080"/>
<ellipse cx="182.668" cy="74.5874" rx="0.122519" ry="0.122114" fill="#004080"/>
<ellipse cx="183.959" cy="73.8387" rx="0.122519" ry="0.122114" fill="#004080"/>
<ellipse cx="185.249" cy="73.1058" rx="0.122519" ry="0.122114" fill="#004080"/>
<ellipse cx="186.523" cy="72.357" rx="0.122519" ry="0.122114" fill="#004080"/>
<ellipse cx="187.814" cy="71.6243" rx="0.122519" ry="0.122114" fill="#004080"/>
<ellipse cx="189.104" cy="70.8916" rx="0.122519" ry="0.122114" fill="#004080"/>
<ellipse cx="190.379" cy="70.1426" rx="0.122519" ry="0.122114" fill="#004080"/>
<ellipse cx="191.669" cy="69.41" rx="0.122519" ry="0.122114" fill="#004080"/>
<ellipse cx="192.96" cy="68.6609" rx="0.122519" ry="0.122114" fill="#004080"/>
<ellipse cx="194.234" cy="67.9283" rx="0.122519" ry="0.122114" fill="#004080"/>
<ellipse cx="195.524" cy="67.1792" rx="0.122519" ry="0.122114" fill="#004080"/>
<ellipse cx="196.815" cy="66.4466" rx="0.122519" ry="0.122114" fill="#004080"/>
<ellipse cx="198.089" cy="65.7139" rx="0.122519" ry="0.122114" fill="#004080"/>
<ellipse cx="199.38" cy="64.9649" rx="0.122519" ry="0.122114" fill="#004080"/>
<ellipse cx="200.131" cy="64.5415" rx="0.122519" ry="0.122114" fill="#004080"/>
<path d="M186.311 148.915L208.757 136.003" stroke="#004080" stroke-width="0.15" stroke-linecap="round" stroke-linejoin="round"/>
<ellipse cx="165.613" cy="55.8145" rx="0.122519" ry="0.122114" fill="#004080"/>
<ellipse cx="166.594" cy="55.2608" rx="0.122519" ry="0.122114" fill="#004080"/>
<ellipse cx="167.884" cy="54.512" rx="0.122519" ry="0.122114" fill="#004080"/>
<ellipse cx="169.158" cy="53.7793" rx="0.122519" ry="0.122114" fill="#004080"/>
<ellipse cx="170.449" cy="53.0303" rx="0.122519" ry="0.122114" fill="#004080"/>
<ellipse cx="171.739" cy="52.2977" rx="0.122519" ry="0.122114" fill="#004080"/>
<ellipse cx="173.014" cy="51.565" rx="0.122519" ry="0.122114" fill="#004080"/>
<ellipse cx="174.304" cy="50.816" rx="0.122519" ry="0.122114" fill="#004080"/>
<ellipse cx="175.284" cy="50.2461" rx="0.122519" ry="0.122114" fill="#004080"/>
<path d="M221.172 143.151L228.654 138.852" stroke="#004080" stroke-width="0.15" stroke-linecap="round" stroke-linejoin="round"/>
<path d="M142.351 97.7893L149.833 93.4746" stroke="#004080" stroke-width="0.15" stroke-linecap="round" stroke-linejoin="round"/>
<path d="M303.129 181.69L306.119 183.416" stroke="#004080" stroke-width="0.15" stroke-linecap="round" stroke-linejoin="round"/>
<path d="M312.539 187.112L316.002 189.114" stroke="#004080" stroke-width="0.15" stroke-linecap="round" stroke-linejoin="round"/>
<path d="M316.002 189.115L319.432 191.085" stroke="#004080" stroke-width="0.15" stroke-linecap="round" stroke-linejoin="round"/>
<path d="M325.852 194.781L328.858 196.507" stroke="#004080" stroke-width="0.15" stroke-linecap="round" stroke-linejoin="round"/>
<ellipse cx="241.494" cy="131.46" rx="0.122519" ry="0.122114" fill="#004080"/>
<ellipse cx="242.131" cy="131.086" rx="0.122519" ry="0.122114" fill="#004080"/>
<ellipse cx="243.421" cy="130.353" rx="0.122519" ry="0.122114" fill="#004080"/>
<ellipse cx="244.712" cy="129.62" rx="0.122519" ry="0.122114" fill="#004080"/>
<ellipse cx="245.986" cy="128.871" rx="0.122519" ry="0.122114" fill="#004080"/>
<ellipse cx="247.277" cy="128.139" rx="0.122519" ry="0.122114" fill="#004080"/>
<ellipse cx="247.914" cy="127.764" rx="0.122519" ry="0.122114" fill="#004080"/>
<ellipse cx="272.532" cy="113.599" rx="0.122519" ry="0.122114" fill="#004080"/>
<ellipse cx="273.169" cy="113.225" rx="0.122519" ry="0.122114" fill="#004080"/>
<ellipse cx="274.46" cy="112.492" rx="0.122519" ry="0.122114" fill="#004080"/>
<ellipse cx="275.75" cy="111.759" rx="0.122519" ry="0.122114" fill="#004080"/>
<ellipse cx="277.024" cy="111.01" rx="0.122519" ry="0.122114" fill="#004080"/>
<ellipse cx="278.315" cy="110.278" rx="0.122519" ry="0.122114" fill="#004080"/>
<ellipse cx="278.952" cy="109.903" rx="0.122519" ry="0.122114" fill="#004080"/>
</g>
<defs>
<clipPath id="clip0_1_1928">
<rect width="391" height="225" fill="white"/>
</clipPath>
</defs>
</svg>
