<svg width="120" height="120" viewBox="0 0 120 120" fill="none" xmlns="http://www.w3.org/2000/svg">
<rect width="120" height="120" fill="#23232E"/>
<path d="M55.8775 60.2482C55.8775 56.3516 55.8775 52.4551 55.8775 48.5801C55.8775 48.1039 55.8128 47.6493 56.5456 47.671C61.416 47.7792 66.3081 47.4978 71.1785 47.8441C71.8251 47.8874 72.4716 47.9957 73.0966 48.1256C76.9757 48.9482 78.6567 51.0047 78.6567 55.0095C78.6567 56.5248 78.786 58.0401 78.4627 59.5338C78.0317 61.4388 76.9541 62.7593 75.1439 63.4736C73.269 64.2097 71.3294 64.4261 69.3467 64.4694C67.4718 64.5127 65.6184 64.5344 63.7435 64.4694C62.8168 64.4261 62.6229 64.7508 62.6444 65.6384C62.7091 67.8031 62.6444 69.9679 62.6875 72.1327C62.7091 72.7821 62.5151 73.0202 61.8471 72.9986C60.1661 72.9553 58.4636 72.9336 56.7826 72.9986C56.0284 73.0202 55.899 72.7388 55.899 72.0677C55.899 68.1062 55.8775 64.188 55.8775 60.2482ZM66.3512 59.5338C66.933 59.5338 67.4934 59.5338 68.0752 59.5338C71.4587 59.5338 71.9759 59.0143 71.9544 55.5939C71.9544 53.4941 71.1785 52.6715 69.045 52.6282C67.1916 52.5849 65.3167 52.6282 63.4634 52.6066C62.8815 52.6066 62.6229 52.7365 62.6444 53.3859C62.6875 55.1826 62.6875 56.9794 62.6444 58.7761C62.6229 59.4256 62.8815 59.5771 63.4634 59.5554C64.4116 59.5121 65.3814 59.5338 66.3512 59.5338Z" fill="#4487A4"/>
<path d="M39.8651 47.671C43.852 47.671 47.8389 47.6926 51.8258 47.6493C52.6447 47.6493 52.9895 47.8225 52.9249 48.7101C52.8602 49.9223 52.8818 51.1562 52.9249 52.3901C52.9464 53.0396 52.7525 53.256 52.0844 53.256C49.4983 53.2127 46.9122 53.2777 44.3261 53.2127C43.5288 53.1911 43.2917 53.4076 43.3132 54.2302C43.3564 60.0967 43.3133 65.9848 43.3564 71.8513C43.3564 72.7821 43.0977 72.9986 42.2142 72.9553C40.7056 72.8903 39.1971 72.8687 37.6885 72.9553C36.7187 73.0202 36.5894 72.6522 36.611 71.7863C36.6541 65.9848 36.611 60.1832 36.6541 54.3817C36.6541 53.4076 36.417 53.1695 35.4688 53.1911C32.9473 53.256 30.4474 53.1911 27.926 53.2344C27.2148 53.256 26.9778 53.0396 26.9993 52.3252C27.0424 51.0696 27.0424 49.7924 26.9993 48.5369C26.9778 47.8225 27.2148 47.6277 27.926 47.6277C31.8913 47.6926 35.8782 47.671 39.8651 47.671Z" fill="#4487A4"/>
<path d="M23.8531 60.3349C23.8531 64.2315 23.8316 68.1064 23.8747 72.003C23.8747 72.739 23.7023 72.9987 22.9265 72.9771C21.2455 72.9121 19.5645 72.9338 17.862 72.9771C17.2371 72.9987 17 72.8689 17 72.1545C17.0216 64.2531 17.0216 56.3734 17 48.4721C17 47.7794 17.2586 47.6495 17.8836 47.6711C19.5645 47.7144 21.2455 47.7144 22.948 47.6711C23.7454 47.6495 23.8962 47.9526 23.8747 48.6669C23.8316 52.5418 23.8531 56.4384 23.8531 60.3349Z" fill="#4487A4"/>
<path d="M100.272 57.1094C100.919 57.7372 101.544 58.3649 102.212 58.9711C102.557 59.2741 102.578 59.4906 102.233 59.837C98.3759 63.6686 94.5398 67.5002 90.6822 71.3534C90.4236 71.5916 90.165 71.6998 89.8202 71.6998C87.3419 71.6998 84.8635 71.6998 82.6869 71.6998C86.3505 67.8682 90.1219 63.9283 93.8933 59.9668C94.2166 59.9885 94.5398 60.0101 94.8415 59.8586C96.6087 58.8195 98.5914 58.2567 100.272 57.1094Z" fill="#E64E26"/>
<path d="M88.4196 53.2778C86.1784 51.3944 84.3034 49.1864 81.976 47C84.8207 47 87.3636 47 89.9282 47C90.2083 47 90.3807 47.1299 90.5747 47.3247C91.6307 48.4287 92.7082 49.5328 93.7858 50.6368C91.9971 51.5027 90.2083 52.3902 88.4196 53.2778Z" fill="#FB9957"/>
<path d="M88.4193 53.2779C90.208 52.3903 91.9967 51.5028 93.7854 50.6152C94.9491 51.7626 96.0913 52.9315 97.2551 54.0788C95.5095 54.7066 93.9363 55.6808 92.2553 56.4817C92.0829 56.5683 92.0182 56.7415 91.9967 56.9147C90.7252 55.789 89.4968 54.62 88.4193 53.2779Z" fill="#E96B43"/>
<path d="M91.9968 56.9362C92.0183 56.7413 92.083 56.5898 92.2554 56.5032C93.9148 55.7023 95.5095 54.7281 97.2552 54.1003C98.3327 55.0312 99.3456 56.027 100.272 57.1093C98.5697 58.2567 96.5871 58.8411 94.8199 59.8369C94.5182 60.0101 94.1949 59.9668 93.8717 59.9452C94.238 59.5555 94.2596 59.2308 93.807 58.8195C93.1821 58.2567 92.6002 57.5639 91.9968 56.9362Z" fill="#E76338"/>
</svg>
