<svg width="14" height="14" viewBox="0 0 14 14" fill="none" xmlns="http://www.w3.org/2000/svg">
<circle cx="6.99951" cy="7.00055" r="7" transform="rotate(-90 6.99951 7.00055)" fill="#EC6F2D" fill-opacity="0.5"/>
<circle cx="7.23313" cy="6.76687" r="4.9" transform="rotate(-90 7.23313 6.76687)" fill="#EC6F2D"/>
<path d="M4.66492 6.61213C4.66492 7.33411 4.95172 8.02651 5.46224 8.53703C5.97275 9.04755 6.66516 9.33435 7.38714 9.33435C8.10912 9.33435 8.80153 9.04755 9.31204 8.53703C9.82256 8.02651 10.1094 7.33411 10.1094 6.61213C10.1094 5.89015 9.82256 5.19774 9.31204 4.68723C8.80153 4.17671 8.10912 3.88991 7.38714 3.88991C6.66516 3.88991 5.97275 4.17671 5.46224 4.68723C4.95172 5.19774 4.66492 5.89015 4.66492 6.61213ZM5.21957 7.60166L5.698 6.78159L6.27647 6.78159L6.94069 7.72382L6.74776 8.25465L5.89298 8.46766C5.60441 8.2351 5.37387 7.93862 5.21957 7.60166ZM7.62261 8.9825L7.07136 8.36082L7.26226 7.83475L8.38177 7.47916L8.74689 7.72313L8.74689 8.56804C8.41385 8.80028 8.0267 8.943 7.62261 8.9825ZM9.70443 7.16576L8.94017 7.44309L8.57845 7.20149L8.57845 6.02175L8.94017 5.77981L9.70409 6.05713C9.79109 6.42156 9.79143 6.80134 9.70443 7.16576ZM8.74689 4.65621L8.74689 5.49942L8.38109 5.74442L7.2626 5.39563L7.07068 4.86242L7.62261 4.24175C8.0267 4.28125 8.41385 4.42397 8.74689 4.65621ZM5.89536 4.75489L6.74708 4.96791L6.94104 5.50691L6.27681 6.44165L5.69834 6.44165L5.21957 5.62192C5.37431 5.28436 5.60558 4.98751 5.89502 4.75489L5.89536 4.75489Z" fill="white"/>
</svg>
