<svg width="14" height="14" viewBox="0 0 14 14" fill="none" xmlns="http://www.w3.org/2000/svg">
<circle cx="6.99951" cy="7.00055" r="7" fill="#EC6F2D" fill-opacity="0.5"/>
<circle cx="6.99949" cy="7.00022" r="4.9" fill="#EC6F2D"/>
<path fill-rule="evenodd" clip-rule="evenodd" d="M6.6118 4.02839C6.7353 4.09339 6.78535 4.25146 6.72361 4.38145L6.47361 4.90776C6.41186 5.03775 6.26169 5.09044 6.1382 5.02544C6.0147 4.96045 5.96465 4.80238 6.02639 4.67239L6.27639 4.14608C6.33814 4.01608 6.48831 3.96339 6.6118 4.02839ZM7.3618 4.02839C7.4853 4.09339 7.53535 4.25146 7.47361 4.38145L7.22361 4.90776C7.16186 5.03775 7.01169 5.09044 6.8882 5.02544C6.7647 4.96045 6.71465 4.80238 6.77639 4.67239L7.02639 4.14608C7.08814 4.01608 7.23831 3.96339 7.3618 4.02839ZM8.1118 4.02839C8.2353 4.09339 8.28535 4.25146 8.22361 4.38145L7.97361 4.90776C7.91186 5.03775 7.76169 5.09044 7.6382 5.02544C7.5147 4.96045 7.46465 4.80238 7.52639 4.67239L7.77639 4.14608C7.83814 4.01608 7.98831 3.96339 8.1118 4.02839ZM5.5 5.84269V6.89531C5.49999 7.31185 5.65634 7.71153 5.93501 8.00727C6.21346 8.30277 6.59147 8.47059 6.98683 8.47424H7.01317C7.40853 8.47059 7.78654 8.30277 8.06499 8.00727C8.34363 7.71156 8.49999 7.31193 8.5 6.89542C8.5 6.89539 8.5 6.89546 8.5 6.89542V5.84269H5.5ZM8.93651 7.42162C8.84862 7.77993 8.67174 8.11072 8.41998 8.3779C8.38857 8.41124 8.3562 8.44337 8.32295 8.47424H8.75C8.88807 8.47424 9 8.59206 9 8.7374C9 8.88273 8.88807 9.00055 8.75 9.00055H5.25C5.11193 9.00055 5 8.88273 5 8.7374C5 8.59206 5.11193 8.47424 5.25 8.47424H5.67705C5.6438 8.44337 5.61143 8.41124 5.58002 8.3779C5.20846 7.98359 4.99998 7.45069 5 6.89531C5 6.89531 5 6.89531 5 6.89531V5.82243C5 5.54288 5.21518 5.31638 5.48075 5.31638H8.51925C8.70119 5.31638 8.85948 5.42269 8.94113 5.57954H9.125C9.35706 5.57954 9.57962 5.67657 9.74372 5.8493C9.90781 6.02203 10 6.2563 10 6.50058C10 6.74485 9.90781 6.97913 9.74372 7.15185C9.57962 7.32458 9.35706 7.42162 9.125 7.42162H8.93651ZM9 6.10585V6.89531H9.125C9.22446 6.89531 9.31984 6.85372 9.39017 6.7797C9.46049 6.70567 9.5 6.60527 9.5 6.50058C9.5 6.39589 9.46049 6.29549 9.39017 6.22146C9.31984 6.14743 9.22446 6.10585 9.125 6.10585H9Z" fill="white"/>
</svg>
