<svg width="14" height="14" viewBox="0 0 14 14" fill="none" xmlns="http://www.w3.org/2000/svg">
<circle cx="7" cy="7.00009" r="7" fill="#EC6F2D" fill-opacity="0.5"/>
<circle cx="6.99985" cy="7.00104" r="4.9" fill="#EC6F2D"/>
<path d="M8.10763 6.64771C8.2225 6.64802 8.3363 6.62555 8.44243 6.58158C8.54856 6.53761 8.64492 6.47303 8.72592 6.39156L9.56735 5.55067C9.6339 5.48413 9.64002 5.37583 9.57664 5.306C9.56073 5.28846 9.54142 5.27433 9.51988 5.26448C9.49835 5.25462 9.47503 5.24924 9.45135 5.24867C9.42768 5.2481 9.40413 5.25234 9.38214 5.26115C9.36015 5.26995 9.34018 5.28313 9.32344 5.29988L8.57348 6.04931C8.54829 6.07446 8.51416 6.08858 8.47857 6.08858C8.44298 6.08858 8.40884 6.07446 8.38366 6.04931C8.33132 5.99707 8.33416 5.90878 8.38639 5.85654L9.13308 5.10985C9.14982 5.09311 9.16298 5.07315 9.17178 5.05117C9.18057 5.02919 9.18481 5.00566 9.18424 4.982C9.18366 4.95833 9.17829 4.93503 9.16845 4.91351C9.1586 4.89198 9.14449 4.87268 9.12696 4.85677C9.09532 4.82806 9.05407 4.81227 9.01135 4.81251C8.96293 4.81254 8.91651 4.8318 8.88229 4.86605L8.13626 5.61198C8.11108 5.63713 8.07694 5.65126 8.04135 5.65126C8.00576 5.65126 7.97162 5.63713 7.94644 5.61198C7.89421 5.55974 7.89694 5.47145 7.94917 5.41921L8.69587 4.67274C8.7126 4.656 8.72577 4.63604 8.73456 4.61406C8.74335 4.59209 8.74759 4.56855 8.74702 4.54489C8.74645 4.52122 8.74108 4.49792 8.73123 4.4764C8.72139 4.45487 8.70727 4.43557 8.68975 4.41966C8.6581 4.39096 8.61685 4.37516 8.57413 4.3754C8.52572 4.37546 8.47931 4.39471 8.44507 4.42895L7.60419 5.26983C7.52272 5.35085 7.45813 5.44722 7.41416 5.55337C7.37019 5.65952 7.34772 5.77334 7.34804 5.88823V5.97817C7.34806 6.00116 7.34354 6.02393 7.33475 6.04518C7.32595 6.06642 7.31305 6.08572 7.29679 6.10198L6.90765 6.49122C6.90359 6.49529 6.89877 6.49851 6.89347 6.50071C6.88816 6.50291 6.88247 6.50404 6.87673 6.50404C6.87098 6.50404 6.8653 6.50291 6.85999 6.50071C6.85468 6.49851 6.84986 6.49529 6.8458 6.49122L4.95225 4.59756C4.91957 4.56484 4.87526 4.5464 4.82901 4.54628C4.78277 4.54616 4.73836 4.56436 4.7055 4.5969C4.53995 4.76093 4.45154 4.99249 4.45154 5.26645C4.45045 5.71885 4.68824 6.23901 5.07213 6.62236L6.0059 7.55613C6.13862 7.68858 6.31845 7.76297 6.50595 7.76299C6.56573 7.76301 6.62526 7.75538 6.68309 7.74026C6.69761 7.73646 6.71256 7.73451 6.72757 7.73447C6.77146 7.73448 6.81373 7.75106 6.84591 7.78091L6.97038 7.89587C7.00248 7.92867 7.02052 7.9727 7.02065 8.01859V8.07913C7.02033 8.21675 7.07441 8.34893 7.17112 8.44685L8.15516 9.4475L8.15615 9.44859C8.26536 9.55779 8.41349 9.61914 8.56794 9.61913C8.72239 9.61912 8.87051 9.55775 8.97971 9.44854C9.08892 9.33932 9.15026 9.19119 9.15025 9.03674C9.15024 8.88229 9.08888 8.73417 8.97966 8.62497L7.50464 7.14995C7.50057 7.14589 7.49735 7.14107 7.49515 7.13576C7.49295 7.13045 7.49182 7.12476 7.49182 7.11902C7.49182 7.11328 7.49295 7.10759 7.49515 7.10228C7.49735 7.09698 7.50057 7.09215 7.50464 7.08809L7.89377 6.69896C7.91001 6.68271 7.9293 6.66982 7.95052 6.66102C7.97175 6.65223 7.9945 6.6477 8.01747 6.64771H8.10763Z" fill="white"/>
<path d="M6.50612 8.11231C6.22618 8.11174 5.95777 8.00081 5.7591 7.80361L5.60764 7.65215C5.59125 7.6358 5.56905 7.62662 5.5459 7.62662C5.52275 7.62662 5.50054 7.6358 5.48416 7.65215L4.5553 8.5762C4.38975 8.74175 4.33063 8.98544 4.41258 9.2241C4.41717 9.23754 4.42261 9.25068 4.42887 9.26344C4.53913 9.48921 4.75309 9.62034 4.98716 9.62034C5.06766 9.62054 5.1474 9.60476 5.22175 9.57392C5.29611 9.54308 5.36361 9.4978 5.42034 9.44069L6.6591 8.19602C6.66432 8.1907 6.66831 8.18431 6.6708 8.17729C6.67329 8.17027 6.67422 8.16279 6.67353 8.15537V8.15253C6.67304 8.14571 6.67118 8.13907 6.66806 8.13299C6.66493 8.12692 6.66061 8.12154 6.65535 8.11718C6.6501 8.11282 6.64401 8.10957 6.63746 8.10762C6.63091 8.10568 6.62404 8.10508 6.61725 8.10587C6.58034 8.10996 6.54325 8.11211 6.50612 8.11231Z" fill="white"/>
</svg>
